<svg width="148" height="32" viewBox="0 0 148 32" fill="none" xmlns="http://www.w3.org/2000/svg">
<path d="M1.18317 24.7622C1.91682 22.8309 2.57728 21.0912 3.34452 19.0714C4.30894 20.4707 5.20621 21.6276 5.92953 22.8833C6.32305 23.5666 5.2019 24.6599 4.34683 24.7458C4.16342 24.7639 3.97656 24.7613 3.79057 24.7613C3.01386 24.763 2.23801 24.7613 1.18317 24.7613V24.7622Z" fill="#FD2751"/>
<path d="M23.7714 24.7733V0.0197754H27.76V24.7733H23.7714Z" fill="#FD2751"/>
<path d="M6.59083 10.9002L10.4167 0.0197754H14.7566L21.3595 24.7733H18.5618C17.7592 24.445 17.2426 23.876 17.0178 23.1085C15.7968 18.9339 12.0975 6.56658 12.0975 6.56658L9.07767 14.688L6.58997 10.9002H6.59083Z" fill="#FD2751"/>
<path d="M0 11.1838H5.13902L8.48954 16.1233C12.2491 11.8585 17.1151 10.6526 22.7493 11.5731C17.2917 13.2432 12.1337 16.4388 7.43729 21.9181L0 11.1838Z" fill="#FCC836"/>
<path d="M31.9406 24.8327V7.63408H35.9292V24.8327H31.9406Z" fill="#FD2751"/>
<path d="M33.9349 4.9533C35.3269 4.9533 36.4553 3.85312 36.4553 2.49599C36.4553 1.13885 35.3269 0.038681 33.9349 0.038681C32.5429 0.038681 31.4145 1.13885 31.4145 2.49599C31.4145 3.85312 32.5429 4.9533 33.9349 4.9533Z" fill="#FD2751"/>
<path d="M40.2028 0H54.2464V3.45604H44.0132V9.71148H54.2464V13.1151L44.0132 13.1142V21.2434L55.489 21.2511L52.9066 24.7871L40.2028 24.7931V0Z" fill="#FD2751"/>
<path d="M55.6458 7.58766H60.1484L63.8081 12.8959L67.4936 7.58766H72.1538L66.1709 16.2591L72.1538 24.8782L67.3885 24.7862L63.8477 19.7539L60.2535 24.7862H55.5416L61.5606 16.2334L55.6458 7.58766Z" fill="#FD2751"/>
<path d="M83.2525 7.14759C81.1807 7.14759 79.5059 8.07241 78.1169 9.58771V7.58765H74.0146V32H78.1169V22.8291C79.5145 24.408 81.0791 24.7862 83.2301 24.7862C87.5063 24.7862 91.2874 21.0844 91.2874 16.1044C91.2874 11.1245 87.5296 7.14673 83.2534 7.14673L83.2525 7.14759ZM82.6712 21.3181C80.0165 21.3181 77.8792 19.0241 77.8792 15.9858C77.8792 12.9475 80.0311 10.5572 82.685 10.5572C85.3389 10.5572 87.6725 12.9836 87.6725 16.0219C87.6725 19.0602 85.3251 21.3181 82.6712 21.3181Z" fill="#FD2751"/>
<path d="M96.5452 15.4581C96.5452 12.9312 98.8228 10.1696 102.284 10.5228C102.709 9.76906 103.772 8.48325 104.851 7.90137C101.621 6.79778 99.1819 7.18283 96.5435 9.3608L96.5452 7.58594H92.6686L92.6694 24.7725H96.5452V15.4581Z" fill="#FD2751"/>
<path d="M114.307 20.2549C113.416 21.0431 112.243 21.5227 110.958 21.5227C108.711 21.5227 106.689 19.8811 106.032 17.8569H119.195C119.396 11.2483 115.669 7.69423 110.958 7.69423C106.247 7.69423 102.428 11.5439 102.428 16.2935C102.428 21.0431 106.247 24.8928 110.958 24.8928C114.252 24.8928 117.109 23.0105 118.531 20.2549H114.307ZM110.839 11.2483C113.087 11.2483 114.99 12.712 115.648 14.737H106.031C106.689 12.7128 108.592 11.2483 110.839 11.2483Z" fill="#FD2751"/>
<path d="M129.827 12.2092H133.303C133.303 6.6233 120.35 5.49994 120.349 12.9845C120.349 18.6365 130.084 16.6373 130.038 19.4754C129.996 22.0152 124.506 21.7204 123.706 20.0925H120.152C121.495 26.8851 133.658 25.858 133.658 19.7375C133.658 12.9561 123.943 16.2626 123.812 12.7868C123.706 9.99168 128.91 10.1997 129.827 12.2083V12.2092Z" fill="#FD2751"/>
<path d="M144.17 12.2092H147.645C147.645 6.6233 134.693 5.49994 134.692 12.9845C134.692 18.6365 144.426 16.6373 144.38 19.4754C144.339 22.0152 138.848 21.7204 138.048 20.0925H134.495C135.837 26.8851 148 25.858 148 19.7375C148 12.9561 138.285 16.2626 138.154 12.7868C138.048 9.99168 143.252 10.1997 144.17 12.2083V12.2092Z" fill="#FD2751"/>
</svg>
