<svg width="17" height="17" viewBox="0 0 17 17" fill="none" xmlns="http://www.w3.org/2000/svg">
<path d="M13.1 4.19238V10.6924C13.1 10.825 13.0473 10.9522 12.9536 11.0459C12.8598 11.1397 12.7326 11.1924 12.6 11.1924C12.4674 11.1924 12.3402 11.1397 12.2465 11.0459C12.1527 10.9522 12.1 10.825 12.1 10.6924V5.39926L4.95376 12.5461C4.85994 12.64 4.73269 12.6927 4.60001 12.6927C4.46733 12.6927 4.34008 12.64 4.24626 12.5461C4.15244 12.4523 4.09973 12.3251 4.09973 12.1924C4.09973 12.0597 4.15244 11.9325 4.24626 11.8386L11.3931 4.69238H6.10001C5.9674 4.69238 5.84022 4.6397 5.74646 4.54594C5.65269 4.45217 5.60001 4.32499 5.60001 4.19238C5.60001 4.05977 5.65269 3.9326 5.74646 3.83883C5.84022 3.74506 5.9674 3.69238 6.10001 3.69238H12.6C12.7326 3.69238 12.8598 3.74506 12.9536 3.83883C13.0473 3.9326 13.1 4.05977 13.1 4.19238Z" fill="#0325B6"/>
</svg>
