<svg width="16" height="16" viewBox="0 0 16 16" fill="none" xmlns="http://www.w3.org/2000/svg">
<path d="M2.14662 8.35375L6.64662 12.8538C6.74044 12.9476 6.86768 13.0003 7.00037 13.0003C7.13305 13.0003 7.2603 12.9476 7.35412 12.8538C7.44794 12.7599 7.50064 12.6327 7.50064 12.5C7.50064 12.3673 7.44794 12.2401 7.35412 12.1463L3.70724 8.5H13.5004C13.633 8.5 13.7602 8.44733 13.8539 8.35356C13.9477 8.25979 14.0004 8.13261 14.0004 8C14.0004 7.86739 13.9477 7.74022 13.8539 7.64645C13.7602 7.55268 13.633 7.5 13.5004 7.5H3.70724L7.35412 3.85375C7.44794 3.75993 7.50064 3.63269 7.50064 3.5C7.50064 3.36732 7.44794 3.24007 7.35412 3.14625C7.2603 3.05243 7.13305 2.99973 7.00037 2.99973C6.86768 2.99973 6.74044 3.05243 6.64662 3.14625L2.14662 7.64625C2.10013 7.69269 2.06325 7.74783 2.03809 7.80853C2.01292 7.86923 1.99997 7.9343 1.99997 8C1.99997 8.06571 2.01292 8.13077 2.03809 8.19147C2.06325 8.25217 2.10013 8.30732 2.14662 8.35375Z" fill="#0325B6"/>
</svg>
