<svg width="16" height="16" viewBox="0 0 16 16" fill="none" xmlns="http://www.w3.org/2000/svg">
<g id="Arrow-right">
<path id="Vector" d="M13.8538 8.35375L9.35375 12.8538C9.25993 12.9476 9.13268 13.0003 9 13.0003C8.86732 13.0003 8.74007 12.9476 8.64625 12.8538C8.55243 12.7599 8.49972 12.6327 8.49972 12.5C8.49972 12.3673 8.55243 12.2401 8.64625 12.1462L12.2931 8.5H2.5C2.36739 8.5 2.24021 8.44732 2.14645 8.35355C2.05268 8.25979 2 8.13261 2 8C2 7.86739 2.05268 7.74021 2.14645 7.64645C2.24021 7.55268 2.36739 7.5 2.5 7.5H12.2931L8.64625 3.85375C8.55243 3.75993 8.49972 3.63268 8.49972 3.5C8.49972 3.36732 8.55243 3.24007 8.64625 3.14625C8.74007 3.05243 8.86732 2.99972 9 2.99972C9.13268 2.99972 9.25993 3.05243 9.35375 3.14625L13.8538 7.64625C13.9002 7.69269 13.9371 7.74783 13.9623 7.80853C13.9874 7.86923 14.0004 7.93429 14.0004 8C14.0004 8.06571 13.9874 8.13077 13.9623 8.19147C13.9371 8.25217 13.9002 8.30731 13.8538 8.35375Z" fill="#0325B6"/>
</g>
</svg>
