<svg width="260" height="200" viewBox="0 0 260 200" fill="none" xmlns="http://www.w3.org/2000/svg">
<circle cx="130.125" cy="100.125" r="73.125" fill="white"/>
<path d="M164.153 98.4807C164.443 98.771 164.674 99.1156 164.831 99.495C164.988 99.8744 165.069 100.281 165.069 100.692C165.069 101.102 164.988 101.509 164.831 101.888C164.674 102.268 164.443 102.612 164.153 102.903L139.153 127.903C138.566 128.489 137.771 128.818 136.942 128.818C136.112 128.818 135.317 128.489 134.731 127.903C134.144 127.316 133.815 126.521 133.815 125.692C133.815 124.862 134.144 124.067 134.731 123.481L154.395 103.817H99.4417C98.6128 103.817 97.818 103.487 97.2319 102.901C96.6459 102.315 96.3167 101.52 96.3167 100.692C96.3167 99.8629 96.6459 99.068 97.2319 98.482C97.818 97.8959 98.6128 97.5667 99.4417 97.5667H154.395L134.731 77.9026C134.144 77.3162 133.815 76.5209 133.815 75.6917C133.815 74.8624 134.144 74.0671 134.731 73.4807C135.317 72.8944 136.112 72.5649 136.942 72.5649C137.771 72.5649 138.566 72.8944 139.153 73.4807L164.153 98.4807Z" fill="#0325B6"/>
</svg>
