<svg width="32" height="32" viewBox="0 0 32 32" fill="none" xmlns="http://www.w3.org/2000/svg">
<path d="M27.895 8.5525L25.895 4.5525C25.8119 4.38636 25.6841 4.24667 25.526 4.14908C25.3679 4.05149 25.1858 3.99987 25 4H7C6.81422 3.99987 6.63208 4.05149 6.47399 4.14908C6.31591 4.24667 6.18814 4.38636 6.105 4.5525L4.105 8.5525C4.03616 8.69164 4.00023 8.84476 4 9V26C4 26.5304 4.21071 27.0391 4.58579 27.4142C4.96086 27.7893 5.46957 28 6 28H26C26.5304 28 27.0391 27.7893 27.4142 27.4142C27.7893 27.0391 28 26.5304 28 26V9C27.9998 8.84476 27.9638 8.69164 27.895 8.5525ZM7.6175 6H24.3825L25.3825 8H6.6175L7.6175 6ZM26 26H6V10H26V26ZM20.7075 16.2925C20.8004 16.3854 20.8741 16.4957 20.9244 16.6171C20.9747 16.7385 21.0006 16.8686 21.0006 17C21.0006 17.1314 20.9747 17.2615 20.9244 17.3829C20.8741 17.5043 20.8004 17.6146 20.7075 17.7075C20.6146 17.8004 20.5043 17.8741 20.3829 17.9244C20.2615 17.9747 20.1314 18.0006 20 18.0006C19.8686 18.0006 19.7385 17.9747 19.6171 17.9244C19.4957 17.8741 19.3854 17.8004 19.2925 17.7075L17 15.4137V23C17 23.2652 16.8946 23.5196 16.7071 23.7071C16.5196 23.8946 16.2652 24 16 24C15.7348 24 15.4804 23.8946 15.2929 23.7071C15.1054 23.5196 15 23.2652 15 23V15.4137L12.7075 17.7075C12.6146 17.8004 12.5043 17.8741 12.3829 17.9244C12.2615 17.9747 12.1314 18.0006 12 18.0006C11.8686 18.0006 11.7385 17.9747 11.6171 17.9244C11.4957 17.8741 11.3854 17.8004 11.2925 17.7075C11.1996 17.6146 11.1259 17.5043 11.0756 17.3829C11.0253 17.2615 10.9994 17.1314 10.9994 17C10.9994 16.8686 11.0253 16.7385 11.0756 16.6171C11.1259 16.4957 11.1996 16.3854 11.2925 16.2925L15.2925 12.2925C15.3854 12.1995 15.4957 12.1258 15.6171 12.0754C15.7385 12.0251 15.8686 11.9992 16 11.9992C16.1314 11.9992 16.2615 12.0251 16.3829 12.0754C16.5043 12.1258 16.6146 12.1995 16.7075 12.2925L20.7075 16.2925Z" fill="#0325B6"/>
</svg>
