<svg width="25" height="25" viewBox="0 0 25 25" fill="none" xmlns="http://www.w3.org/2000/svg">
<path d="M7.83301 11.75H16.833C17.0319 11.75 17.2227 11.671 17.3633 11.5303C17.504 11.3897 17.583 11.1989 17.583 11V6.5C17.583 6.30109 17.504 6.11032 17.3633 5.96967C17.2227 5.82902 17.0319 5.75 16.833 5.75H7.83301C7.6341 5.75 7.44333 5.82902 7.30268 5.96967C7.16203 6.11032 7.08301 6.30109 7.08301 6.5V11C7.08301 11.1989 7.16203 11.3897 7.30268 11.5303C7.44333 11.671 7.6341 11.75 7.83301 11.75ZM8.58301 7.25H16.083V10.25H8.58301V7.25ZM19.083 2.75H5.58301C5.18518 2.75 4.80365 2.90804 4.52235 3.18934C4.24104 3.47064 4.08301 3.85218 4.08301 4.25V20.75C4.08301 21.1478 4.24104 21.5294 4.52235 21.8107C4.80365 22.092 5.18518 22.25 5.58301 22.25H19.083C19.4808 22.25 19.8624 22.092 20.1437 21.8107C20.425 21.5294 20.583 21.1478 20.583 20.75V4.25C20.583 3.85218 20.425 3.47064 20.1437 3.18934C19.8624 2.90804 19.4808 2.75 19.083 2.75ZM19.083 20.75H5.58301V4.25H19.083V20.75ZM9.70801 14.375C9.70801 14.5975 9.64203 14.815 9.51841 15C9.39479 15.185 9.21909 15.3292 9.01353 15.4144C8.80796 15.4995 8.58176 15.5218 8.36353 15.4784C8.1453 15.435 7.94485 15.3278 7.78751 15.1705C7.63018 15.0132 7.52303 14.8127 7.47962 14.5945C7.43622 14.3762 7.45849 14.15 7.54364 13.9445C7.62879 13.7389 7.77299 13.5632 7.95799 13.4396C8.143 13.316 8.3605 13.25 8.58301 13.25C8.88138 13.25 9.16752 13.3685 9.3785 13.5795C9.58948 13.7905 9.70801 14.0766 9.70801 14.375ZM13.458 14.375C13.458 14.5975 13.392 14.815 13.2684 15C13.1448 15.185 12.9691 15.3292 12.7635 15.4144C12.558 15.4995 12.3318 15.5218 12.1135 15.4784C11.8953 15.435 11.6948 15.3278 11.5375 15.1705C11.3802 15.0132 11.273 14.8127 11.2296 14.5945C11.1862 14.3762 11.2085 14.15 11.2936 13.9445C11.3788 13.7389 11.523 13.5632 11.708 13.4396C11.893 13.316 12.1105 13.25 12.333 13.25C12.6314 13.25 12.9175 13.3685 13.1285 13.5795C13.3395 13.7905 13.458 14.0766 13.458 14.375ZM17.208 14.375C17.208 14.5975 17.142 14.815 17.0184 15C16.8948 15.185 16.7191 15.3292 16.5135 15.4144C16.308 15.4995 16.0818 15.5218 15.8635 15.4784C15.6453 15.435 15.4448 15.3278 15.2875 15.1705C15.1302 15.0132 15.023 14.8127 14.9796 14.5945C14.9362 14.3762 14.9585 14.15 15.0436 13.9445C15.1288 13.7389 15.273 13.5632 15.458 13.4396C15.643 13.316 15.8605 13.25 16.083 13.25C16.3814 13.25 16.6675 13.3685 16.8785 13.5795C17.0895 13.7905 17.208 14.0766 17.208 14.375ZM9.70801 18.125C9.70801 18.3475 9.64203 18.565 9.51841 18.75C9.39479 18.935 9.21909 19.0792 9.01353 19.1644C8.80796 19.2495 8.58176 19.2718 8.36353 19.2284C8.1453 19.185 7.94485 19.0778 7.78751 18.9205C7.63018 18.7632 7.52303 18.5627 7.47962 18.3445C7.43622 18.1262 7.45849 17.9 7.54364 17.6945C7.62879 17.4889 7.77299 17.3132 7.95799 17.1896C8.143 17.066 8.3605 17 8.58301 17C8.88138 17 9.16752 17.1185 9.3785 17.3295C9.58948 17.5405 9.70801 17.8266 9.70801 18.125ZM13.458 18.125C13.458 18.3475 13.392 18.565 13.2684 18.75C13.1448 18.935 12.9691 19.0792 12.7635 19.1644C12.558 19.2495 12.3318 19.2718 12.1135 19.2284C11.8953 19.185 11.6948 19.0778 11.5375 18.9205C11.3802 18.7632 11.273 18.5627 11.2296 18.3445C11.1862 18.1262 11.2085 17.9 11.2936 17.6945C11.3788 17.4889 11.523 17.3132 11.708 17.1896C11.893 17.066 12.1105 17 12.333 17C12.6314 17 12.9175 17.1185 13.1285 17.3295C13.3395 17.5405 13.458 17.8266 13.458 18.125ZM17.208 18.125C17.208 18.3475 17.142 18.565 17.0184 18.75C16.8948 18.935 16.7191 19.0792 16.5135 19.1644C16.308 19.2495 16.0818 19.2718 15.8635 19.2284C15.6453 19.185 15.4448 19.0778 15.2875 18.9205C15.1302 18.7632 15.023 18.5627 14.9796 18.3445C14.9362 18.1262 14.9585 17.9 15.0436 17.6945C15.1288 17.4889 15.273 17.3132 15.458 17.1896C15.643 17.066 15.8605 17 16.083 17C16.3814 17 16.6675 17.1185 16.8785 17.3295C17.0895 17.5405 17.208 17.8266 17.208 18.125Z" fill="#000626" fill-opacity="0.9"/>
</svg>
