<svg width="16" height="16" viewBox="0 0 16 16" fill="none" xmlns="http://www.w3.org/2000/svg">
<path d="M13.3538 10.3538C13.3073 10.4002 13.2522 10.4371 13.1915 10.4623C13.1308 10.4874 13.0657 10.5004 13 10.5004C12.9343 10.5004 12.8693 10.4874 12.8086 10.4623C12.7479 10.4371 12.6927 10.4002 12.6463 10.3538L8.00003 5.70688L3.35378 10.3538C3.25996 10.4476 3.13272 10.5003 3.00003 10.5003C2.86735 10.5003 2.7401 10.4476 2.64628 10.3538C2.55246 10.2599 2.49976 10.1327 2.49976 10C2.49976 9.86732 2.55246 9.74007 2.64628 9.64625L7.64628 4.64625C7.69272 4.59976 7.74786 4.56288 7.80856 4.53772C7.86926 4.51256 7.93433 4.49961 8.00003 4.49961C8.06574 4.49961 8.13081 4.51256 8.1915 4.53772C8.2522 4.56288 8.30735 4.59976 8.35378 4.64625L13.3538 9.64625C13.4003 9.69269 13.4372 9.74783 13.4623 9.80853C13.4875 9.86923 13.5004 9.93429 13.5004 10C13.5004 10.0657 13.4875 10.1308 13.4623 10.1915C13.4372 10.2522 13.4003 10.3073 13.3538 10.3538Z" fill="#0325B6"/>
</svg>
