<svg width="32" height="32" viewBox="0 0 32 32" fill="none" xmlns="http://www.w3.org/2000/svg">
<path d="M21 19.0001C21 19.2653 20.8946 19.5196 20.7071 19.7072C20.5196 19.8947 20.2652 20.0001 20 20.0001H12C11.7348 20.0001 11.4804 19.8947 11.2929 19.7072C11.1054 19.5196 11 19.2653 11 19.0001C11 18.7348 11.1054 18.4805 11.2929 18.293C11.4804 18.1054 11.7348 18.0001 12 18.0001H20C20.2652 18.0001 20.5196 18.1054 20.7071 18.293C20.8946 18.4805 21 18.7348 21 19.0001ZM20 14.0001H12C11.7348 14.0001 11.4804 14.1054 11.2929 14.293C11.1054 14.4805 11 14.7348 11 15.0001C11 15.2653 11.1054 15.5196 11.2929 15.7072C11.4804 15.8947 11.7348 16.0001 12 16.0001H20C20.2652 16.0001 20.5196 15.8947 20.7071 15.7072C20.8946 15.5196 21 15.2653 21 15.0001C21 14.7348 20.8946 14.4805 20.7071 14.293C20.5196 14.1054 20.2652 14.0001 20 14.0001ZM27 6.00006V27.0001C27 27.5305 26.7893 28.0392 26.4142 28.4143C26.0391 28.7893 25.5304 29.0001 25 29.0001H7C6.46957 29.0001 5.96086 28.7893 5.58579 28.4143C5.21071 28.0392 5 27.5305 5 27.0001V6.00006C5 5.46963 5.21071 4.96092 5.58579 4.58585C5.96086 4.21078 6.46957 4.00006 7 4.00006H11.5325C12.0944 3.37097 12.7828 2.86763 13.5527 2.52301C14.3225 2.17839 15.1565 2.00024 16 2.00024C16.8435 2.00024 17.6775 2.17839 18.4473 2.52301C19.2172 2.86763 19.9056 3.37097 20.4675 4.00006H25C25.5304 4.00006 26.0391 4.21078 26.4142 4.58585C26.7893 4.96092 27 5.46963 27 6.00006ZM12 8.00006H20C20 6.9392 19.5786 5.92178 18.8284 5.17164C18.0783 4.42149 17.0609 4.00006 16 4.00006C14.9391 4.00006 13.9217 4.42149 13.1716 5.17164C12.4214 5.92178 12 6.9392 12 8.00006ZM25 6.00006H21.6562C21.8838 6.64231 22.0001 7.31869 22 8.00006V9.00006C22 9.26528 21.8946 9.51963 21.7071 9.70717C21.5196 9.89471 21.2652 10.0001 21 10.0001H11C10.7348 10.0001 10.4804 9.89471 10.2929 9.70717C10.1054 9.51963 10 9.26528 10 9.00006V8.00006C9.99995 7.31869 10.1162 6.64231 10.3438 6.00006H7V27.0001H25V6.00006Z" fill="#0325B6"/>
</svg>
