<svg width="32" height="32" viewBox="0 0 32 32" fill="none" xmlns="http://www.w3.org/2000/svg">
<path d="M31 10.0001C31.0005 9.45194 30.8722 8.91131 30.6255 8.42179C30.3787 7.93227 30.0205 7.50755 29.5796 7.18184C29.1386 6.85614 28.6274 6.63855 28.087 6.54662C27.5465 6.45469 26.9921 6.49099 26.4683 6.65258C25.9444 6.81417 25.4659 7.09655 25.0712 7.47695C24.6765 7.85736 24.3767 8.32516 24.1959 8.84266C24.0151 9.36017 23.9583 9.9129 24.0303 10.4563C24.1022 10.9998 24.3008 11.5187 24.61 11.9714L21.2612 16.0964L18.25 9.17511C18.7992 8.71289 19.193 8.09297 19.378 7.3994C19.563 6.70583 19.5303 5.97214 19.2843 5.29779C19.0383 4.62344 18.5909 4.04104 18.0027 3.62953C17.4145 3.21803 16.7141 2.99731 15.9963 2.99731C15.2784 2.99731 14.578 3.21803 13.9898 3.62953C13.4016 4.04104 12.9542 4.62344 12.7082 5.29779C12.4622 5.97214 12.4295 6.70583 12.6145 7.3994C12.7995 8.09297 13.1933 8.71289 13.7425 9.17511L10.7388 16.0926L7.39 11.9676C7.82018 11.3373 8.03256 10.5837 7.9948 9.82147C7.95705 9.05929 7.67122 8.33033 7.18086 7.74561C6.69049 7.16089 6.02246 6.75246 5.2785 6.58252C4.53455 6.41259 3.75543 6.49045 3.05982 6.80426C2.36421 7.11807 1.79022 7.65063 1.42527 8.32082C1.06032 8.99102 0.924415 9.76213 1.03825 10.5167C1.15208 11.2713 1.50941 11.968 2.05582 12.5007C2.60223 13.0334 3.30777 13.373 4.065 13.4676L5.875 24.3289C5.95281 24.7958 6.19374 25.22 6.55491 25.526C6.91609 25.8321 7.37411 26 7.8475 26.0001H24.1525C24.6259 26 25.0839 25.8321 25.4451 25.526C25.8063 25.22 26.0472 24.7958 26.125 24.3289L27.9338 13.4726C28.7802 13.3669 29.5589 12.9557 30.1236 12.3162C30.6882 11.6768 30.9999 10.8532 31 10.0001ZM16 5.00011C16.2967 5.00011 16.5867 5.08809 16.8334 5.25291C17.08 5.41773 17.2723 5.652 17.3858 5.92609C17.4993 6.20018 17.5291 6.50178 17.4712 6.79275C17.4133 7.08372 17.2704 7.351 17.0607 7.56077C16.8509 7.77055 16.5836 7.91341 16.2926 7.97129C16.0017 8.02917 15.7001 7.99947 15.426 7.88593C15.1519 7.7724 14.9176 7.58014 14.7528 7.33347C14.588 7.0868 14.5 6.79679 14.5 6.50011C14.5 6.10229 14.658 5.72076 14.9393 5.43945C15.2206 5.15815 15.6022 5.00011 16 5.00011ZM3 10.0001C3 9.70344 3.08797 9.41343 3.2528 9.16676C3.41762 8.92009 3.65189 8.72783 3.92597 8.6143C4.20006 8.50076 4.50166 8.47106 4.79263 8.52894C5.08361 8.58681 5.35088 8.72968 5.56066 8.93945C5.77044 9.14923 5.9133 9.41651 5.97118 9.70748C6.02906 9.99845 5.99935 10.3001 5.88582 10.5741C5.77229 10.8482 5.58003 11.0825 5.33335 11.2473C5.08668 11.4121 4.79667 11.5001 4.5 11.5001C4.10217 11.5001 3.72064 11.3421 3.43934 11.0608C3.15803 10.7795 3 10.3979 3 10.0001ZM24.1525 24.0001H7.8475L6.1075 13.5651L10.2238 18.6251C10.317 18.7416 10.4351 18.8357 10.5694 18.9006C10.7037 18.9654 10.8508 18.9995 11 19.0001C11.0451 19.0002 11.0902 18.9973 11.135 18.9914C11.3054 18.9682 11.4669 18.9015 11.6039 18.7977C11.741 18.6939 11.849 18.5566 11.9175 18.3989L15.58 9.97386C15.8589 10.0088 16.1411 10.0088 16.42 9.97386L20.0825 18.3989C20.151 18.5566 20.259 18.6939 20.3961 18.7977C20.5331 18.9015 20.6946 18.9682 20.865 18.9914C20.9098 18.9973 20.9549 19.0002 21 19.0001C21.1492 18.9995 21.2963 18.9654 21.4306 18.9006C21.5649 18.8357 21.683 18.7416 21.7763 18.6251L25.8925 13.5601L24.1525 24.0001ZM27.5 11.5001C27.2033 11.5001 26.9133 11.4121 26.6666 11.2473C26.42 11.0825 26.2277 10.8482 26.1142 10.5741C26.0007 10.3001 25.9709 9.99845 26.0288 9.70748C26.0867 9.41651 26.2296 9.14923 26.4393 8.93945C26.6491 8.72968 26.9164 8.58681 27.2074 8.52894C27.4983 8.47106 27.7999 8.50076 28.074 8.6143C28.3481 8.72783 28.5824 8.92009 28.7472 9.16676C28.912 9.41343 29 9.70344 29 10.0001C29 10.3979 28.842 10.7795 28.5607 11.0608C28.2794 11.3421 27.8978 11.5001 27.5 11.5001Z" fill="#0325B6"/>
</svg>
