<svg width="140" height="140" viewBox="0 0 140 140" fill="none" xmlns="http://www.w3.org/2000/svg">
<path d="M115.298 46.5773L84.6727 15.9523C84.4694 15.7493 84.228 15.5882 83.9625 15.4785C83.6969 15.3687 83.4123 15.3123 83.125 15.3125H30.625C28.8845 15.3125 27.2153 16.0039 25.9846 17.2346C24.7539 18.4653 24.0625 20.1345 24.0625 21.875V118.125C24.0625 119.865 24.7539 121.535 25.9846 122.765C27.2153 123.996 28.8845 124.688 30.625 124.688H109.375C111.115 124.688 112.785 123.996 114.015 122.765C115.246 121.535 115.938 119.865 115.938 118.125V48.125C115.938 47.8377 115.881 47.5531 115.772 47.2875C115.662 47.022 115.501 46.7806 115.298 46.5773ZM85.3125 22.7773L108.467 45.9375H85.3125V22.7773ZM109.375 120.312H30.625C30.0448 120.312 29.4884 120.082 29.0782 119.672C28.668 119.262 28.4375 118.705 28.4375 118.125V21.875C28.4375 21.2948 28.668 20.7384 29.0782 20.3282C29.4884 19.918 30.0448 19.6875 30.625 19.6875H80.9375V48.125C80.9375 48.7052 81.168 49.2616 81.5782 49.6718C81.9884 50.082 82.5448 50.3125 83.125 50.3125H111.562V118.125C111.562 118.705 111.332 119.262 110.922 119.672C110.512 120.082 109.955 120.312 109.375 120.312ZM81.6266 91.6617C84.362 88.1402 85.6524 83.7086 85.235 79.2691C84.8176 74.8296 82.7239 70.7161 79.3801 67.7661C76.0364 64.8161 71.6939 63.2515 67.2371 63.3908C62.7802 63.5301 58.5439 65.3629 55.3909 68.5159C52.2379 71.6689 50.4051 75.9052 50.2658 80.3621C50.1265 84.8189 51.6911 89.1614 54.6411 92.5051C57.5911 95.8489 61.7046 97.9426 66.1441 98.36C70.5836 98.7774 75.0152 97.487 78.5367 94.7516L85.9523 102.173C86.3628 102.583 86.9195 102.814 87.5 102.814C88.0805 102.814 88.6372 102.583 89.0477 102.173C89.4581 101.762 89.6887 101.205 89.6887 100.625C89.6887 100.045 89.4581 99.4878 89.0477 99.0773L81.6266 91.6617ZM54.6875 80.9375C54.6875 78.3416 55.4573 75.804 56.8995 73.6456C58.3417 71.4872 60.3915 69.805 62.7898 68.8116C65.1881 67.8182 67.8271 67.5583 70.3731 68.0647C72.9191 68.5711 75.2577 69.8212 77.0933 71.6567C78.9288 73.4923 80.1789 75.8309 80.6853 78.3769C81.1917 80.9229 80.9318 83.5619 79.9384 85.9602C78.945 88.3585 77.2628 90.4083 75.1044 91.8505C72.946 93.2927 70.4084 94.0625 67.8125 94.0625C64.3315 94.0625 60.9931 92.6797 58.5317 90.2183C56.0703 87.7569 54.6875 84.4185 54.6875 80.9375Z" fill="white"/>
</svg>
