<svg width="32" height="32" viewBox="0 0 32 32" fill="none" xmlns="http://www.w3.org/2000/svg">
<path d="M27 9.00004H22.615C22.6637 8.95879 22.7137 8.91879 22.7612 8.87504C23.1409 8.53776 23.4468 8.12577 23.66 7.66485C23.8731 7.20393 23.9889 6.70398 24 6.19629C24.0164 5.64088 23.9191 5.08798 23.7142 4.57152C23.5092 4.05506 23.2008 3.58596 22.8079 3.19299C22.4151 2.80003 21.9461 2.49151 21.4297 2.28636C20.9133 2.08122 20.3604 1.98378 19.805 2.00004C19.2971 2.01098 18.7969 2.12664 18.3358 2.33979C17.8746 2.55295 17.4624 2.859 17.125 3.23879C16.6582 3.77998 16.2786 4.39065 16 5.04879C15.7214 4.39065 15.3418 3.77998 14.875 3.23879C14.5376 2.859 14.1254 2.55295 13.6642 2.33979C13.2031 2.12664 12.7029 2.01098 12.195 2.00004C11.6396 1.98378 11.0867 2.08122 10.5703 2.28636C10.0539 2.49151 9.58491 2.80003 9.19206 3.19299C8.79922 3.58596 8.49083 4.05506 8.28584 4.57152C8.08085 5.08798 7.98358 5.64088 8 6.19629C8.01111 6.70398 8.12686 7.20393 8.34001 7.66485C8.55315 8.12577 8.85911 8.53776 9.23875 8.87504C9.28625 8.91629 9.33625 8.95629 9.385 9.00004H5C4.46957 9.00004 3.96086 9.21075 3.58579 9.58582C3.21071 9.9609 3 10.4696 3 11V15C3 15.5305 3.21071 16.0392 3.58579 16.4142C3.96086 16.7893 4.46957 17 5 17V25C5 25.5305 5.21071 26.0392 5.58579 26.4142C5.96086 26.7893 6.46957 27 7 27H25C25.5304 27 26.0391 26.7893 26.4142 26.4142C26.7893 26.0392 27 25.5305 27 25V17C27.5304 17 28.0391 16.7893 28.4142 16.4142C28.7893 16.0392 29 15.5305 29 15V11C29 10.4696 28.7893 9.9609 28.4142 9.58582C28.0391 9.21075 27.5304 9.00004 27 9.00004ZM18.625 4.56379C18.7834 4.389 18.9762 4.24881 19.1913 4.15202C19.4064 4.05522 19.6391 4.00391 19.875 4.00129H19.9363C20.2127 4.00301 20.486 4.05991 20.7402 4.16863C20.9944 4.27735 21.2244 4.43571 21.4166 4.63443C21.6088 4.83315 21.7594 5.06824 21.8596 5.32592C21.9597 5.58359 22.0075 5.85867 22 6.13504C21.9974 6.3709 21.9461 6.60367 21.8493 6.81877C21.7525 7.03387 21.6123 7.22665 21.4375 7.38504C20.2512 8.43504 18.2825 8.80504 17.0625 8.93504C17.2125 7.61129 17.625 5.68754 18.625 4.56379ZM10.6138 4.60879C11.0012 4.2214 11.5259 4.00262 12.0737 4.00004H12.135C12.3709 4.00266 12.6036 4.05397 12.8187 4.15076C13.0338 4.24756 13.2266 4.38775 13.385 4.56254C14.4338 5.74754 14.8038 7.71254 14.9338 8.92754C13.7188 8.80254 11.7537 8.42754 10.5688 7.37879C10.394 7.2204 10.2538 7.02762 10.157 6.81252C10.0602 6.59742 10.0089 6.36465 10.0063 6.12879C9.9985 5.84783 10.0479 5.56823 10.1515 5.30694C10.255 5.04565 10.4106 4.80813 10.6088 4.60879H10.6138ZM5 11H15V15H5V11ZM7 17H15V25H7V17ZM25 25H17V17H25V25ZM27 15H17V11H27V15Z" fill="#0325B6"/>
</svg>
