<svg width="78" height="65" viewBox="0 0 78 65" fill="none" xmlns="http://www.w3.org/2000/svg">
<g clip-path="url(#clip0_2733_6034)">
<path fill-rule="evenodd" clip-rule="evenodd" d="M33.4313 16.5379C32.2844 18.5175 30.1683 19.7363 27.8787 19.7363C24.2145 19.7371 19.743 19.7371 19.743 19.7371C19.743 9.11987 28.3718 0.5 39 0.5C49.6282 0.5 58.257 9.11987 58.257 19.7371H50.1213C47.8314 19.7371 45.715 18.5181 44.568 16.5383C43.4586 14.6153 41.3795 13.32 39 13.32C36.6205 13.32 34.5414 14.6153 33.4313 16.5379ZM77.5 22.9421L66.0635 59.9411C65.233 62.6276 62.747 64.4598 59.9325 64.4598H18.0675C15.253 64.4598 12.767 62.6276 11.9365 59.9411L0.5 22.9421H77.5Z" fill="#0030F3"/>
</g>
<defs>
<clipPath id="clip0_2733_6034">
<rect width="77" height="64" fill="white" transform="translate(0.5 0.5)"/>
</clipPath>
</defs>
</svg>
