<svg width="68" height="65" viewBox="0 0 68 65" fill="none" xmlns="http://www.w3.org/2000/svg">
<path d="M33.7421 35.7728L20.4674 28.487C20.1127 28.2904 19.7141 28.1873 19.3089 28.1873C18.9036 28.1873 18.505 28.2904 18.1504 28.487L4.87567 35.7758C4.49657 35.9839 4.18011 36.2903 3.95934 36.6629C3.73857 37.0355 3.62159 37.4608 3.62061 37.8943V52.3661C3.62159 52.7996 3.73857 53.2248 3.95934 53.5975C4.18011 53.9701 4.49657 54.2765 4.87567 54.4845L18.1504 61.7734C18.505 61.97 18.9036 62.0731 19.3089 62.0731C19.7141 62.0731 20.1127 61.97 20.4674 61.7734L33.7421 54.4845C34.1212 54.2765 34.4376 53.9701 34.6584 53.5975C34.8792 53.2248 34.9962 52.7996 34.9971 52.3661V37.8958C34.997 37.4615 34.8804 37.0353 34.6596 36.6618C34.4388 36.2883 34.1219 35.9813 33.7421 35.7728ZM19.3089 43.9212L7.18818 37.2633L19.3089 30.6054L31.4296 37.2633L19.3089 43.9212ZM20.5157 58.9983V46.0139L32.5836 39.3893V52.3661L20.5157 58.9983Z" fill="#051A7C" fill-opacity="0.9"/>
<path d="M63.1249 35.7728L49.8502 28.487C49.4955 28.2904 49.0969 28.1873 48.6917 28.1873C48.2865 28.1873 47.8879 28.2904 47.5332 28.487L34.2585 35.7758C33.8794 35.9839 33.5629 36.2903 33.3422 36.6629C33.1214 37.0355 33.0044 37.4608 33.0034 37.8943V52.3661C33.0044 52.7996 33.1214 53.2248 33.3422 53.5975C33.5629 53.9701 33.8794 54.2765 34.2585 54.4845L47.5332 61.7734C47.8879 61.97 48.2865 62.0731 48.6917 62.0731C49.0969 62.0731 49.4955 61.97 49.8502 61.7734L63.1249 54.4845C63.504 54.2765 63.8205 53.9701 64.0412 53.5975C64.262 53.2248 64.379 52.7996 64.38 52.3661V37.8958C64.3798 37.4615 64.2632 37.0353 64.0424 36.6618C63.8216 36.2883 63.5047 35.9813 63.1249 35.7728ZM48.6917 43.9212L36.571 37.2633L48.6917 30.6054L60.8124 37.2633L48.6917 43.9212ZM49.8985 58.9983V46.0139L61.9664 39.3893V52.3661L49.8985 58.9983Z" fill="#051A7C" fill-opacity="0.9"/>
<path d="M48.8534 10.5096L35.5787 3.22378C35.224 3.02719 34.8254 2.92407 34.4202 2.92407C34.015 2.92407 33.6164 3.02719 33.2617 3.22378L19.987 10.5127C19.6079 10.7207 19.2914 11.0271 19.0707 11.3997C18.8499 11.7723 18.7329 12.1976 18.7319 12.6311V27.1029C18.7329 27.5364 18.8499 27.9617 19.0707 28.3343C19.2914 28.7069 19.6079 29.0133 19.987 29.2213L33.2617 36.5102C33.6164 36.7068 34.015 36.8099 34.4202 36.8099C34.8254 36.8099 35.224 36.7068 35.5787 36.5102L48.8534 29.2213C49.2325 29.0133 49.549 28.7069 49.7697 28.3343C49.9905 27.9617 50.1075 27.5364 50.1085 27.1029V12.6326C50.1083 12.1983 49.9917 11.7721 49.7709 11.3986C49.5501 11.0251 49.2332 10.7181 48.8534 10.5096ZM34.4202 18.658L22.2995 12.0001L34.4202 5.3422L46.5409 12.0001L34.4202 18.658ZM35.627 33.7351V20.7507L47.6949 14.1261V27.1029L35.627 33.7351Z" fill="#051A7C" fill-opacity="0.9"/>
</svg>
