<svg width="16" height="16" viewBox="0 0 16 16" fill="none" xmlns="http://www.w3.org/2000/svg">
<g id="x-circle-fill">
<path id="Vector" d="M7.99998 1.5C6.71441 1.5 5.4577 1.88122 4.38878 2.59545C3.31986 3.30968 2.48674 4.32484 1.99477 5.51256C1.5028 6.70028 1.37408 8.00721 1.62488 9.26809C1.87568 10.529 2.49475 11.6872 3.40379 12.5962C4.31283 13.5052 5.47102 14.1243 6.7319 14.3751C7.99277 14.6259 9.29971 14.4972 10.4874 14.0052C11.6751 13.5132 12.6903 12.6801 13.4045 11.6112C14.1188 10.5423 14.5 9.28558 14.5 8C14.4982 6.27665 13.8128 4.62441 12.5942 3.40582C11.3756 2.18722 9.72333 1.50182 7.99998 1.5ZM10.3537 9.64625C10.4002 9.69271 10.437 9.74786 10.4622 9.80855C10.4873 9.86925 10.5003 9.9343 10.5003 10C10.5003 10.0657 10.4873 10.1308 10.4622 10.1914C10.437 10.2521 10.4002 10.3073 10.3537 10.3538C10.3073 10.4002 10.2521 10.4371 10.1914 10.4622C10.1307 10.4873 10.0657 10.5003 9.99998 10.5003C9.93429 10.5003 9.86923 10.4873 9.80854 10.4622C9.74784 10.4371 9.69269 10.4002 9.64623 10.3538L7.99998 8.70687L6.35373 10.3538C6.30728 10.4002 6.25213 10.4371 6.19143 10.4622C6.13074 10.4873 6.06568 10.5003 5.99998 10.5003C5.93429 10.5003 5.86923 10.4873 5.80854 10.4622C5.74784 10.4371 5.69269 10.4002 5.64623 10.3538C5.59978 10.3073 5.56293 10.2521 5.53779 10.1914C5.51265 10.1308 5.49971 10.0657 5.49971 10C5.49971 9.9343 5.51265 9.86925 5.53779 9.80855C5.56293 9.74786 5.59978 9.69271 5.64623 9.64625L7.29311 8L5.64623 6.35375C5.55241 6.25993 5.49971 6.13268 5.49971 6C5.49971 5.86732 5.55241 5.74007 5.64623 5.64625C5.74006 5.55243 5.8673 5.49972 5.99998 5.49972C6.13267 5.49972 6.25991 5.55243 6.35373 5.64625L7.99998 7.29313L9.64623 5.64625C9.69269 5.59979 9.74784 5.56294 9.80854 5.5378C9.86923 5.51266 9.93429 5.49972 9.99998 5.49972C10.0657 5.49972 10.1307 5.51266 10.1914 5.5378C10.2521 5.56294 10.3073 5.59979 10.3537 5.64625C10.4002 5.6927 10.437 5.74786 10.4622 5.80855C10.4873 5.86925 10.5003 5.9343 10.5003 6C10.5003 6.0657 10.4873 6.13075 10.4622 6.19145C10.437 6.25214 10.4002 6.3073 10.3537 6.35375L8.70686 8L10.3537 9.64625Z" fill="#051A7C" fill-opacity="0.45"/>
</g>
</svg>
