<svg width="64" height="65" viewBox="0 0 64 65" fill="none" xmlns="http://www.w3.org/2000/svg">
<g clip-path="url(#clip0_2733_6016)">
<rect x="18" y="0.5" width="29" height="29" rx="2" fill="#001D94"/>
<path d="M30.5 9C30.5 10.1046 31.3954 11 32.5 11C33.6046 11 34.5 10.1046 34.5 9L30.5 9ZM32.5 0.5L30.5 0.5L30.5 9L32.5 9L34.5 9L34.5 0.5L32.5 0.5Z" fill="white"/>
<rect x="1" y="33.5" width="29" height="29" rx="2" fill="#001D94"/>
<path d="M13.5 42C13.5 43.1046 14.3954 44 15.5 44C16.6046 44 17.5 43.1046 17.5 42L13.5 42ZM15.5 33.5L13.5 33.5L13.5 42L15.5 42L17.5 42L17.5 33.5L15.5 33.5Z" fill="white"/>
<rect x="34" y="33.5" width="29" height="29" rx="2" fill="#001D94"/>
<path d="M46.5 42C46.5 43.1046 47.3954 44 48.5 44C49.6046 44 50.5 43.1046 50.5 42L46.5 42ZM48.5 33.5L46.5 33.5L46.5 42L48.5 42L50.5 42L50.5 33.5L48.5 33.5Z" fill="white"/>
</g>
<defs>
<clipPath id="clip0_2733_6016">
<rect width="64" height="64" fill="white" transform="translate(0 0.5)"/>
</clipPath>
</defs>
</svg>
