<svg width="17" height="16" viewBox="0 0 17 16" fill="none" xmlns="http://www.w3.org/2000/svg">
<g id="check-circle-fill">
<path id="Vector" d="M8.66669 1.5C7.38111 1.5 6.1244 1.88122 5.05548 2.59545C3.98656 3.30968 3.15344 4.32484 2.66147 5.51256C2.1695 6.70028 2.04078 8.00721 2.29159 9.26809C2.54239 10.529 3.16145 11.6872 4.0705 12.5962C4.97954 13.5052 6.13773 14.1243 7.3986 14.3751C8.65948 14.6259 9.96641 14.4972 11.1541 14.0052C12.3419 13.5132 13.357 12.6801 14.0712 11.6112C14.7855 10.5423 15.1667 9.28558 15.1667 8C15.1649 6.27665 14.4795 4.62441 13.2609 3.40582C12.0423 2.18722 10.39 1.50182 8.66669 1.5ZM11.5204 6.85375L8.02044 10.3538C7.974 10.4002 7.91886 10.4371 7.85816 10.4623C7.79746 10.4874 7.7324 10.5004 7.66669 10.5004C7.60098 10.5004 7.53592 10.4874 7.47522 10.4623C7.41452 10.4371 7.35938 10.4002 7.31294 10.3538L5.81294 8.85375C5.71912 8.75993 5.66641 8.63268 5.66641 8.5C5.66641 8.36732 5.71912 8.24007 5.81294 8.14625C5.90676 8.05243 6.03401 7.99972 6.16669 7.99972C6.29937 7.99972 6.42662 8.05243 6.52044 8.14625L7.66669 9.29313L10.8129 6.14625C10.8594 6.09979 10.9145 6.06294 10.9752 6.0378C11.0359 6.01266 11.101 5.99972 11.1667 5.99972C11.2324 5.99972 11.2974 6.01266 11.3581 6.0378C11.4188 6.06294 11.474 6.09979 11.5204 6.14625C11.5669 6.1927 11.6037 6.24786 11.6289 6.30855C11.654 6.36925 11.667 6.4343 11.667 6.5C11.667 6.5657 11.654 6.63075 11.6289 6.69145C11.6037 6.75214 11.5669 6.8073 11.5204 6.85375Z" fill="#45B92F"/>
</g>
</svg>
