<svg width="32" height="32" viewBox="0 0 32 32" fill="none" xmlns="http://www.w3.org/2000/svg">
<path d="M27.0713 4.92874C25.4829 3.33812 23.4049 2.32908 21.1726 2.06443C18.9403 1.79979 16.684 2.29497 14.7677 3.47009C12.8514 4.6452 11.3869 6.43169 10.6106 8.54129C9.83424 10.6509 9.79133 12.9605 10.4888 15.0975L3.58626 22C3.39973 22.185 3.25185 22.4053 3.15121 22.648C3.05057 22.8907 2.99917 23.151 3.00001 23.4137V27C3.00001 27.5304 3.21072 28.0391 3.5858 28.4142C3.96087 28.7893 4.46958 29 5.00001 29H9.00001C9.26523 29 9.51958 28.8946 9.70712 28.7071C9.89465 28.5196 10 28.2652 10 28V26H12C12.2652 26 12.5196 25.8946 12.7071 25.7071C12.8947 25.5196 13 25.2652 13 25V23H15C15.1314 23.0001 15.2615 22.9743 15.3829 22.9241C15.5043 22.8739 15.6146 22.8003 15.7075 22.7075L16.9025 21.5112C17.9027 21.8366 18.9482 22.0016 20 22H20.0125C21.9893 21.9976 23.9211 21.4094 25.5637 20.3096C27.2063 19.2098 28.4862 17.6479 29.2415 15.8211C29.9969 13.9943 30.1939 11.9846 29.8076 10.0459C29.4213 8.10723 28.4691 6.32651 27.0713 4.92874ZM28 12.2625C27.8638 16.5237 24.2813 19.995 20.0138 20H20C18.9877 20.0017 17.9844 19.8104 17.0438 19.4362C16.8598 19.3564 16.656 19.3337 16.4589 19.3712C16.2619 19.4086 16.0806 19.5044 15.9388 19.6462L14.5863 21H12C11.7348 21 11.4804 21.1053 11.2929 21.2929C11.1054 21.4804 11 21.7348 11 22V24H9.00001C8.73479 24 8.48044 24.1053 8.2929 24.2929C8.10537 24.4804 8.00001 24.7348 8.00001 25V27H5.00001V23.4137L12.3538 16.0612C12.4955 15.9194 12.5914 15.7381 12.6288 15.5411C12.6663 15.344 12.6436 15.1402 12.5638 14.9562C12.1884 14.0125 11.997 13.0056 12 11.99C12 7.72249 15.4763 4.13999 19.7375 4.00374C20.8321 3.96721 21.9225 4.15582 22.9413 4.55788C23.96 4.95995 24.8853 5.5669 25.6599 6.34115C26.4345 7.1154 27.0419 8.04044 27.4444 9.05899C27.8469 10.0775 28.036 11.1679 28 12.2625ZM24 9.49999C24 9.79666 23.912 10.0867 23.7472 10.3333C23.5824 10.58 23.3481 10.7723 23.074 10.8858C22.7999 10.9993 22.4983 11.029 22.2074 10.9712C21.9164 10.9133 21.6491 10.7704 21.4394 10.5606C21.2296 10.3509 21.0867 10.0836 21.0288 9.79262C20.971 9.50165 21.0007 9.20005 21.1142 8.92596C21.2277 8.65187 21.42 8.41761 21.6667 8.25278C21.9133 8.08796 22.2033 7.99999 22.5 7.99999C22.8978 7.99999 23.2794 8.15802 23.5607 8.43933C23.842 8.72063 24 9.10216 24 9.49999Z" fill="#0325B6"/>
</svg>
