<svg width="107" height="32" viewBox="0 0 107 32" fill="none" xmlns="http://www.w3.org/2000/svg">
<path d="M9.47579 0.00166366C9.11251 0.00474235 8.74612 0.0324506 8.38904 0.0909459C6.39873 0.392658 4.56056 1.56564 3.43034 3.25893C1.74742 5.70034 1.71948 9.10845 3.33408 11.596C4.53572 13.474 6.56951 14.7517 8.77406 14.958C11.1649 15.2258 13.5868 14.2345 15.1518 12.3842C16.577 14.333 19.0144 15.3367 21.3773 14.8995C23.29 14.5762 24.9977 13.3047 25.892 11.5591C26.8049 9.82271 26.8576 7.67994 26.0565 5.88814C25.2492 4.06863 23.5788 2.68013 21.6505 2.26451C19.6261 1.81194 17.5085 2.38766 15.9746 3.7977C15.2045 2.45231 14.0588 1.35013 12.6615 0.700528C11.6648 0.229487 10.5688 -0.00757244 9.47579 0.00166366ZM9.52237 3.04342C10.8917 3.04342 12.2393 3.72381 13.0559 4.85985C14.2047 6.40536 14.1985 8.60663 13.0528 10.1491C11.9225 11.7253 9.81114 12.3688 8.01023 11.6761C6.18138 11.0049 4.97042 9.0869 5.15673 7.11654C5.30887 5.20774 6.73407 3.55756 8.57845 3.15733C8.88895 3.08036 9.20876 3.0465 9.52237 3.0465V3.04342ZM20.3061 5.15848C20.9395 5.16772 21.5729 5.36476 22.1039 5.72189C23.1006 6.37457 23.7061 7.60913 23.6098 8.80982C23.4949 10.4569 22.1194 11.8639 20.4831 11.9378C19.0299 12.0609 17.6202 11.1065 17.1296 9.72419C16.7726 8.78211 16.875 7.70457 17.3843 6.84253C17.8376 6.04207 18.6263 5.45712 19.5112 5.24777C19.7316 5.19235 19.9583 5.16464 20.1819 5.15541H20.3092L20.3061 5.15848Z" fill="#EA501F"/>
<path d="M36.8092 4.00398H40.2744V17.8735C42.9137 15.3213 45.5405 12.7536 48.1922 10.2199C49.7509 10.2199 51.3096 10.2199 52.8683 10.2199C50.4526 12.5351 48.0245 14.8379 45.5933 17.1377C48.1021 21.0908 50.6203 25.0407 53.1229 28.9999C51.766 28.9999 50.4154 28.9999 49.0616 28.9999C47.0806 25.8227 45.081 22.6578 43.1 19.4837C42.1498 20.355 41.209 21.2385 40.2744 22.1283C40.2806 24.4188 40.2744 26.7094 40.2744 28.9999H36.8092V4.0009V4.00398Z" fill="black"/>
<path d="M104.126 4.0009C105.135 3.99474 106.026 4.76749 106.144 5.7496V6.26374C106.011 7.24892 105.147 8.0186 104.123 7.99705C102.977 8.03707 102.008 7.06728 102.067 5.94663C102.061 4.86909 103.033 3.97011 104.126 3.99782V4.0009Z" fill="black"/>
<path d="M53.1229 11.0019H56.9421C58.4045 15.6784 59.9539 20.3303 61.317 25.0346C61.848 23.135 62.4131 21.2416 63.0217 19.3667C63.8911 16.5774 64.7605 13.7912 65.6361 11.0049H69.1603C70.6166 15.6569 72.079 20.3057 73.498 24.9668C74.8704 20.2903 76.3826 15.6507 77.8543 11.0049C79.1274 11.008 80.3973 11.0049 81.6704 11.0049C79.5497 17.3409 77.4041 23.6707 75.271 30.0036H71.7437C70.2781 25.404 68.7256 20.8291 67.3873 16.1925C66.0149 20.8168 64.4966 25.3979 63.0559 30.0036C61.8822 30.0036 60.7054 30.0036 59.5317 30.0036C57.3892 23.6738 55.2592 17.3378 53.1229 11.0049V11.0019Z" fill="black"/>
<path d="M102.064 11.0019H106.144V30.0005C104.784 30.0005 103.427 30.0005 102.064 30.0005V11.0019Z" fill="black"/>
<path d="M89.8955 11.0019C88.756 11.0019 87.6258 11.2328 86.5918 11.7377C84.9089 12.5258 83.5799 13.9574 82.7695 15.5984C81.779 17.5656 81.5089 19.7608 81.7666 21.9282C82.0274 23.9262 82.8099 25.8689 84.1699 27.3898C85.1355 28.4766 86.3744 29.3047 87.7872 29.7142C89.3646 30.1637 91.0972 30.0775 92.6466 29.5603C93.7706 29.1847 94.7455 28.5166 95.5808 27.6915C95.5808 28.3288 95.5808 28.9691 95.5808 29.6095H99.0118V11.2051C97.8692 11.2051 96.7265 11.2051 95.5808 11.2051V13.2863C94.3947 12.0332 92.7614 11.282 91.0444 11.0788C90.6656 11.0296 90.2836 11.0049 89.9048 11.0049L89.8955 11.0019ZM90.6469 14.2191C92.5783 14.2314 94.5406 15.192 95.5249 16.8329C95.6243 17.1808 95.5528 17.6087 95.5715 17.972C95.5528 19.967 95.6025 21.999 95.5498 23.9878C94.0749 26.6263 90.293 27.6299 87.7096 25.989C86.5732 25.2686 85.8373 24.0617 85.4709 22.8025C85.0207 21.1646 85.0145 19.3698 85.623 17.7688C86.0919 16.5312 86.9427 15.4537 88.1257 14.8133C88.8957 14.4007 89.7651 14.2129 90.6438 14.216L90.6469 14.2191Z" fill="black"/>
<path d="M23.0571 17.0022C20.1477 17.0084 17.2352 17.0022 14.3258 17.0022C11.9722 17.0577 9.88254 18.597 9.14975 20.6905C7.83944 20.0871 6.55086 19.4406 5.23744 18.8371C4.49845 18.5077 3.92092 18.0829 3.06393 18.0736C1.9306 18.0121 0.843851 18.6678 0.402939 19.6468C0.117278 20.2256 0.204219 20.9645 0.104858 21.6018V27.3621C0.216639 28.181 0.0955434 28.8645 0.530245 29.5849C1.21645 30.7763 2.88695 31.272 4.17553 30.6532C5.83671 29.8743 7.49789 29.0861 9.16217 28.3103C9.56272 29.3447 10.2272 30.2714 11.1835 30.921C12.1244 31.5891 13.2359 31.9155 14.4034 31.9986H23.0975C24.4978 31.9124 25.8392 31.4506 26.8545 30.5239C27.9816 29.5418 28.6368 28.1471 28.6585 26.7001C28.6585 25.2655 28.6585 23.8308 28.6585 22.3961C28.6647 21.3063 28.3263 20.2226 27.6649 19.3236C26.6527 17.9105 24.8735 16.9868 23.0571 16.9992H23.0633L23.0571 17.0022ZM22.9267 19.7823C24.3457 19.7915 25.5815 20.8876 25.6839 22.2176C25.7336 23.2458 25.6901 24.2803 25.7026 25.3055C25.687 25.9674 25.7709 26.6694 25.5659 27.2974C25.2275 28.378 24.1221 29.1693 22.9236 29.1877C20.1912 29.1939 17.4557 29.1877 14.7264 29.1877C13.5837 29.2062 12.5125 28.5504 12.0685 27.5622C11.7766 26.9341 11.8542 26.3461 11.848 25.6842C11.8542 24.5451 11.8387 23.4059 11.8542 22.2668C11.9194 20.9276 13.1614 19.7977 14.5866 19.7823C17.3625 19.7823 20.1477 19.7823 22.9236 19.7823H22.9267ZM3.81845 21.4448C4.0358 21.4479 4.22521 21.531 4.42393 21.6203C5.91123 22.3315 7.40784 23.0211 8.89514 23.7323V25.2778C7.33022 26.0197 5.7684 26.7833 4.20347 27.5222C3.84019 27.7223 3.37754 27.5283 3.21918 27.1804C3.14777 26.9495 3.16019 26.6847 3.15398 26.4446C3.1664 25.013 3.15398 23.5753 3.16019 22.1406C3.13535 21.8019 3.39927 21.5464 3.7222 21.4479C3.75635 21.4448 3.7874 21.4448 3.81845 21.4448Z" fill="#EA501F"/>
</svg>
