<svg width="32" height="32" viewBox="0 0 32 32" fill="none" xmlns="http://www.w3.org/2000/svg">
<path d="M21.98 13.9425C21.9483 13.787 21.8801 13.6413 21.781 13.5174C21.6818 13.3936 21.5547 13.295 21.41 13.23L15.16 10.4262L16.875 3.23125C16.9257 3.01639 16.9039 2.79078 16.813 2.58961C16.722 2.38843 16.5671 2.223 16.3723 2.11911C16.1775 2.01522 15.9538 1.97871 15.7361 2.01528C15.5184 2.05184 15.3189 2.15942 15.1687 2.32125L3.26621 15.1775C3.15844 15.2939 3.07993 15.4343 3.03716 15.5871C2.99438 15.7399 2.98857 15.9006 3.0202 16.0561C3.05183 16.2116 3.11999 16.3573 3.21906 16.4812C3.31813 16.6051 3.44527 16.7037 3.58996 16.7687L9.83996 19.5737L8.12496 26.7687C8.07423 26.9836 8.09603 27.2092 8.18695 27.4104C8.27788 27.6116 8.43282 27.777 8.62761 27.8809C8.8224 27.9848 9.0461 28.0213 9.26382 27.9847C9.48154 27.9482 9.68104 27.8406 9.83121 27.6787L21.7312 14.8225C21.8397 14.7062 21.9188 14.5656 21.9621 14.4126C22.0053 14.2595 22.0115 14.0984 21.98 13.9425ZM10.9525 23.5262L11.9725 19.2312C12.0264 19.0049 11.9997 18.7669 11.897 18.5581C11.7944 18.3494 11.6221 18.1829 11.41 18.0875L5.67871 15.515L14.0475 6.47375L13.0275 10.7687C12.9735 10.9951 13.0002 11.2331 13.1029 11.4419C13.2055 11.6506 13.3778 11.817 13.59 11.9125L19.32 14.485L10.9525 23.5262ZM29.8937 26.5525L25.3937 17.5525C25.3106 17.3864 25.183 17.2467 25.025 17.1491C24.8671 17.0515 24.685 16.9998 24.4993 16.9998C24.3136 16.9998 24.1316 17.0515 23.9737 17.1491C23.8157 17.2467 23.688 17.3864 23.605 17.5525L19.105 26.5525C18.9863 26.7897 18.9667 27.0643 19.0505 27.316C19.1343 27.5676 19.3146 27.7757 19.5518 27.8944C19.789 28.0131 20.0637 28.0327 20.3153 27.9488C20.567 27.865 20.775 27.6847 20.8937 27.4475L22.1175 25H26.8812L28.105 27.4475C28.1881 27.6136 28.3159 27.7533 28.474 27.8509C28.632 27.9485 28.8142 28.0001 29 28C29.1704 27.9999 29.338 27.9563 29.4868 27.8732C29.6356 27.7901 29.7608 27.6704 29.8503 27.5254C29.9398 27.3803 29.9908 27.2148 29.9984 27.0446C30.006 26.8743 29.97 26.7049 29.8937 26.5525ZM23.1175 23L24.5 20.2362L25.8812 23H23.1175Z" fill="#0325B6"/>
</svg>
