<svg width="146" height="32" viewBox="0 0 146 32" fill="none" xmlns="http://www.w3.org/2000/svg">
<g clip-path="url(#clip0_331_899)">
<path d="M143.662 0.514862H140.377C139.444 0.514862 138.875 1.08609 138.875 2.03312V11.8567C138.875 15.4645 136.95 17.4976 134.275 17.4976C131.458 17.4976 129.871 15.6524 129.871 12.086V2.03312C129.871 1.08985 129.306 0.514862 128.37 0.514862H125.084C124.152 0.514862 123.583 1.08609 123.583 2.03312V12.5557C123.583 19.2413 127.009 23.037 132.164 23.037C135.263 23.037 137.642 21.9923 139.344 19.8577L139.626 21.188C139.808 22.0486 140.377 22.5184 141.269 22.5184H143.662C144.595 22.5184 145.163 21.9472 145.163 21.0001V2.03312C145.163 1.08985 144.609 0.514862 143.662 0.514862Z" fill="#009EE2"/>
<path d="M120.781 16.7385H114.876C112.809 16.7385 111.732 15.6486 111.732 13.5591V2.03312C111.732 1.08985 111.167 0.514862 110.23 0.514862H106.86C105.927 0.514862 105.358 1.08609 105.358 2.03312V14.3596C105.358 19.4292 108.402 22.5221 113.43 22.5221H120.792C121.725 22.5221 122.293 21.9509 122.293 21.0039V18.253C122.278 17.3097 121.714 16.7347 120.777 16.7347L120.781 16.7385Z" fill="#009EE2"/>
<path d="M25.2067 1.99179C25.1064 0.988379 24.5973 0.51862 23.6645 0.51862H21.1709C20.3793 0.51862 19.8107 0.849331 19.3871 1.56336L13.3408 11.9018L7.72184 1.55961C7.35393 0.841815 6.72961 0.514862 5.93805 0.514862H3.26236C2.32959 0.514862 1.81675 1.00341 1.72013 1.98803L0.174172 20.9625C0.0738335 22.0073 0.597822 22.5221 1.57519 22.5221H4.57791C5.51068 22.5221 6.07927 22.0486 6.12015 21.049L6.77049 10.4249L10.3827 17.0128C10.7506 17.7306 11.3749 18.0576 12.1665 18.0576H14.2327C15.0242 18.0576 15.5928 17.7719 16.0165 17.0128L20.0932 9.95514L20.5614 21.0527C20.6023 22.0561 21.1263 22.5259 22.0628 22.5259H25.3071C26.2993 22.5259 26.8084 22.011 26.7081 20.9663L25.2067 1.99554V1.99179Z" fill="#009EE2"/>
<path d="M101.003 0.514852H98.4277C97.5358 0.514852 96.9264 0.988369 96.7851 1.89031L96.6439 2.98015C95.1872 1.42055 93.0763 0.00375366 89.5496 0.00375366C83.6445 0.00375366 79.2854 4.70135 79.2854 11.4734C79.2854 18.2454 83.3621 23.0445 89.1817 23.0445C92.8348 23.0445 95.228 21.4849 96.6848 19.8652L96.9264 21.1955C97.0676 22.0561 97.6362 22.5259 98.5281 22.5259H101.022C101.954 22.5259 102.523 21.9547 102.523 21.0076V2.03311C102.508 1.08984 101.943 0.514852 101.007 0.514852H101.003ZM90.9061 17.4976C87.58 17.4976 85.4692 15.1789 85.4692 11.5711C85.4692 7.96335 87.6767 5.54315 90.9061 5.54315C94.1355 5.54315 96.3429 7.86189 96.3429 11.4696C96.3578 15.1338 94.1466 17.4976 90.9061 17.4976Z" fill="#009EE2"/>
<path d="M75.5282 0.514852H72.9529C72.061 0.514852 71.4515 0.988369 71.3103 1.89031L71.1691 2.98015C69.7123 1.42055 67.6015 0.00375366 64.0897 0.00375366C58.1846 0.00375366 53.8254 4.41197 53.8254 11.1991C53.8254 17.9861 57.8613 22.1952 63.6809 22.1952C67.2931 22.1952 69.4448 20.6769 70.9015 19.0609V20.1508C70.9015 23.9464 68.7907 26.3666 64.3312 26.3666C62.462 26.3666 60.7636 25.9946 59.0356 25.2355C58.1437 24.807 57.4376 24.9912 57.0251 25.8931L55.992 27.9826C55.5684 28.8432 55.7096 29.5422 56.5011 30.0157C58.9947 31.4325 62.0383 32.0075 64.9816 32.0075C72.3434 32.0075 77.0296 27.3099 77.0296 20.7671V2.03311C77.0296 1.08984 76.4647 0.514852 75.5282 0.514852ZM65.4498 16.7798C62.2055 16.7798 60.013 14.6039 60.013 11.2254C60.013 7.67398 62.3059 5.5394 65.4498 5.5394C68.5938 5.5394 70.8867 7.48608 70.8867 11.1389C70.8867 14.4197 68.5938 16.7798 65.4498 16.7798Z" fill="#009EE2"/>
<path d="M50.0721 0.514852H47.4967C46.6048 0.514852 45.9954 0.988369 45.8541 1.89031L45.7129 2.98015C44.2562 1.42055 42.1453 0.00375366 38.6335 0.00375366C32.7284 0.00375366 28.3693 4.70135 28.3693 11.4734C28.3693 18.2454 32.446 23.0445 38.2656 23.0445C41.9186 23.0445 44.3119 21.4849 45.7687 19.8652L46.0102 21.1955C46.1514 22.0561 46.7163 22.5259 47.6119 22.5259H50.1055C51.0383 22.5259 51.6069 21.9547 51.6069 21.0076V2.03311C51.5771 1.08984 51.0123 0.514852 50.0758 0.514852H50.0721ZM39.9899 17.4976C36.6639 17.4976 34.5531 15.1789 34.5531 11.5711C34.5531 7.96335 36.7605 5.54315 39.9899 5.54315C43.2193 5.54315 45.4268 7.86189 45.4268 11.4696C45.4268 15.0774 43.2193 17.4976 39.9899 17.4976Z" fill="#009EE2"/>
</g>
<defs>
<clipPath id="clip0_331_899">
<rect width="145" height="32" fill="white" transform="translate(0.163086)"/>
</clipPath>
</defs>
</svg>
