<svg width="260" height="200" viewBox="0 0 260 200" fill="none" xmlns="http://www.w3.org/2000/svg">
<g clip-path="url(#clip0_3166_3083)">
<path d="M23.361 106.416C22.4768 103.102 22.9434 99.5724 24.6585 96.6019C26.3735 93.6313 29.1969 91.4624 32.5092 90.5711L43.3351 87.6703C44.0251 87.4417 57.7724 82.7623 68.1029 68.0155C68.5326 67.4017 69.1285 66.9233 69.8206 66.6363C70.5127 66.3494 71.2723 66.2659 72.0102 66.3956C72.7481 66.5253 73.4337 66.8628 73.9865 67.3686C74.5392 67.8743 74.9362 68.5273 75.1309 69.2508L86.7777 112.717C86.9767 113.44 86.9628 114.205 86.7376 114.921C86.5124 115.636 86.0856 116.271 85.5084 116.75C85.0663 117.119 84.5496 117.389 83.9935 117.54C83.0981 117.78 82.1464 117.695 81.3083 117.299C68.0016 111.104 56.0911 111.826 51.7486 112.387L54.2236 121.624C54.3915 122.25 54.4023 122.908 54.255 123.539C54.1077 124.17 53.8068 124.755 53.3791 125.242L50.9244 128.034C50.5091 128.506 49.9869 128.872 49.4013 129.101C48.8158 129.33 48.1839 129.415 47.5587 129.35C46.9334 129.284 46.3328 129.07 45.8073 128.725C45.2817 128.38 44.8464 127.914 44.5377 127.367L37.9151 115.832C34.7546 116.337 31.519 115.655 28.8317 113.916C26.1444 112.178 24.1957 109.506 23.361 106.416ZM82.7346 114.243C82.8314 114.289 82.9393 114.306 83.0454 114.292C83.1516 114.279 83.2516 114.235 83.3338 114.166C83.4161 114.098 83.477 114.007 83.5096 113.905C83.5422 113.804 83.545 113.694 83.5177 113.591L71.8709 70.1243C71.8461 70.0201 71.7906 69.9257 71.7115 69.8534C71.6324 69.7812 71.5334 69.7343 71.4274 69.719C71.346 69.7043 71.2623 69.7069 71.1819 69.7265C71.0558 69.7605 70.9464 69.8395 70.8746 69.9487C61.6088 83.1815 49.9858 88.7039 45.8496 90.3391L50.8723 109.084C55.2667 108.445 68.0918 107.42 82.7346 114.243ZM47.4819 125.728C47.5257 125.806 47.5877 125.874 47.6628 125.923C47.738 125.973 47.824 126.004 47.9136 126.014C48.0033 126.024 48.0939 126.012 48.1779 125.979C48.262 125.946 48.3369 125.894 48.3964 125.826L50.8512 123.034C50.9125 122.964 50.9555 122.88 50.9765 122.79C50.9975 122.699 50.9957 122.605 50.9714 122.516L48.4455 113.089L41.3278 114.996L47.4819 125.728ZM38.3326 112.304L47.5693 109.829L42.6193 91.3561L33.3827 93.8311C30.933 94.4875 28.8443 96.0901 27.5763 98.2865C26.3082 100.483 25.9646 103.093 26.621 105.543C27.2774 107.992 28.88 110.081 31.0764 111.349C33.2727 112.617 35.8829 112.961 38.3326 112.304Z" fill="#051A7C" fill-opacity="0.45"/>
</g>
<path opacity="0.2" d="M229.476 111.789C228.017 117.232 224.455 121.874 219.575 124.692C214.694 127.51 208.894 128.273 203.45 126.815L182.924 121.315L193.924 80.2628L214.45 85.7627C219.893 87.2214 224.535 90.7829 227.353 95.6636C230.171 100.544 230.934 106.345 229.476 111.789Z" fill="#0325B6"/>
<path d="M215.394 82.7224L194.317 77.0749C193.175 76.7068 165.98 67.5683 145.572 38.4401C144.857 37.4167 143.864 36.6186 142.711 36.1397C141.557 35.6607 140.291 35.5208 139.061 35.7364C137.831 35.9519 136.688 36.514 135.766 37.3565C134.845 38.199 134.182 39.2871 133.858 40.4929L111.211 125.011C110.88 126.217 110.903 127.492 111.279 128.684C111.654 129.876 112.366 130.935 113.328 131.733C114.064 132.348 114.925 132.797 115.851 133.049C117.34 133.444 118.921 133.3 120.314 132.642C147.785 119.836 172.266 122.076 179.627 123.171L174.491 142.341C174.209 143.385 174.19 144.483 174.435 145.536C174.68 146.59 175.182 147.566 175.896 148.379L180.669 153.808C181.361 154.595 182.231 155.206 183.207 155.587C184.184 155.969 185.237 156.112 186.279 156.003C187.322 155.895 188.323 155.538 189.199 154.963C190.076 154.387 190.802 153.611 191.316 152.698L204.579 129.591C210.708 130.798 217.067 129.573 222.31 126.177C227.553 122.781 231.27 117.479 232.674 111.392C234.079 105.305 233.061 98.9099 229.836 93.5597C226.611 88.2094 221.432 84.3231 215.394 82.7224ZM180.785 118.912C173.447 117.71 147.871 114.973 118.481 128.686C118.104 128.863 117.684 128.929 117.271 128.876C116.858 128.823 116.468 128.652 116.148 128.385C115.829 128.118 115.592 127.765 115.466 127.368C115.34 126.971 115.33 126.546 115.437 126.144L138.083 41.6252C138.191 41.2241 138.411 40.8618 138.717 40.5808C139.022 40.2998 139.402 40.1117 139.811 40.0385C140.137 39.9854 140.47 40.0014 140.789 40.0855C141.281 40.2271 141.706 40.5419 141.984 40.9719C160.585 67.5214 184.104 77.9391 191.06 80.5673L180.785 118.912ZM187.52 150.554C187.35 150.86 187.108 151.122 186.816 151.316C186.524 151.51 186.19 151.63 185.841 151.668C185.492 151.706 185.14 151.659 184.813 151.532C184.486 151.404 184.195 151.2 183.963 150.937L179.19 145.508C178.953 145.237 178.785 144.912 178.704 144.561C178.622 144.211 178.628 143.845 178.721 143.497L183.916 124.111L200.186 128.47L187.52 150.554ZM204.07 124.982L185.054 119.886L195.245 81.8528L214.261 86.9483C219.305 88.2997 223.605 91.5993 226.216 96.1212C228.826 100.643 229.534 106.017 228.182 111.06C226.831 116.104 223.531 120.404 219.009 123.015C214.488 125.626 209.114 126.333 204.07 124.982Z" fill="#0325B6"/>
<path d="M100.312 55L112.92 64.8506" stroke="#0325B6" stroke-width="4" stroke-linecap="round"/>
<path d="M97 90.24L106.746 88" stroke="#0325B6" stroke-width="4" stroke-linecap="round"/>
<defs>
<clipPath id="clip0_3166_3083">
<rect width="72" height="72" fill="white" transform="matrix(-0.965926 0.258819 0.258819 0.965926 81.4558 55.9092)"/>
</clipPath>
</defs>
</svg>
