<svg width="260" height="200" viewBox="0 0 260 200" fill="none" xmlns="http://www.w3.org/2000/svg">
<path d="M7.37438 90.5528C7.33381 90.6984 7.313 90.8488 7.3125 91V95.5C7.31178 97.207 7.71995 98.8894 8.50287 100.406C9.28578 101.923 10.4207 103.23 11.8125 104.219V124.75C11.8125 125.198 11.9903 125.627 12.3068 125.943C12.6232 126.26 13.0524 126.438 13.5 126.438H58.5C58.9476 126.438 59.3768 126.26 59.6932 125.943C60.0097 125.627 60.1875 125.198 60.1875 124.75V104.219C61.5793 103.23 62.7142 101.923 63.4971 100.406C64.28 98.8894 64.6882 97.207 64.6875 95.5V91C64.6874 90.844 64.6656 90.6888 64.6228 90.5387L60.5897 76.4172C60.352 75.5977 59.8558 74.8771 59.1751 74.3626C58.4944 73.8482 57.6657 73.5675 56.8125 73.5625H15.1875C14.3343 73.5675 13.5056 73.8482 12.8249 74.3626C12.1442 74.8771 11.648 75.5977 11.4103 76.4172L7.37438 90.5528ZM14.6559 77.3341C14.6911 77.2202 14.7615 77.1204 14.8571 77.0491C14.9526 76.9778 15.0683 76.9388 15.1875 76.9375H56.8125C56.9346 76.9377 57.0533 76.9776 57.1507 77.0511C57.2481 77.1247 57.3189 77.2279 57.3525 77.3453L60.7641 89.3125H11.25L14.6559 77.3341ZM28.6875 92.6875H43.3125V95.5C43.3125 97.4394 42.5421 99.2994 41.1707 100.671C39.7994 102.042 37.9394 102.812 36 102.812C34.0606 102.812 32.2006 102.042 30.8293 100.671C29.4579 99.2994 28.6875 97.4394 28.6875 95.5V92.6875ZM10.6875 92.6875H25.3125V95.5C25.3139 96.762 24.9887 98.0028 24.3686 99.1019C23.7484 100.201 22.8543 101.121 21.7733 101.772C20.6924 102.423 19.4613 102.784 18.1998 102.818C16.9383 102.853 15.6893 102.56 14.5744 101.969C14.4359 101.851 14.2792 101.756 14.1103 101.688C13.0631 101.03 12.1999 100.117 11.6013 99.035C11.0027 97.9529 10.6883 96.7366 10.6875 95.5V92.6875ZM56.8125 123.062H15.1875V105.811C17.3853 106.409 19.7166 106.289 21.8416 105.469C23.9665 104.649 25.7738 103.171 27 101.252C27.9645 102.764 29.2947 104.01 30.8677 104.872C32.4408 105.735 34.2059 106.187 36 106.187C37.7941 106.187 39.5592 105.735 41.1323 104.872C42.7053 104.01 44.0355 102.764 45 101.252C46.2262 103.171 48.0335 104.649 50.1584 105.469C52.2834 106.289 54.6147 106.409 56.8125 105.811V123.062ZM57.8897 101.688C57.7208 101.756 57.5641 101.851 57.4256 101.969C56.3107 102.56 55.0617 102.853 53.8002 102.818C52.5387 102.784 51.3076 102.423 50.2267 101.772C49.1457 101.121 48.2516 100.201 47.6314 99.1019C47.0113 98.0028 46.6861 96.762 46.6875 95.5V92.6875H61.3125V95.5C61.3117 96.7366 60.9973 97.9529 60.3987 99.035C59.8001 100.117 58.9369 101.03 57.8897 101.688Z" fill="#051A7C" fill-opacity="0.45"/>
<path opacity="0.2" d="M183 80.625V89.375C183 94.0163 181.156 98.4675 177.874 101.749C174.592 105.031 170.141 106.875 165.5 106.875C160.859 106.875 156.408 105.031 153.126 101.749C149.844 98.4675 148 94.0163 148 89.375V80.625H113V89.375C113 94.0163 111.156 98.4675 107.874 101.749C104.592 105.031 100.141 106.875 95.5 106.875C90.8587 106.875 86.4075 105.031 83.1256 101.749C79.8437 98.4675 78 94.0163 78 89.375V80.625L85.8422 53.1719C86.1028 52.2608 86.6521 51.459 87.4075 50.887C88.163 50.315 89.0837 50.0037 90.0312 50H170.969C171.919 50.0002 172.844 50.3098 173.602 50.8821C174.361 51.4544 174.913 52.2581 175.174 53.1719L183 80.625Z" fill="#0325B6"/>
<path d="M75.3945 81.9531C75.3429 82.1309 75.3154 82.3149 75.3125 82.5V91.25C75.3137 94.4865 76.1128 97.6727 77.639 100.527C79.1652 103.381 81.3714 105.814 84.0625 107.612V148.125C84.0625 148.705 84.293 149.262 84.7032 149.672C85.1134 150.082 85.6698 150.312 86.25 150.312H173.75C174.33 150.312 174.887 150.082 175.297 149.672C175.707 149.262 175.938 148.705 175.938 148.125V107.612C178.629 105.814 180.835 103.381 182.361 100.527C183.887 97.6727 184.686 94.4865 184.688 91.25V82.5C184.685 82.2997 184.654 82.1007 184.595 81.9094L176.758 54.4453C176.367 53.0779 175.542 51.8745 174.408 51.0164C173.273 50.1583 171.891 49.6919 170.469 49.6875H89.5312C88.109 49.6919 86.7266 50.1583 85.5924 51.0164C84.4581 51.8745 83.6333 53.0779 83.2422 54.4453L75.3945 81.9531ZM87.4258 55.6594C87.5546 55.2 87.83 54.7954 88.2101 54.5071C88.5903 54.2188 89.0542 54.0627 89.5312 54.0625H170.469C170.943 54.0632 171.405 54.2183 171.784 54.5044C172.163 54.7905 172.438 55.192 172.569 55.6484L179.602 80.3125H80.3984L87.4258 55.6594ZM114.688 84.6875H145.312V91.25C145.312 95.3111 143.699 99.2059 140.828 102.078C137.956 104.949 134.061 106.562 130 106.562C125.939 106.562 122.044 104.949 119.172 102.078C116.301 99.2059 114.688 95.3111 114.688 91.25V84.6875ZM79.6875 91.25V84.6875H110.312V91.25C110.311 93.9039 109.621 96.5119 108.308 98.8184C106.995 101.125 105.105 103.05 102.824 104.406C100.543 105.762 97.948 106.502 95.2946 106.553C92.6412 106.604 90.0201 105.965 87.6883 104.698C87.4781 104.515 87.235 104.374 86.9719 104.282C84.7465 102.912 82.9089 100.995 81.6338 98.7139C80.3588 96.4328 79.6887 93.8633 79.6875 91.25ZM171.562 145.938H88.4375V109.811C92.9262 111.396 97.8372 111.301 102.261 109.543C106.685 107.786 110.323 104.485 112.5 100.252C114.156 103.465 116.665 106.161 119.752 108.042C122.839 109.924 126.385 110.92 130 110.92C133.615 110.92 137.161 109.924 140.248 108.042C143.335 106.161 145.844 103.465 147.5 100.252C149.677 104.485 153.315 107.786 157.739 109.543C162.163 111.301 167.074 111.396 171.562 109.811V145.938ZM173.028 104.282C172.766 104.373 172.525 104.514 172.317 104.698C169.985 105.966 167.364 106.607 164.709 106.556C162.055 106.506 159.46 105.766 157.178 104.41C154.895 103.054 153.005 101.128 151.692 98.8207C150.379 96.5136 149.688 93.9047 149.688 91.25V84.6875H180.312V91.25C180.311 93.8633 179.641 96.4328 178.366 98.7139C177.091 100.995 175.253 102.912 173.028 104.282Z" fill="#0325B6"/>
<path d="M195.374 90.5528C195.334 90.6984 195.313 90.8488 195.313 91V95.5C195.312 97.207 195.72 98.8894 196.503 100.406C197.286 101.923 198.421 103.23 199.813 104.219V124.75C199.813 125.198 199.99 125.627 200.307 125.943C200.623 126.26 201.052 126.438 201.5 126.438H246.5C246.948 126.438 247.377 126.26 247.693 125.943C248.01 125.627 248.188 125.198 248.188 124.75V104.219C249.579 103.23 250.714 101.923 251.497 100.406C252.28 98.8894 252.688 97.207 252.688 95.5V91C252.687 90.844 252.666 90.6888 252.623 90.5387L248.59 76.4172C248.352 75.5977 247.856 74.8771 247.175 74.3626C246.494 73.8482 245.666 73.5675 244.812 73.5625H203.188C202.334 73.5675 201.506 73.8482 200.825 74.3626C200.144 74.8771 199.648 75.5977 199.41 76.4172L195.374 90.5528ZM202.656 77.3341C202.691 77.2202 202.762 77.1204 202.857 77.0491C202.953 76.9778 203.068 76.9388 203.188 76.9375H244.812C244.935 76.9377 245.053 76.9776 245.151 77.0511C245.248 77.1247 245.319 77.2279 245.353 77.3453L248.764 89.3125H199.25L202.656 77.3341ZM216.688 92.6875H231.312V95.5C231.312 97.4394 230.542 99.2994 229.171 100.671C227.799 102.042 225.939 102.812 224 102.812C222.061 102.812 220.201 102.042 218.829 100.671C217.458 99.2994 216.688 97.4394 216.688 95.5V92.6875ZM198.688 92.6875H213.312V95.5C213.314 96.762 212.989 98.0028 212.369 99.1019C211.748 100.201 210.854 101.121 209.773 101.772C208.692 102.423 207.461 102.784 206.2 102.818C204.938 102.853 203.689 102.56 202.574 101.969C202.436 101.851 202.279 101.756 202.11 101.688C201.063 101.03 200.2 100.117 199.601 99.035C199.003 97.9529 198.688 96.7366 198.688 95.5V92.6875ZM244.812 123.062H203.188V105.811C205.385 106.409 207.717 106.289 209.842 105.469C211.966 104.649 213.774 103.171 215 101.252C215.964 102.764 217.295 104.01 218.868 104.872C220.441 105.735 222.206 106.187 224 106.187C225.794 106.187 227.559 105.735 229.132 104.872C230.705 104.01 232.036 102.764 233 101.252C234.226 103.171 236.034 104.649 238.158 105.469C240.283 106.289 242.615 106.409 244.812 105.811V123.062ZM245.89 101.688C245.721 101.756 245.564 101.851 245.426 101.969C244.311 102.56 243.062 102.853 241.8 102.818C240.539 102.784 239.308 102.423 238.227 101.772C237.146 101.121 236.252 100.201 235.631 99.1019C235.011 98.0028 234.686 96.762 234.688 95.5V92.6875H249.312V95.5C249.312 96.7366 248.997 97.9529 248.399 99.035C247.8 100.117 246.937 101.03 245.89 101.688Z" fill="#051A7C" fill-opacity="0.45"/>
</svg>
