<svg width="260" height="200" viewBox="0 0 260 200" fill="none" xmlns="http://www.w3.org/2000/svg">
<path opacity="0.2" d="M115.313 153L123.625 118L93 104.252L145.062 48L136.75 83L167.375 96.7484L115.313 153Z" fill="#0325B6"/>
<path d="M171.019 95.4359C170.949 95.0958 170.8 94.7771 170.583 94.5061C170.367 94.2351 170.088 94.0195 169.772 93.8773L140.787 80.8726L148.679 47.6281C148.791 47.1575 148.744 46.663 148.545 46.2221C148.346 45.7811 148.007 45.4185 147.58 45.191C147.153 44.9635 146.662 44.8839 146.186 44.9647C145.709 45.0455 145.272 45.2821 144.944 45.6375L92.8921 101.889C92.6559 102.144 92.4838 102.451 92.3901 102.786C92.2964 103.121 92.2838 103.473 92.3533 103.813C92.4227 104.154 92.5724 104.473 92.7897 104.744C93.007 105.015 93.2859 105.231 93.6031 105.373L122.587 118.377L114.685 151.616C114.572 152.087 114.618 152.581 114.816 153.022C115.014 153.464 115.353 153.827 115.779 154.055C116.095 154.225 116.448 154.314 116.807 154.312C117.109 154.313 117.407 154.251 117.684 154.131C117.961 154.01 118.21 153.834 118.415 153.612L170.477 97.3609C170.714 97.1062 170.887 96.7987 170.981 96.4639C171.075 96.1291 171.088 95.7767 171.019 95.4359ZM120.865 144.523L127.252 117.628C127.37 117.133 127.311 116.613 127.086 116.157C126.862 115.701 126.485 115.338 126.022 115.129L98.1749 102.627L142.51 54.7265L136.123 81.6218C136.005 82.1165 136.064 82.6365 136.289 83.0926C136.513 83.5487 136.89 83.9123 137.353 84.121L165.2 96.6226L120.865 144.523ZM205.833 151.146L186.145 111.771C185.964 111.407 185.685 111.101 185.339 110.887C184.993 110.673 184.594 110.559 184.187 110.559C183.781 110.559 183.382 110.673 183.036 110.887C182.69 111.101 182.411 111.407 182.23 111.771L162.542 151.146C162.414 151.403 162.337 151.683 162.317 151.97C162.296 152.257 162.332 152.544 162.423 152.817C162.514 153.09 162.658 153.342 162.846 153.559C163.035 153.776 163.264 153.954 163.521 154.083C163.778 154.211 164.058 154.288 164.345 154.308C164.631 154.329 164.919 154.292 165.192 154.202C165.465 154.111 165.717 153.967 165.934 153.779C166.151 153.59 166.329 153.361 166.458 153.104L172.413 141.187H195.962L201.917 153.104C202.099 153.467 202.378 153.773 202.724 153.986C203.07 154.2 203.469 154.313 203.875 154.312C204.214 154.311 204.549 154.232 204.854 154.083C205.111 153.954 205.34 153.776 205.529 153.559C205.717 153.342 205.861 153.09 205.952 152.817C206.043 152.545 206.079 152.257 206.059 151.97C206.038 151.683 205.961 151.403 205.833 151.146ZM174.601 136.812L184.187 117.639L193.774 136.812H174.601Z" fill="#0325B6"/>
<path d="M220.331 52.5539C220.267 52.2838 220.139 52.0334 219.956 51.8249C219.773 51.6164 219.541 51.4563 219.282 51.3586L202.623 45.1121L206.842 24.0183C206.914 23.6583 206.866 23.2846 206.707 22.954C206.547 22.6233 206.284 22.3538 205.958 22.1861C205.631 22.0185 205.258 21.962 204.897 22.0252C204.535 22.0883 204.204 22.2677 203.953 22.5361L172.453 56.2861C172.264 56.4889 172.128 56.7353 172.057 57.0033C171.985 57.2714 171.981 57.5528 172.045 57.8229C172.108 58.0929 172.237 58.3431 172.42 58.5514C172.603 58.7597 172.835 58.9196 173.095 59.0171L189.753 65.2636L185.534 86.3574C185.462 86.7175 185.509 87.0914 185.668 87.4224C185.828 87.7533 186.091 88.0232 186.418 88.1911C186.656 88.3123 186.92 88.3759 187.188 88.3767C187.42 88.3767 187.649 88.329 187.861 88.2366C188.074 88.1442 188.265 88.009 188.423 87.8395L219.923 54.0896C220.112 53.8867 220.248 53.6406 220.319 53.3727C220.39 53.1049 220.394 52.8237 220.331 52.5539ZM190.001 81.1936L193.333 64.5211C193.413 64.1283 193.349 63.7203 193.155 63.3699C192.961 63.0195 192.648 62.7496 192.273 62.6086L176.636 56.7446L202.359 29.1821L199.034 45.8574C198.955 46.2501 199.019 46.6582 199.213 47.0086C199.407 47.359 199.72 47.6288 200.095 47.7699L215.732 53.6339L190.001 81.1936Z" fill="#051A7C" fill-opacity="0.45"/>
<path d="M89.3306 141.554C89.2675 141.284 89.1387 141.033 88.9557 140.825C88.7728 140.616 88.5412 140.456 88.2816 140.359L71.6231 134.112L75.8419 113.018C75.9139 112.658 75.8665 112.285 75.7069 111.954C75.5473 111.623 75.2842 111.354 74.9575 111.186C74.6309 111.019 74.2585 110.962 73.8968 111.025C73.5352 111.088 73.204 111.268 72.9534 111.536L41.4534 145.286C41.2643 145.489 41.128 145.735 41.0567 146.003C40.9854 146.271 40.9813 146.553 41.0447 146.823C41.1081 147.093 41.2371 147.343 41.4202 147.551C41.6034 147.76 41.835 147.92 42.0947 148.017L58.7531 154.264L54.5344 175.357C54.4619 175.717 54.509 176.091 54.6684 176.422C54.8278 176.753 55.0908 177.023 55.4175 177.191C55.6564 177.312 55.9203 177.376 56.1881 177.377C56.4198 177.377 56.649 177.329 56.8614 177.237C57.0738 177.144 57.2649 177.009 57.4228 176.84L88.9228 143.09C89.1117 142.887 89.2476 142.641 89.3188 142.373C89.3899 142.105 89.394 141.824 89.3306 141.554ZM59.0006 170.194L62.3334 153.521C62.4125 153.128 62.3492 152.72 62.155 152.37C61.9607 152.019 61.6481 151.75 61.2731 151.609L45.6356 145.745L71.3588 118.182L68.0344 134.857C67.9553 135.25 68.0186 135.658 68.2128 136.009C68.4071 136.359 68.7197 136.629 69.0947 136.77L84.7322 142.634L59.0006 170.194Z" fill="#051A7C" fill-opacity="0.45"/>
</svg>
