<svg width="24" height="24" viewBox="0 0 24 24" fill="none" xmlns="http://www.w3.org/2000/svg">
<g clip-path="url(#clip0_2918_2973)">
<path d="M12 24C18.6274 24 24 18.6274 24 12C24 5.37258 18.6274 0 12 0C5.37258 0 0 5.37258 0 12C0 18.6274 5.37258 24 12 24Z" fill="#6DA544"/>
<path d="M11.9999 4.69556L21.913 11.9999L11.9999 19.3042L2.08691 11.9999L11.9999 4.69556Z" fill="#FFDA44"/>
<path d="M12.0001 16.174C14.3052 16.174 16.174 14.3052 16.174 12.0001C16.174 9.69489 14.3052 7.82617 12.0001 7.82617C9.69489 7.82617 7.82617 9.69489 7.82617 12.0001C7.82617 14.3052 9.69489 16.174 12.0001 16.174Z" fill="#F0F0F0"/>
<path d="M9.913 11.7393C9.18719 11.7393 8.48674 11.8496 7.82739 12.0545C7.8566 14.3345 9.71303 16.1741 12 16.1741C13.4141 16.1741 14.663 15.4701 15.418 14.3943C14.1263 12.7773 12.1388 11.7393 9.913 11.7393Z" fill="#0052B4"/>
<path d="M16.0964 12.7997C16.1467 12.5408 16.1738 12.2737 16.1738 12.0001C16.1738 9.69484 14.3051 7.82617 11.9999 7.82617C10.2799 7.82617 8.80331 8.86684 8.16431 10.3527C8.72915 10.2356 9.31396 10.174 9.91298 10.174C12.3372 10.174 14.5303 11.1817 16.0964 12.7997Z" fill="#0052B4"/>
</g>
<defs>
<clipPath id="clip0_2918_2973">
<rect width="24" height="24" fill="white"/>
</clipPath>
</defs>
</svg>
