<svg width="150" height="32" viewBox="0 0 150 32" fill="none" xmlns="http://www.w3.org/2000/svg">
<path d="M135.447 28.9788C130.728 24.6947 126.096 20.4848 121.353 16.1771V28.1907H116.061V3.0218C120.773 7.29913 125.416 11.5158 130.145 15.81V3.77286H135.444V28.9788H135.447Z" fill="#040509"/>
<path d="M57.3608 18.0061H47.0861V28.9284H41.9852C41.9782 28.7432 41.9609 28.5613 41.9609 28.3794C41.9609 20.5051 41.9609 12.6308 41.9504 4.75644C41.9504 4.29839 42.0373 4.13673 42.5164 4.1502C44.0095 4.19062 45.5027 4.16367 47.0548 4.16367V13.9544H57.3469V4.20409H62.4686V4.82716C62.4686 12.6847 62.4616 20.5421 62.4755 28.3963C62.4755 28.8476 62.3783 28.9924 61.9338 28.9823C60.5727 28.952 59.208 28.9553 57.8434 28.9823C57.4406 28.989 57.3469 28.8476 57.3503 28.4502C57.3642 25.1866 57.3608 21.923 57.3608 18.6594V18.0094V18.0061Z" fill="#040509"/>
<path d="M75.0177 28.9789V4.15019H93.2614V8.08062H80.3061V14.0318H93.1087V17.9555H80.3061V24.7622H93.2545V28.9823H75.0177V28.9789Z" fill="#040509"/>
<path d="M14.5847 25.57C15.8209 24.4148 17.0293 23.2832 18.2203 22.1717C19.071 22.6534 19.8592 23.1956 20.7204 23.5694C22.5121 24.3441 24.3802 24.664 26.3074 24.1454C26.7067 24.0376 27.0956 23.822 27.4359 23.5795C28.7623 22.6298 28.8075 20.8818 27.4567 19.9691C26.606 19.3965 25.6337 18.9924 24.6823 18.5983C23.1337 17.9584 21.5364 17.4364 19.9946 16.7762C18.5883 16.1734 17.3765 15.2573 16.4841 13.9606C14.5847 11.2022 15.1542 7.34927 17.7758 5.18366C19.3974 3.8432 21.2759 3.18645 23.3316 3.06183C26.0331 2.90017 28.6721 3.17635 31.1097 4.49996C31.8458 4.90075 32.5264 5.40931 33.2972 5.91114C32.0055 7.11688 30.811 8.23168 29.5992 9.36669C29.4395 9.24544 29.3075 9.13766 29.1756 9.03999C27.2866 7.63891 25.2067 7.16403 22.9427 7.75343C22.4704 7.87467 22.0121 8.17779 21.6267 8.49775C20.4842 9.44752 20.4704 11.0002 21.6683 11.8725C22.4843 12.4652 23.4184 12.9132 24.3455 13.3039C25.9358 13.9741 27.5922 14.4894 29.1756 15.1764C30.7485 15.8601 32.1861 16.8133 33.0611 18.3828C34.6445 21.2354 34.2764 24.8931 30.9846 27.1934C28.9776 28.5978 26.731 29.0121 24.3386 28.9717C20.7412 28.9144 17.4772 27.931 14.5847 25.5667L14.5847 25.57Z" fill="#040509"/>
<path d="M101.241 4.15019H106.942V28.9789H101.241V4.15019Z" fill="#040509"/>
</svg>
