<svg width="93" height="32" viewBox="0 0 93 32" fill="none" xmlns="http://www.w3.org/2000/svg">
<path d="M13.4927 0.000295096C13.4137 -0.00065246 13.3351 0.000686753 13.2572 0.00424325C10.4634 0.143218 7.64444 3.12471 7.53118 8.57H1.05005C0.546656 8.57 0.144043 8.97444 0.144043 9.4798L1.35213 27.837C1.35213 28.3423 2.69864 30.6545 4.82546 30.6419H22.419C25.5023 30.1618 25.8923 27.5717 25.8923 27.0663L26.9999 9.4798C26.9873 8.97444 26.572 8.57 26.0686 8.57H19.5874C18.8803 2.25454 15.9411 0.0298055 13.4927 0.000295096ZM13.5156 1.51762C15.2866 1.5475 17.4552 3.39279 18.0647 8.57H9.05413C9.15481 4.12281 11.3193 1.62141 13.3455 1.52033C13.4017 1.51757 13.4584 1.51665 13.5156 1.51762ZM13.5986 11.6572C14.9451 11.6413 16.2981 12.076 17.1334 13.0425C17.7752 13.7753 16.7055 14.8618 16.0637 14.1164C14.8682 12.7393 12.0241 12.9289 10.9418 14.3439C9.4065 16.378 11.7093 17.4645 13.3202 17.9572C15.5351 18.6268 17.9892 19.8649 18.3919 22.4043C18.7191 24.4637 17.1335 26.3715 15.1703 26.7505C13.0686 27.1548 10.3628 26.4472 8.89043 24.868C8.22344 24.1478 9.29314 23.0739 9.96013 23.7941C10.9543 24.868 12.7163 25.3609 14.1509 25.323C15.9883 25.2851 17.6116 23.6047 16.5796 21.7349C15.145 19.1449 11.5836 19.8776 9.75882 17.8435C8.28641 16.201 8.97852 13.6237 10.7152 12.474C11.5081 11.9544 12.5514 11.6696 13.5986 11.6572Z" fill="#FF5200"/>
<path d="M39.3706 13.3584C37.8857 11.6654 34.7646 11.6149 32.9524 12.8025C31.2157 13.9396 30.5236 16.4917 31.996 18.1215C33.8208 20.1429 37.3697 19.4228 38.8169 21.9875C39.8615 23.8447 38.2254 25.4998 36.4007 25.5377C34.966 25.5756 33.2041 25.0702 32.2099 24.0089C31.5429 23.3014 30.4732 24.3627 31.1402 25.0702C32.6126 26.6368 35.3184 27.3443 37.4074 26.9401C39.3706 26.561 40.9563 24.6659 40.6291 22.6318C40.2264 20.105 37.7724 18.8921 35.5575 18.2225C33.9466 17.7424 31.6436 16.6559 33.179 14.6471C34.2612 13.2321 37.0928 13.0552 38.3009 14.4197C38.9428 15.1651 40.0125 14.0912 39.3706 13.3584Z" fill="#FF5200"/>
<path d="M50.0173 21.0273V26.3084C50.0173 27.3064 48.5072 27.3064 48.5072 26.3084V21.1284C48.4568 20.105 47.6136 19.6376 47.5885 19.6249C46.5062 19.1448 44.5555 19.3596 43.3852 20.8883V26.3084C43.3852 27.3064 41.875 27.3064 41.875 26.3084V12.7394C41.875 11.7413 43.3852 11.7413 43.3852 12.7394V18.8416C45.2477 17.5529 47.6136 17.7045 48.7211 18.4879C48.7085 18.4752 50.0425 19.2333 50.0173 21.0273Z" fill="#FF5200"/>
<path d="M82.423 22.4929C82.3852 20.4082 81.3281 18.5384 79.1258 18.1215C77.2381 17.7677 75.0232 18.7658 74.2178 20.5472C73.3746 22.3918 73.727 24.9312 75.3881 26.2199C77.1752 27.6097 79.9564 27.1801 81.7938 26.1567C82.6495 25.6766 81.8819 24.3627 81.0261 24.8428C79.8683 25.4998 78.3456 25.8156 77.0493 25.3861C76.0803 25.0576 75.5266 24.2111 75.363 23.2762H81.6679C82.0706 23.2509 82.4356 22.9098 82.423 22.4929ZM75.4133 21.7348C75.4259 21.6716 75.4385 21.6211 75.4511 21.5706C75.816 20.3324 77.0493 19.6123 78.3078 19.5744C79.755 19.5365 80.5605 20.5346 80.8122 21.7348H75.4133Z" fill="#FF5200"/>
<path d="M92.5159 22.4802C92.4781 20.3956 91.421 18.5258 89.2187 18.1088C87.331 17.7551 85.1161 18.7532 84.3107 20.5346C83.4675 22.3792 83.8199 24.9186 85.481 26.2073C87.2681 27.597 90.0493 27.1675 91.8867 26.1441C92.7424 25.664 91.9748 24.3501 91.119 24.8302C89.9612 25.4871 88.4384 25.803 87.1422 25.3734C86.1732 25.045 85.6195 24.1985 85.4559 23.2635H91.7608C92.1635 23.2383 92.5159 22.8972 92.5159 22.4802ZM85.5062 21.7222C85.5188 21.659 85.5314 21.6085 85.544 21.5579C85.9089 20.3198 87.1422 19.5997 88.4007 19.5618C89.8479 19.5239 90.6534 20.522 90.9051 21.7222H85.5062Z" fill="#FF5200"/>
<path d="M56.3097 27.0917C53.8305 27.0917 51.8043 25.0576 51.8043 22.5687C51.8043 20.0797 53.8305 18.0457 56.3097 18.0457C58.7888 18.0457 60.815 20.0797 60.815 22.5687C60.815 25.0702 58.7888 27.0917 56.3097 27.0917ZM56.3097 19.6755C54.724 19.6755 53.4278 20.9768 53.4278 22.5687C53.4278 24.1605 54.724 25.4619 56.3097 25.4619C57.8953 25.4619 59.1916 24.1605 59.1916 22.5687C59.179 20.9768 57.8953 19.6755 56.3097 19.6755Z" fill="#FF5200"/>
<path d="M67.4849 18.0457C66.1509 18.0457 64.9428 18.6395 64.1248 19.5618V18.4752C64.1248 17.5024 62.6146 17.4898 62.6146 18.4752V31.2609C62.6146 32.2464 64.1248 32.2464 64.1248 31.2609V25.5629C64.9554 26.4979 66.1509 27.079 67.4849 27.079C69.9641 27.079 71.9902 25.0576 71.9902 22.556C71.9902 20.0798 69.9767 18.0457 67.4849 18.0457ZM67.4849 25.4619C65.8992 25.4619 64.603 24.1606 64.603 22.5687C64.603 21.141 65.6475 19.9408 67.0193 19.7134C67.0193 19.7134 67.0319 19.7134 67.0444 19.7134C67.1829 19.6881 67.3339 19.6755 67.4849 19.6755C68.6553 19.6755 69.6747 20.383 70.1151 21.4063V21.419C70.2661 21.7727 70.3542 22.1644 70.3542 22.5687C70.3668 24.1606 69.0706 25.4619 67.4849 25.4619Z" fill="#FF5200"/>
</svg>
