<svg width="135" height="32" viewBox="0 0 135 32" fill="none" xmlns="http://www.w3.org/2000/svg">
<g clip-path="url(#clip0_331_827)">
<path d="M72.878 0C73.6159 0 74.3066 0.353945 74.7314 0.95096L83.3031 13.7484L91.8834 0.938166C92.2996 0.353945 92.9903 0 93.7282 0H96.0492C97.851 0 99.3097 1.44989 99.3097 3.24094V28.7591C99.3097 30.5501 97.851 32 96.0492 32C94.2473 32 92.7886 30.5501 92.7886 28.7591V10.4989L85.5897 20.5757C84.4743 22.1407 82.1362 22.1407 81.0207 20.5757L73.8218 10.4989V28.7591C73.8218 30.5501 72.3632 32 70.5613 32C68.7595 32 67.3008 30.5501 67.3008 28.7591V3.24094C67.2965 1.44989 68.7552 0 70.557 0H72.878ZM130.902 0C132.704 0 134.163 1.44989 134.163 3.24094V18.5501C134.163 27.3262 128.929 32 119.709 32C110.49 32 105.453 27.3646 105.453 18.7676V3.24094C105.453 1.44989 106.916 0 108.714 0C110.511 0 111.974 1.44989 111.974 3.24094V18.5927C111.974 23.7825 114.866 26.7036 119.808 26.7036C124.75 26.7036 127.638 23.8721 127.638 18.8145V3.24094C127.642 1.44989 129.101 0 130.902 0ZM25.6691 0C27.4709 0 28.9296 1.44989 28.9296 3.24094C28.9296 5.03198 27.4709 6.48188 25.6691 6.48188H17.9811V28.7249C17.9811 30.516 16.5225 31.9659 14.7206 31.9659C12.9187 31.9659 11.4601 30.516 11.4601 28.7249V6.48188H3.77639C1.97452 6.48188 0.515869 5.03198 0.515869 3.24094C0.515869 1.44989 1.97452 0 3.77639 0H25.6691ZM58.0555 0C59.8574 0 61.316 1.44989 61.316 3.24094C61.316 5.03198 59.8574 6.48188 58.0555 6.48188H41.0364V12.742H55.919C57.7209 12.742 59.1795 14.1919 59.1795 15.9829C59.1795 17.774 57.7209 19.2239 55.919 19.2239H41.0364V25.484H58.0555C59.8574 25.484 61.316 26.9339 61.316 28.7249C61.316 30.516 59.8574 31.9659 58.0555 31.9659H37.7759C35.974 31.9659 34.5154 30.516 34.5154 28.7249V3.24094C34.5154 1.44989 35.974 0 37.7759 0H58.0555Z" fill="#FB7701"/>
</g>
<defs>
<clipPath id="clip0_331_827">
<rect width="133.647" height="32" fill="white" transform="translate(0.515869)"/>
</clipPath>
</defs>
</svg>
