<svg width="198" height="55" viewBox="0 0 198 55" fill="none" xmlns="http://www.w3.org/2000/svg">
<rect width="198" height="55" fill="#EAEAEA"/>
<path d="M-980 -5614C-980 -5620.63 -974.627 -5626 -968 -5626H1540C1546.63 -5626 1552 -5620.63 1552 -5614V1997C1552 2003.63 1546.63 2009 1540 2009H-968C-974.627 2009 -980 2003.63 -980 1997V-5614Z" fill="#051A7C" fill-opacity="0.05"/>
<path d="M-968 -5626V-5625H1540V-5626V-5627H-968V-5626ZM1552 -5614H1551V1997H1552H1553V-5614H1552ZM1540 2009V2008H-968V2009V2010H1540V2009ZM-980 1997H-979V-5614H-980H-981V1997H-980ZM-968 2009V2008C-974.075 2008 -979 2003.08 -979 1997H-980H-981C-981 2004.18 -975.18 2010 -968 2010V2009ZM1552 1997H1551C1551 2003.08 1546.08 2008 1540 2008V2009V2010C1547.18 2010 1553 2004.18 1553 1997H1552ZM1540 -5626V-5625C1546.08 -5625 1551 -5620.08 1551 -5614H1552H1553C1553 -5621.18 1547.18 -5627 1540 -5627V-5626ZM-968 -5626V-5627C-975.18 -5627 -981 -5621.18 -981 -5614H-980H-979C-979 -5620.08 -974.075 -5625 -968 -5625V-5626Z" fill="#051A7C" fill-opacity="0.1"/>
<rect width="1440" height="6741" transform="translate(-880 -5526)" fill="#F5F4F4"/>
<path d="M-22.3999 -36C-22.3999 -44.8366 -15.2365 -52 -6.3999 -52H204.8C213.637 -52 220.8 -44.8366 220.8 -36V90.1924C220.8 99.0289 213.637 106.192 204.8 106.192H-6.39992C-15.2365 106.192 -22.3999 99.0289 -22.3999 90.1924V-36Z" fill="white"/>
<path fill-rule="evenodd" clip-rule="evenodd" d="M27.7106 20.3197H18.6763V11.289H59.3352V20.3197H36.749V42.9041H27.7106V20.3197ZM41.2682 42.9005V24.835H59.345V33.8657H50.3066V42.9005H41.2682Z" fill="#001D94"/>
<path d="M68.3848 42.9121V11.2838H87.8686V18.0549H75.4739V23.7569H85.1488V30.528H75.4739V42.9121H68.3848Z" fill="black"/>
<path d="M98.229 20.6384H91.4966V42.9119H98.229V20.6384Z" fill="black"/>
<path d="M94.8621 18.0105C96.7212 18.0105 98.2283 16.5046 98.2283 14.6471C98.2283 12.7896 96.7212 11.2838 94.8621 11.2838C93.003 11.2838 91.4958 12.7896 91.4958 14.6471C91.4958 16.5046 93.003 18.0105 94.8621 18.0105Z" fill="black"/>
<path d="M112.244 43.4021C109.272 43.4021 106.827 42.667 104.91 41.197C102.993 39.7269 101.975 37.8782 101.855 35.6509H108.945C109.004 36.5121 109.361 37.1729 110.015 37.6332C110.669 38.0935 111.486 38.3237 112.467 38.3237C114.131 38.3237 114.964 37.8485 114.964 36.8982C114.964 36.423 114.778 36.0592 114.406 35.8068C114.035 35.5544 113.374 35.2945 112.423 35.0272L107.919 33.869C104.174 32.889 102.302 30.5577 102.302 26.8751C102.302 24.8853 103.134 23.2668 104.798 22.0195C106.463 20.7721 108.736 20.1485 111.62 20.1485C114.176 20.1485 116.309 20.7796 118.018 22.0417C119.727 23.3039 120.671 25.0784 120.849 27.3651H114.072C113.805 25.999 112.943 25.316 111.486 25.316C109.97 25.316 109.213 25.7911 109.213 26.7415C109.213 27.573 109.97 28.1521 111.486 28.4788L115.543 29.5479C117.772 30.1419 119.378 31.0032 120.359 32.1317C121.339 33.2602 121.83 34.7302 121.83 36.5418C121.83 38.591 120.938 40.2467 119.155 41.5088C117.372 42.771 115.068 43.4021 112.244 43.4021Z" fill="black"/>
<path d="M136.337 43.4021C132.979 43.4021 130.185 42.2809 127.956 40.0387C125.726 37.7966 124.612 35.0421 124.612 31.7753C124.612 28.5085 125.726 25.754 127.956 23.5118C130.185 21.2696 132.979 20.1485 136.337 20.1485C139.399 20.1485 141.926 20.9949 143.917 22.6877C145.909 24.3805 147.216 26.5929 147.84 29.3252H140.885C139.904 27.2463 138.388 26.2069 136.337 26.2069C134.881 26.2069 133.692 26.7044 132.77 27.6992C131.849 28.6941 131.389 30.0528 131.389 31.7753C131.389 33.4978 131.849 34.8565 132.77 35.8513C133.692 36.8462 134.881 37.3437 136.337 37.3437C138.388 37.3437 139.904 36.3042 140.885 34.2253H147.84C147.216 36.9576 145.909 39.17 143.917 40.8629C141.926 42.5557 139.399 43.4021 136.337 43.4021Z" fill="black"/>
<path d="M160.967 43.4021C158.083 43.4021 155.638 42.2587 153.632 39.9719C151.626 37.6852 150.623 34.953 150.623 31.7753C150.623 28.5976 151.626 25.8654 153.632 23.5786C155.638 21.2919 158.083 20.1485 160.967 20.1485C163.522 20.1485 165.544 21.0543 167.03 22.8659V20.6385H173.762V42.912H167.03V40.6847C165.544 42.4962 163.522 43.4021 160.967 43.4021ZM158.782 35.74C159.733 36.7794 160.967 37.2991 162.482 37.2991C163.998 37.2991 165.225 36.7794 166.16 35.74C167.097 34.7005 167.565 33.379 167.565 31.7753C167.565 30.1716 167.097 28.85 166.16 27.8106C165.225 26.7711 163.998 26.2514 162.482 26.2514C160.967 26.2514 159.74 26.7711 158.804 27.8106C157.868 28.85 157.4 30.1716 157.4 31.7753C157.4 33.379 157.86 34.7005 158.782 35.74Z" fill="black"/>
<path d="M183.276 9.50154H176.543V42.9118H183.276V9.50154Z" fill="black"/>
</svg>
