<svg width="184" height="54" viewBox="0 0 184 54" fill="none" xmlns="http://www.w3.org/2000/svg">
<path d="M79.6443 33.1448C81.4316 34.9804 83.5857 35.8982 86.1055 35.8982C88.6259 35.8982 90.765 34.9804 92.5233 33.1448C94.2816 31.3091 95.1607 29.1238 95.1607 26.5889C95.1607 24.054 94.2816 21.8687 92.5233 20.033C90.765 18.1974 88.6259 17.2796 86.1055 17.2796C83.5857 17.2796 81.4388 18.1974 79.666 20.033C77.8932 21.8687 77.0069 24.054 77.0069 26.5889C77.0069 29.1238 77.886 31.3091 79.6443 33.1448ZM97.4905 37.9087C94.3552 41.0555 90.5598 42.6289 86.1055 42.6289C81.6512 42.6289 77.8492 41.0628 74.6989 37.9305C71.5485 34.7983 69.9736 31.0178 69.9736 26.5889C69.9736 22.1601 71.5485 18.3795 74.6989 15.2473C77.8492 12.115 81.6512 10.5489 86.1055 10.5489C90.5598 10.5489 94.3624 12.1223 97.5122 15.2691C100.663 18.4159 102.238 22.1892 102.238 26.5889C102.238 30.9886 100.655 34.7619 97.4905 37.9087Z" fill="black"/>
<path d="M104.979 11.0734H111.352L121.067 24.4473L130.869 11.0734H137.243V42.1044H130.21V23.005L121.111 35.5049L111.968 22.9613V42.1044H104.979V11.0734Z" fill="black"/>
<path d="M152.293 42.6289C148.659 42.6289 145.729 41.58 143.502 39.4821C141.275 37.3842 140.102 34.9367 139.985 32.1395H146.975C147.209 33.4215 147.802 34.4195 148.755 35.1334C149.707 35.8472 150.886 36.2042 152.293 36.2042C153.495 36.2042 154.469 35.9565 155.216 35.4611C155.963 34.9658 156.337 34.2957 156.337 33.4507C156.337 31.9647 154.974 30.843 152.249 30.0853L149.216 29.2987C146.608 28.5994 144.557 27.463 143.062 25.8896C141.567 24.3162 140.806 22.3494 140.776 19.9893C140.776 17.1048 141.751 14.8102 143.7 13.1057C145.648 11.4012 148.249 10.5489 151.502 10.5489C154.784 10.5489 157.451 11.5323 159.502 13.4991C161.553 15.4658 162.638 17.7167 162.755 20.2516H155.81C155.487 19.1152 154.93 18.2848 154.139 17.7603C153.348 17.2359 152.469 16.9736 151.502 16.9736C150.418 16.9736 149.538 17.1922 148.864 17.6293C148.19 18.0663 147.839 18.6927 147.81 19.5086C147.78 20.3244 148.081 20.9946 148.711 21.519C149.341 22.0435 150.3 22.4806 151.59 22.8302L155.151 23.748C157.758 24.4473 159.788 25.5982 161.238 27.2008C162.689 28.8034 163.414 30.8138 163.414 33.2322C163.414 35.9128 162.388 38.149 160.337 39.941C158.286 41.7329 155.604 42.6289 152.293 42.6289Z" fill="black"/>
<path fill-rule="evenodd" clip-rule="evenodd" d="M29.3351 19.716H20.0291V10.5498H61.9108V19.716H38.6454V42.6394H29.3351V19.716ZM43.3005 42.6357V24.2991H61.921V33.4653H52.6107V42.6357H43.3005Z" fill="#001D94"/>
</svg>
