<svg width="154" height="51" viewBox="0 0 154 51" fill="none" xmlns="http://www.w3.org/2000/svg">
<path fill-rule="evenodd" clip-rule="evenodd" d="M26.2593 18.972H17.7751V10.5403H55.958V18.972H34.7473V40.0586H26.2593V18.972ZM38.9913 40.0552V23.1879H55.9672V31.6196H47.4792V40.0552H38.9913Z" fill="#00A1FF"/>
<path d="M72.0342 40.066V16.8574H64.4561V10.5354H86.3961V16.8574H78.7335V40.066H72.0342Z" fill="black"/>
<path d="M94.4349 40.5235C91.7272 40.5235 89.4311 39.456 87.547 37.3209C85.663 35.1858 84.7209 32.6348 84.7209 29.6679C84.7209 26.7009 85.663 24.1499 87.547 22.0148C89.4311 19.8797 91.7272 18.8122 94.4349 18.8122C96.8351 18.8122 98.7335 19.6579 100.129 21.3493V19.2697H106.451V40.066H100.129V37.9863C98.7335 39.6778 96.8351 40.5235 94.4349 40.5235ZM92.383 33.3696C93.2762 34.3401 94.4349 34.8253 95.858 34.8253C97.2816 34.8253 98.4334 34.3401 99.3122 33.3696C100.192 32.3991 100.631 31.1652 100.631 29.6679C100.631 28.1705 100.192 26.9366 99.3122 25.9661C98.4334 24.9956 97.2816 24.5104 95.858 24.5104C94.4349 24.5104 93.2831 24.9956 92.4037 25.9661C91.5249 26.9366 91.0852 28.1705 91.0852 29.6679C91.0852 31.1652 91.5174 32.3991 92.383 33.3696Z" fill="black"/>
<path d="M115.387 8.87137H109.064V40.0657H115.387V8.87137Z" fill="black"/>
<path d="M132.109 40.0657L124.321 30.7906V40.0657H117.999V8.87137H124.321V26.7146L130.434 19.2695H137.929L130.225 28.6694L139.771 40.0657H132.109Z" fill="black"/>
</svg>
