<svg width="184" height="54" viewBox="0 0 184 54" fill="none" xmlns="http://www.w3.org/2000/svg">
<path fill-rule="evenodd" clip-rule="evenodd" d="M26.8982 19.9424H18.0017V11.0792H58.04V19.9424H35.7986V42.1079H26.8982V19.9424ZM40.2488 42.1044V24.374H58.0497V33.2371H49.1493V42.1044H40.2488Z" fill="#001D94"/>
<path d="M94.0388 42.1161L87.4093 26.945L80.7797 42.1161H74.1502L66.95 11.0745H74.4136L78.6721 30.7488L87.4093 10.5498L96.1904 30.7488L100.449 11.0745H107.913L100.668 42.1161H94.0388Z" fill="black"/>
<path d="M111.107 11.0746H117.473L127.176 24.4531L136.967 11.0746H143.333V42.1162H136.308V23.0103L127.22 35.5144L118.088 22.9666V42.1162H111.107V11.0746Z" fill="black"/>
<path d="M158.821 42.6409C155.191 42.6409 152.264 41.5916 150.04 39.493C147.815 37.3944 146.645 34.9461 146.528 32.1479H153.509C153.743 33.4304 154.336 34.4287 155.287 35.1428C156.238 35.8569 157.416 36.214 158.821 36.214C160.021 36.214 160.994 35.9662 161.741 35.4707C162.487 34.9752 162.86 34.3048 162.86 33.4595C162.86 31.973 161.499 30.8509 158.777 30.093L155.748 29.3061C153.142 28.6066 151.094 27.4698 149.601 25.8959C148.108 24.3219 147.347 22.3545 147.318 19.9936C147.318 17.108 148.291 14.8127 150.237 13.1076C152.184 11.4025 154.782 10.5499 158.031 10.5499C161.309 10.5499 163.972 11.5336 166.021 13.5011C168.07 15.4685 169.153 17.7201 169.27 20.2559H162.333C162.011 19.1191 161.455 18.2885 160.665 17.7638C159.875 17.2392 158.997 16.9768 158.031 16.9768C156.948 16.9768 156.07 17.1955 155.396 17.6327C154.723 18.0699 154.372 18.6965 154.343 19.5127C154.313 20.3288 154.613 20.9991 155.243 21.5238C155.872 22.0485 156.831 22.4857 158.119 22.8354L161.674 23.7536C164.28 24.4531 166.307 25.6044 167.756 27.2075C169.204 28.8106 169.929 30.8217 169.929 33.241C169.929 35.9225 168.904 38.1595 166.856 39.952C164.807 41.7446 162.128 42.6409 158.821 42.6409Z" fill="black"/>
</svg>
