<svg width="180" height="32" viewBox="0 0 180 32" fill="none" xmlns="http://www.w3.org/2000/svg">
<g clip-path="url(#clip0_329_1140)">
<path d="M124.667 20.4983C124.694 21.3333 125.071 22.1194 125.829 22.7928C126.584 23.4686 127.532 23.7919 128.667 23.7919C130.912 23.7919 132.184 22.6042 132.425 21.064C132.559 19.2274 131.206 18.1745 129.263 17.741L126.856 17.146C123.829 16.3624 122.316 14.7413 122.316 12.2853C122.316 10.745 122.912 9.50107 124.101 8.53137C125.29 7.53229 126.696 7.04744 128.346 7.04744C130.076 7.04744 131.508 7.55922 132.643 8.5583C133.78 9.55738 134.346 10.8552 134.346 12.5008H131.831C131.831 10.6642 130.373 9.44964 128.317 9.44964C127.371 9.44964 126.559 9.72145 125.858 10.2332C125.182 10.745 124.831 11.4209 124.831 12.2559C124.831 13.5513 125.723 14.4181 127.481 14.8491L129.912 15.4441C133.452 16.3355 135.238 18.3606 134.888 21.277C134.724 22.6801 134.074 23.8433 132.969 24.7591C131.858 25.6774 130.427 26.1377 128.67 26.1377C126.804 26.1377 125.263 25.5696 124.02 24.4628C122.777 23.329 122.155 22.0067 122.155 20.4934L124.667 20.4983ZM139.564 25.8684H137.106V6.39853H139.567V15.1503C139.917 14.4475 140.486 13.9088 141.297 13.5586C142.136 13.1791 142.947 12.9905 143.731 12.9905C146.893 12.9905 148.866 15.0425 148.839 18.581V25.8733H146.378V18.7426C146.378 16.6905 145.163 15.3952 143.405 15.3952C142.405 15.3952 141.513 15.6915 140.729 16.3134C139.944 16.9085 139.567 17.8267 139.567 19.0683V25.8708L139.564 25.8684ZM152.548 14.7977C153.817 13.5807 155.386 12.9881 157.251 12.9881C159.117 12.9881 160.685 13.5831 161.955 14.7977C163.225 16.0122 163.874 17.5794 163.874 19.5237C163.874 21.4705 163.225 23.0621 161.925 24.3036C160.656 25.5207 159.087 26.1402 157.249 26.1402C155.411 26.1402 153.842 25.5182 152.572 24.3036C151.303 23.0891 150.653 21.4949 150.653 19.5237C150.656 17.5794 151.278 16.0122 152.548 14.7977ZM160.2 16.5265C159.413 15.7698 158.416 15.3903 157.254 15.3903C156.092 15.3903 155.092 15.7698 154.281 16.5265C153.499 17.2807 153.092 18.2822 153.092 19.5237C153.092 20.7922 153.499 21.8206 154.281 22.6018C155.092 23.3854 156.092 23.7625 157.254 23.7625C158.416 23.7625 159.416 23.3829 160.2 22.6018C161.011 21.8182 161.416 20.7922 161.416 19.5237C161.416 18.2822 161.011 17.2831 160.2 16.5265ZM168.372 13.2574V15.2286C169.21 13.8231 170.967 12.9881 172.779 12.9881C174.536 12.9881 176.048 13.61 177.267 14.8246C178.482 16.0392 179.105 17.6333 179.105 19.6045C179.105 21.5513 178.482 23.116 177.267 24.3306C176.048 25.5476 174.563 26.1402 172.779 26.1402C170.94 26.1402 169.156 25.386 168.372 23.9804V32H165.913V13.2599L168.372 13.2574ZM169.641 22.6556C170.436 23.3682 171.467 23.7527 172.534 23.738C174.884 23.738 176.615 22.09 176.615 19.6315C176.615 18.39 176.208 17.3615 175.426 16.5803C174.644 15.7968 173.695 15.3927 172.534 15.3927C171.372 15.3927 170.399 15.7723 169.587 16.5534C168.806 17.3076 168.399 18.3361 168.399 19.6315C168.399 20.9024 168.803 21.9284 169.641 22.6556Z" fill="black"/>
<path d="M10.7936 11.2666V10.1059C10.4063 10.052 10.0166 10.0227 9.62686 10.0202C4.85466 10.0251 0.986897 13.8916 0.981995 18.6593C0.981995 21.4778 2.35949 24.1175 4.67328 25.7313C4.63406 25.6872 4.5924 25.6431 4.55318 25.599C3.18794 24.071 2.40361 22.0557 2.40361 19.8494C2.3889 15.1846 6.12185 11.3646 10.7936 11.2666Z" fill="#69C4D0"/>
<path d="M10.997 23.8286C13.1318 23.8139 14.8794 22.1292 14.9726 19.9988L14.9824 1.22681L18.3943 1.23171L18.3869 1.19008C18.3134 0.798282 18.2766 0.399143 18.2766 0H13.5779L13.5706 18.8087C13.4921 20.9268 11.7519 22.6042 9.62928 22.6067C8.96995 22.6067 8.34493 22.4426 7.7959 22.1537C8.51406 23.1478 9.67831 23.8286 10.997 23.8286ZM24.8111 7.64983V6.53076C23.4998 6.53076 22.2767 6.14141 21.2522 5.47291C22.164 6.51852 23.4042 7.34864 24.8111 7.64983Z" fill="#69C4D0"/>
<path d="M21.2498 5.47046C20.213 4.28528 19.6419 2.76461 19.6419 1.19008H18.3502C18.6835 2.97765 19.7791 4.51301 21.2498 5.47046ZM9.62688 14.6801C7.43319 14.6973 5.66108 16.4702 5.64392 18.6593C5.64392 20.1751 6.54101 21.4901 7.79594 22.1512C7.31064 21.4827 7.04837 20.6771 7.04837 19.8519C7.05082 17.6725 8.81803 15.9094 10.997 15.9069C11.4014 15.9069 11.7936 15.9755 12.1613 16.0906V11.3009C11.7765 11.247 11.3867 11.2176 10.997 11.2152C10.9284 11.2152 10.8622 11.2201 10.7936 11.2201L10.7617 11.225L10.7593 14.8442C10.3916 14.7291 10.0092 14.6752 9.62688 14.6801Z" fill="#E83658"/>
<path d="M24.8111 7.57637L24.7866 7.57147L24.7768 11.1858C22.4336 11.1834 20.1492 10.4438 18.2496 9.07254L18.2448 18.6642C18.2521 23.4099 14.4064 27.2617 9.65871 27.2691C9.64891 27.2691 9.64155 27.2691 9.63175 27.2691C7.86209 27.2837 6.12919 26.7475 4.67572 25.7386C6.30812 27.4968 8.59986 28.4959 11.0019 28.4959C15.7741 28.491 19.6443 24.6269 19.6492 19.8568V10.3189C21.5537 11.6878 23.8405 12.4224 26.1862 12.4175V7.72085C25.7107 7.72085 25.2523 7.66943 24.8111 7.57637Z" fill="#E83658"/>
<path d="M18.2742 18.6618V9.12152C20.1787 10.4904 22.4655 11.225 24.8112 11.2201V7.57392C23.4288 7.27517 22.1787 6.53811 21.2522 5.47046C19.7522 4.49587 18.7154 2.94827 18.387 1.19008H14.9457L14.9383 19.9988C14.8599 22.1169 13.1196 23.7943 10.997 23.7968C9.72739 23.7943 8.53618 23.1821 7.79596 22.1512C5.86698 21.135 5.12431 18.7499 6.1415 16.8203C6.82289 15.5274 8.16607 14.7169 9.62935 14.712C10.0362 14.712 10.4284 14.7781 10.796 14.8932V11.2152C6.10473 11.3303 2.35953 15.1601 2.35217 19.847C2.35217 22.1169 3.237 24.1861 4.67332 25.7313C6.12434 26.7499 7.85479 27.296 9.62935 27.296C14.404 27.2911 18.2718 23.427 18.2767 18.6569V18.6618H18.2742ZM30.5859 7.19437H44.498L43.221 11.1711L39.6131 11.1687V25.8684H35.1154V11.1687L30.5908 11.176L30.5859 7.19437ZM67.2879 7.19437H81.5236L80.2442 11.1711L76.3225 11.1687V25.8684H71.8175V11.1687L67.2928 11.176L67.2879 7.19437ZM45.3461 13.135H49.807L49.8021 25.8733H45.3731L45.3461 13.135ZM51.5742 7.1405H56.0302V15.8408L60.4446 11.5115H65.7634L60.1774 16.9281L66.4349 25.8733H61.5255L57.3513 19.6706L56.0302 20.9538V25.8757H51.5767L51.5742 7.1405ZM98.7864 7.1405H103.24V15.8408L107.657 11.5115H112.976L107.39 16.9281L113.645 25.8733H108.735L104.561 19.6706L103.24 20.9538V25.8757H98.7864V7.1405ZM47.5741 11.6804C48.8143 11.6804 49.8193 10.6765 49.8193 9.43985C49.8193 8.20079 48.8143 7.19681 47.5765 7.19681H47.5741C46.3339 7.19681 45.3314 8.20079 45.3314 9.43985C45.3314 10.6765 46.3363 11.678 47.5741 11.6804Z" fill="black"/>
<path d="M80.9525 18.2479C80.9525 14.2687 84.0163 10.9581 87.987 10.6471C87.764 10.6299 87.5409 10.6226 87.3179 10.6226C83.1021 10.6226 79.6877 14.0361 79.6877 18.2455C79.6877 22.4573 83.1045 25.8684 87.3179 25.8684C87.5213 25.8684 87.7885 25.8586 87.987 25.8439C84.0163 25.5353 80.9525 22.2247 80.9525 18.2479Z" fill="#69C4D0"/>
<path d="M89.7199 10.6226C89.5164 10.6226 89.2468 10.6348 89.0458 10.6471C93.2469 10.9825 96.3794 14.6556 96.0436 18.8528C95.7446 22.5846 92.7788 25.5451 89.0458 25.8439C89.2444 25.861 89.5164 25.8684 89.7199 25.8684C93.9357 25.8684 97.35 22.4548 97.35 18.2455C97.35 14.0361 93.9332 10.6226 89.7199 10.6226Z" fill="#E83658"/>
<path d="M88.514 10.6226C84.2982 10.6201 80.8814 14.0337 80.879 18.243C80.8765 22.4549 84.2933 25.8684 88.5066 25.8708C88.5091 25.8708 88.5115 25.8708 88.5115 25.8708C92.7274 25.8708 96.1417 22.4573 96.1417 18.2479C96.1466 14.0361 92.7298 10.6226 88.514 10.6226ZM88.514 21.9529C86.4649 21.9529 84.8031 20.2926 84.8031 18.2455C84.8031 16.1983 86.4649 14.5381 88.514 14.5381C90.5631 14.5381 92.2249 16.1983 92.2249 18.2455C92.2249 20.2926 90.5631 21.9529 88.514 21.9529Z" fill="black"/>
</g>
<defs>
<clipPath id="clip0_329_1140">
<rect width="178.123" height="32" fill="white" transform="translate(0.981995)"/>
</clipPath>
</defs>
</svg>
