<svg width="24" height="24" viewBox="0 0 24 24" fill="none" xmlns="http://www.w3.org/2000/svg">
<g clip-path="url(#clip0_2741_30471)">
<path d="M23.9456 10.9688L22.6331 7.6875C22.5218 7.40988 22.3296 7.17209 22.0816 7.00494C21.8335 6.83778 21.541 6.74897 21.2419 6.75H18V6C18 5.80109 17.921 5.61032 17.7803 5.46967C17.6397 5.32902 17.4489 5.25 17.25 5.25H3C2.60218 5.25 2.22064 5.40804 1.93934 5.68934C1.65804 5.97064 1.5 6.35218 1.5 6.75V17.25C1.5 17.6478 1.65804 18.0294 1.93934 18.3107C2.22064 18.592 2.60218 18.75 3 18.75H4.59375C4.75898 19.3953 5.13428 19.9673 5.66048 20.3757C6.18669 20.7842 6.83387 21.0059 7.5 21.0059C8.16613 21.0059 8.81331 20.7842 9.33952 20.3757C9.86572 19.9673 10.241 19.3953 10.4062 18.75H15.0938C15.259 19.3953 15.6343 19.9673 16.1605 20.3757C16.6867 20.7842 17.3339 21.0059 18 21.0059C18.6661 21.0059 19.3133 20.7842 19.8395 20.3757C20.3657 19.9673 20.741 19.3953 20.9062 18.75H22.5C22.8978 18.75 23.2794 18.592 23.5607 18.3107C23.842 18.0294 24 17.6478 24 17.25V11.25C24.0004 11.1536 23.9819 11.0581 23.9456 10.9688ZM18 8.25H21.2419L22.1419 10.5H18V8.25ZM3 6.75H16.5V12.75H3V6.75ZM7.5 19.5C7.20333 19.5 6.91332 19.412 6.66665 19.2472C6.41997 19.0824 6.22771 18.8481 6.11418 18.574C6.00065 18.2999 5.97094 17.9983 6.02882 17.7074C6.0867 17.4164 6.22956 17.1491 6.43934 16.9393C6.64912 16.7296 6.91639 16.5867 7.20736 16.5288C7.49834 16.4709 7.79994 16.5006 8.07403 16.6142C8.34811 16.7277 8.58238 16.92 8.7472 17.1666C8.91203 17.4133 9 17.7033 9 18C9 18.3978 8.84196 18.7794 8.56066 19.0607C8.27936 19.342 7.89782 19.5 7.5 19.5ZM15.0938 17.25H10.4062C10.241 16.6047 9.86572 16.0327 9.33952 15.6243C8.81331 15.2158 8.16613 14.9941 7.5 14.9941C6.83387 14.9941 6.18669 15.2158 5.66048 15.6243C5.13428 16.0327 4.75898 16.6047 4.59375 17.25H3V14.25H16.5V15.4041C16.1551 15.6034 15.8532 15.8692 15.6118 16.186C15.3704 16.5029 15.1943 16.8646 15.0938 17.25ZM18 19.5C17.7033 19.5 17.4133 19.412 17.1666 19.2472C16.92 19.0824 16.7277 18.8481 16.6142 18.574C16.5006 18.2999 16.4709 17.9983 16.5288 17.7074C16.5867 17.4164 16.7296 17.1491 16.9393 16.9393C17.1491 16.7296 17.4164 16.5867 17.7074 16.5288C17.9983 16.4709 18.2999 16.5006 18.574 16.6142C18.8481 16.7277 19.0824 16.92 19.2472 17.1666C19.412 17.4133 19.5 17.7033 19.5 18C19.5 18.3978 19.342 18.7794 19.0607 19.0607C18.7794 19.342 18.3978 19.5 18 19.5ZM22.5 17.25H20.9062C20.739 16.6063 20.363 16.0362 19.8371 15.629C19.3112 15.2218 18.6651 15.0006 18 15V12H22.5V17.25Z" fill="#0325B6"/>
</g>
<defs>
<clipPath id="clip0_2741_30471">
<rect width="24" height="24" fill="white"/>
</clipPath>
</defs>
</svg>
