<svg width="24" height="24" viewBox="0 0 24 24" fill="none" xmlns="http://www.w3.org/2000/svg">
<path d="M21.3983 5.91281L20.9615 5.66063C21.0127 5.38927 21.0127 5.11073 20.9615 4.83938L21.3983 4.58719C21.5706 4.48773 21.6964 4.3239 21.7479 4.13173C21.7994 3.93957 21.7725 3.73481 21.673 3.5625C21.5736 3.39019 21.4097 3.26445 21.2176 3.21294C21.0254 3.16142 20.8206 3.18836 20.6483 3.28781L20.2105 3.54094C20.001 3.36114 19.7601 3.22161 19.4999 3.12938V2.625C19.4999 2.42609 19.4209 2.23532 19.2802 2.09467C19.1396 1.95402 18.9488 1.875 18.7499 1.875C18.551 1.875 18.3602 1.95402 18.2196 2.09467C18.0789 2.23532 17.9999 2.42609 17.9999 2.625V3.12938C17.7397 3.22161 17.4988 3.36114 17.2893 3.54094L16.8515 3.28781C16.7661 3.23857 16.672 3.20661 16.5743 3.19376C16.4766 3.18091 16.3774 3.18743 16.2822 3.21294C16.1871 3.23844 16.0979 3.28244 16.0197 3.34242C15.9416 3.4024 15.876 3.47718 15.8268 3.5625C15.7775 3.64782 15.7456 3.742 15.7327 3.83967C15.7199 3.93734 15.7264 4.03658 15.7519 4.13173C15.7774 4.22688 15.8214 4.31608 15.8814 4.39423C15.9414 4.47237 16.0161 4.53794 16.1015 4.58719L16.5383 4.83938C16.4871 5.11073 16.4871 5.38927 16.5383 5.66063L16.1015 5.91281C15.9584 5.99533 15.8466 6.12275 15.7833 6.27532C15.7201 6.42789 15.709 6.59706 15.7517 6.75659C15.7945 6.91612 15.8887 7.05708 16.0197 7.1576C16.1508 7.25811 16.3113 7.31256 16.4765 7.3125C16.6082 7.313 16.7376 7.27837 16.8515 7.21219L17.2893 6.95906C17.4988 7.13886 17.7397 7.27839 17.9999 7.37063V7.875C17.9999 8.07391 18.0789 8.26468 18.2196 8.40533C18.3602 8.54598 18.551 8.625 18.7499 8.625C18.9488 8.625 19.1396 8.54598 19.2802 8.40533C19.4209 8.26468 19.4999 8.07391 19.4999 7.875V7.37063C19.7601 7.27839 20.001 7.13886 20.2105 6.95906L20.6483 7.21219C20.7622 7.27837 20.8916 7.313 21.0233 7.3125C21.1885 7.31256 21.3491 7.25811 21.4801 7.1576C21.6111 7.05708 21.7053 6.91612 21.7481 6.75659C21.7908 6.59706 21.7797 6.42789 21.7165 6.27532C21.6532 6.12275 21.5414 5.99533 21.3983 5.91281ZM17.9999 5.25C17.9999 5.10166 18.0439 4.95666 18.1263 4.83332C18.2087 4.70999 18.3258 4.61386 18.4629 4.55709C18.5999 4.50032 18.7507 4.48547 18.8962 4.51441C19.0417 4.54335 19.1753 4.61478 19.2802 4.71967C19.3851 4.82456 19.4566 4.9582 19.4855 5.10368C19.5144 5.24917 19.4996 5.39997 19.4428 5.53701C19.386 5.67406 19.2899 5.79119 19.1666 5.8736C19.0432 5.95601 18.8982 6 18.7499 6C18.551 6 18.3602 5.92098 18.2196 5.78033C18.0789 5.63968 17.9999 5.44891 17.9999 5.25ZM20.7515 9.76031C20.5553 9.79314 20.3802 9.90255 20.2647 10.0645C20.1492 10.2264 20.1027 10.4276 20.1355 10.6238C20.2116 11.0786 20.2499 11.5389 20.2499 12C20.2517 14.0196 19.5094 15.969 18.1649 17.4759C17.3284 16.2638 16.1523 15.3261 14.7843 14.7806C15.5191 14.2019 16.0553 13.4085 16.3183 12.5108C16.5814 11.6132 16.5581 10.6559 16.2519 9.77207C15.9456 8.88825 15.3715 8.12183 14.6095 7.5794C13.8474 7.03696 12.9353 6.74548 11.9999 6.74548C11.0645 6.74548 10.1524 7.03696 9.39034 7.5794C8.62829 8.12183 8.05422 8.88825 7.74795 9.77207C7.44169 10.6559 7.41845 11.6132 7.68147 12.5108C7.94449 13.4085 8.4807 14.2019 9.21553 14.7806C7.84754 15.3261 6.67137 16.2638 5.8349 17.4759C4.77995 16.2872 4.09084 14.8189 3.85044 13.2479C3.61004 11.6768 3.82858 10.0697 4.47978 8.61981C5.13098 7.16996 6.18712 5.93908 7.5212 5.07516C8.85529 4.21125 10.4105 3.75108 11.9999 3.75C12.461 3.75003 12.9214 3.78829 13.3762 3.86438C13.5714 3.89519 13.771 3.84764 13.9314 3.73208C14.0918 3.61652 14.2001 3.44229 14.2328 3.2473C14.2654 3.0523 14.2197 2.85231 14.1056 2.69082C13.9916 2.52934 13.8183 2.41943 13.6237 2.385C11.5869 2.04236 9.49391 2.35588 7.64693 3.28029C5.79996 4.2047 4.29456 5.69217 3.34808 7.52793C2.40159 9.3637 2.06302 11.4528 2.38122 13.4935C2.69943 15.5342 3.65796 17.421 5.11842 18.8815C6.57887 20.3419 8.46567 21.3005 10.5064 21.6187C12.5471 21.9369 14.6362 21.5983 16.472 20.6518C18.3077 19.7053 19.7952 18.1999 20.7196 16.353C21.644 14.506 21.9575 12.413 21.6149 10.3763C21.5821 10.1801 21.4727 10.005 21.3107 9.88947C21.1488 9.77396 20.9476 9.7275 20.7515 9.76031ZM8.9999 11.25C8.9999 10.6567 9.17585 10.0766 9.50549 9.58329C9.83514 9.08994 10.3037 8.70542 10.8519 8.47836C11.4 8.2513 12.0032 8.19189 12.5852 8.30764C13.1671 8.4234 13.7017 8.70912 14.1212 9.12868C14.5408 9.54824 14.8265 10.0828 14.9423 10.6647C15.058 11.2467 14.9986 11.8499 14.7715 12.3981C14.5445 12.9462 14.16 13.4148 13.6666 13.7444C13.1733 14.0741 12.5932 14.25 11.9999 14.25C11.2043 14.25 10.4412 13.9339 9.87858 13.3713C9.31597 12.8087 8.9999 12.0457 8.9999 11.25ZM6.9449 18.5156C7.48747 17.6671 8.23491 16.9688 9.11833 16.4851C10.0017 16.0013 10.9927 15.7478 11.9999 15.7478C13.0071 15.7478 13.9981 16.0013 14.8815 16.4851C15.7649 16.9688 16.5123 17.6671 17.0549 18.5156C15.6096 19.6397 13.8309 20.2499 11.9999 20.2499C10.1689 20.2499 8.39021 19.6397 6.9449 18.5156Z" fill="#0325B6"/>
</svg>
