<svg width="16" height="17" viewBox="0 0 16 17" fill="none" xmlns="http://www.w3.org/2000/svg">
<path d="M8 2C6.71442 2 5.45772 2.38122 4.3888 3.09545C3.31988 3.80968 2.48676 4.82484 1.99479 6.01256C1.50282 7.20028 1.37409 8.50721 1.6249 9.76809C1.8757 11.029 2.49477 12.1872 3.40381 13.0962C4.31285 14.0052 5.47104 14.6243 6.73192 14.8751C7.99279 15.1259 9.29973 14.9972 10.4874 14.5052C11.6752 14.0132 12.6903 13.1801 13.4046 12.1112C14.1188 11.0423 14.5 9.78558 14.5 8.5C14.4982 6.77665 13.8128 5.12441 12.5942 3.90582C11.3756 2.68722 9.72335 2.00182 8 2ZM8 14C6.91221 14 5.84884 13.6774 4.94437 13.0731C4.0399 12.4687 3.33495 11.6098 2.91867 10.6048C2.50238 9.59977 2.39347 8.4939 2.60568 7.427C2.8179 6.36011 3.34173 5.3801 4.11092 4.61091C4.8801 3.84172 5.86011 3.3179 6.92701 3.10568C7.9939 2.89346 9.09977 3.00238 10.1048 3.41866C11.1098 3.83494 11.9687 4.53989 12.5731 5.44436C13.1774 6.34883 13.5 7.4122 13.5 8.5C13.4983 9.95818 12.9184 11.3562 11.8873 12.3873C10.8562 13.4184 9.45819 13.9983 8 14ZM7.5 9V5.5C7.5 5.36739 7.55268 5.24021 7.64645 5.14645C7.74022 5.05268 7.86739 5 8 5C8.13261 5 8.25979 5.05268 8.35356 5.14645C8.44732 5.24021 8.5 5.36739 8.5 5.5V9C8.5 9.13261 8.44732 9.25979 8.35356 9.35355C8.25979 9.44732 8.13261 9.5 8 9.5C7.86739 9.5 7.74022 9.44732 7.64645 9.35355C7.55268 9.25979 7.5 9.13261 7.5 9ZM8.75 11.25C8.75 11.3983 8.70602 11.5433 8.6236 11.6667C8.54119 11.79 8.42406 11.8861 8.28701 11.9429C8.14997 11.9997 7.99917 12.0145 7.85368 11.9856C7.7082 11.9566 7.57456 11.8852 7.46967 11.7803C7.36478 11.6754 7.29335 11.5418 7.26441 11.3963C7.23548 11.2508 7.25033 11.1 7.30709 10.963C7.36386 10.8259 7.45999 10.7088 7.58333 10.6264C7.70666 10.544 7.85167 10.5 8 10.5C8.19892 10.5 8.38968 10.579 8.53033 10.7197C8.67098 10.8603 8.75 11.0511 8.75 11.25Z" fill="#FF3106"/>
</svg>
