<svg width="260" height="200" viewBox="0 0 260 200" fill="none" xmlns="http://www.w3.org/2000/svg">
<path d="M156.26 29.4963L151.76 20.4962C151.62 20.2156 151.405 19.9796 151.138 19.8147C150.871 19.6497 150.564 19.5624 150.25 19.5625H109.75C109.436 19.5624 109.129 19.6497 108.862 19.8147C108.595 19.9796 108.38 20.2156 108.24 20.4962L103.74 29.4963C103.624 29.7307 103.563 29.9885 103.562 30.25V68.5C103.562 69.5443 103.977 70.5458 104.716 71.2842C105.454 72.0227 106.456 72.4375 107.5 72.4375H152.5C153.544 72.4375 154.546 72.0227 155.284 71.2842C156.023 70.5458 156.438 69.5443 156.438 68.5V30.25C156.437 29.9885 156.376 29.7307 156.26 29.4963ZM110.793 22.9375H149.207L152.019 28.5625H107.981L110.793 22.9375ZM152.5 69.0625H107.5C107.351 69.0625 107.208 69.0032 107.102 68.8977C106.997 68.7923 106.938 68.6492 106.938 68.5V31.9375H153.062V68.5C153.062 68.6492 153.003 68.7923 152.898 68.8977C152.792 69.0032 152.649 69.0625 152.5 69.0625ZM140.193 51.5575C140.509 51.8739 140.686 52.3028 140.686 52.75C140.686 53.1972 140.509 53.6261 140.193 53.9425L131.193 62.9425C130.876 63.2585 130.447 63.436 130 63.436C129.553 63.436 129.124 63.2585 128.808 62.9425L119.808 53.9425C119.509 53.6226 119.347 53.1995 119.355 52.7623C119.363 52.3251 119.54 51.908 119.849 51.5989C120.158 51.2897 120.575 51.1126 121.012 51.1049C121.45 51.0971 121.873 51.2594 122.192 51.5575L128.312 57.6747V39.25C128.312 38.8024 128.49 38.3732 128.807 38.0568C129.123 37.7403 129.552 37.5625 130 37.5625C130.448 37.5625 130.877 37.7403 131.193 38.0568C131.51 38.3732 131.688 38.8024 131.688 39.25V57.6747L137.807 51.5575C138.124 51.2415 138.553 51.064 139 51.064C139.447 51.064 139.876 51.2415 140.193 51.5575Z" fill="#051A7C" fill-opacity="0.45"/>
<path opacity="0.2" d="M179.125 100.375V174.75C179.125 175.91 178.664 177.023 177.844 177.844C177.023 178.664 175.91 179.125 174.75 179.125H87.25C86.0897 179.125 84.9769 178.664 84.1564 177.844C83.3359 177.023 82.875 175.91 82.875 174.75V100.375H179.125Z" fill="#0325B6"/>
<path d="M180.083 97.3961L171.333 79.8961C171.151 79.5327 170.871 79.2271 170.526 79.0136C170.18 78.8001 169.781 78.6872 169.375 78.6875H90.625C90.2186 78.6872 89.8202 78.8001 89.4744 79.0136C89.1286 79.2271 88.8491 79.5327 88.6672 79.8961L79.9172 97.3961C79.7657 97.7001 79.687 98.0353 79.6875 98.375V172.75C79.6875 174.49 80.3789 176.16 81.6096 177.39C82.8403 178.621 84.5095 179.312 86.25 179.312H173.75C175.49 179.312 177.16 178.621 178.39 177.39C179.621 176.16 180.313 174.49 180.313 172.75V98.375C180.313 98.0353 180.234 97.7001 180.083 97.3961ZM91.9758 83.0625H168.024L174.587 96.1875H85.4133L91.9758 83.0625ZM173.75 174.938H86.25C85.6698 174.938 85.1134 174.707 84.7032 174.297C84.293 173.887 84.0625 173.33 84.0625 172.75V100.562H175.938V172.75C175.938 173.33 175.707 173.887 175.297 174.297C174.887 174.707 174.33 174.938 173.75 174.938ZM149.048 131.827C149.458 132.238 149.689 132.795 149.689 133.375C149.689 133.955 149.458 134.512 149.048 134.923C148.637 135.333 148.08 135.564 147.5 135.564C146.92 135.564 146.363 135.333 145.952 134.923L132.188 121.158V159.625C132.188 160.205 131.957 160.762 131.547 161.172C131.137 161.582 130.58 161.812 130 161.812C129.42 161.812 128.863 161.582 128.453 161.172C128.043 160.762 127.813 160.205 127.813 159.625V121.158L114.048 134.923C113.637 135.333 113.08 135.564 112.5 135.564C111.92 135.564 111.363 135.333 110.952 134.923C110.542 134.512 110.311 133.955 110.311 133.375C110.311 132.795 110.542 132.238 110.952 131.827L128.452 114.327C128.656 114.124 128.897 113.963 129.162 113.853C129.428 113.742 129.713 113.686 130 113.686C130.287 113.686 130.572 113.742 130.838 113.853C131.103 113.963 131.345 114.124 131.548 114.327L149.048 131.827Z" fill="#0325B6"/>
<path d="M60.8379 133.995C61.1539 134.311 61.3314 134.74 61.3314 135.188C61.3314 135.635 61.1539 136.064 60.8379 136.38L51.8379 145.38C51.5215 145.696 51.0926 145.874 50.6454 145.874C50.1982 145.874 49.7693 145.696 49.4529 145.38L40.4529 136.38C40.1548 136.06 39.9925 135.637 40.0003 135.2C40.008 134.763 40.1851 134.346 40.4943 134.036C40.8034 133.727 41.2206 133.55 41.6577 133.542C42.0949 133.535 42.518 133.697 42.8379 133.995L48.9579 140.112V121.688C48.9579 121.24 49.1357 120.811 49.4522 120.494C49.7686 120.178 50.1979 120 50.6454 120C51.093 120 51.5222 120.178 51.8387 120.494C52.1551 120.811 52.3329 121.24 52.3329 121.688V140.112L58.4529 133.995C58.7693 133.679 59.1982 133.501 59.6454 133.501C60.0926 133.501 60.5215 133.679 60.8379 133.995Z" fill="#051A7C" fill-opacity="0.45"/>
<path d="M218.838 66.125C219.154 66.4414 219.331 66.8703 219.331 67.3175C219.331 67.7647 219.154 68.1936 218.838 68.51L209.838 77.51C209.522 77.826 209.093 78.0035 208.645 78.0035C208.198 78.0035 207.769 77.826 207.453 77.51L198.453 68.51C198.155 68.1901 197.993 67.767 198 67.3298C198.008 66.8927 198.185 66.4755 198.494 66.1664C198.803 65.8572 199.221 65.6801 199.658 65.6724C200.095 65.6646 200.518 65.8269 200.838 66.125L206.958 72.2422V53.8175C206.958 53.37 207.136 52.9407 207.452 52.6243C207.769 52.3078 208.198 52.13 208.645 52.13C209.093 52.13 209.522 52.3078 209.839 52.6243C210.155 52.9407 210.333 53.37 210.333 53.8175V72.2422L216.453 66.125C216.769 65.809 217.198 65.6315 217.645 65.6315C218.093 65.6315 218.522 65.809 218.838 66.125Z" fill="#051A7C" fill-opacity="0.45"/>
</svg>
