<svg width="24" height="24" viewBox="0 0 24 24" fill="none" xmlns="http://www.w3.org/2000/svg">
<g clip-path="url(#clip0_2918_2890)">
<path d="M12 24C18.6274 24 24 18.6274 24 12C24 5.37258 18.6274 0 12 0C5.37258 0 0 5.37258 0 12C0 18.6274 5.37258 24 12 24Z" fill="#D80027"/>
<path d="M6.56719 7.30322L7.60312 10.4907H10.9547L8.24531 12.4642L9.28125 15.6517L6.56719 13.6829L3.85313 15.6517L4.89375 12.4642L2.17969 10.4907H5.53125L6.56719 7.30322Z" fill="#FFDA44"/>
<path d="M14.2265 18.586L13.4343 17.611L12.2624 18.0657L12.9421 17.011L12.1499 16.0313L13.364 16.3547L14.0483 15.3L14.114 16.5563L15.3327 16.8797L14.1562 17.3297L14.2265 18.586Z" fill="#FFDA44"/>
<path d="M15.8015 15.7266L16.1765 14.5266L15.1499 13.8L16.4062 13.7813L16.7765 12.5813L17.1843 13.7719L18.4405 13.7579L17.4327 14.5079L17.8358 15.6985L16.8093 14.9719L15.8015 15.7266Z" fill="#FFDA44"/>
<path d="M17.9251 8.80796L17.372 9.93765L18.272 10.8142L17.0298 10.6361L16.4767 11.7611L16.261 10.5236L15.0142 10.3455L16.1298 9.75952L15.9142 8.51733L16.8142 9.3939L17.9251 8.80796Z" fill="#FFDA44"/>
<path d="M14.2592 5.38599L14.1654 6.63755L15.3326 7.11099L14.1092 7.41099L14.0201 8.66724L13.3592 7.59849L12.1357 7.89849L12.9467 6.93755L12.2811 5.87349L13.4482 6.34692L14.2592 5.38599Z" fill="#FFDA44"/>
</g>
<defs>
<clipPath id="clip0_2918_2890">
<rect width="24" height="24" fill="white"/>
</clipPath>
</defs>
</svg>
