<svg width="108" height="32" viewBox="0 0 108 32" fill="none" xmlns="http://www.w3.org/2000/svg">
<path d="M22.9179 3.05932C24.7691 -1.06786 30.4266 -0.970567 32.0402 3.10012C32.8796 1.42414 34.1744 0.36959 36.0678 0.0714285C39.1129 -0.408768 41.6668 1.64698 41.7318 4.76041C41.8002 8.172 41.7514 11.5867 41.7514 15.0015C41.7514 16.0089 41.7546 17.0196 41.7514 18.0302C41.7481 18.8211 41.5659 18.9874 40.7396 18.9937C39.8026 19 38.8657 18.9749 37.9287 19C37.226 19.0188 36.9722 18.7269 36.9755 18.049C36.995 14.3706 36.9853 10.6923 36.982 7.01388C36.982 6.75025 36.956 6.48661 36.9202 6.22297C36.751 4.99894 36.2533 4.49049 35.1374 4.38065C34.067 4.27394 33.0683 4.89537 32.7364 5.90912C32.4566 6.76594 32.4404 7.65728 32.4404 8.54863V17.8513C32.4404 18.8933 32.3428 18.9843 31.2432 18.9843C30.355 18.9843 29.4668 18.9654 28.5787 18.9906C27.9183 19.0062 27.645 18.7395 27.6482 18.0898C27.6645 14.8697 27.6613 11.6464 27.671 8.42623C27.671 7.53488 27.6938 6.64353 27.4303 5.78044C27.1375 4.8326 26.5714 4.38378 25.6409 4.32729C24.7138 4.2708 23.9557 4.71019 23.5718 5.55132C23.2237 6.31085 23.1391 7.13315 23.1359 7.94603C23.1164 11.2886 23.1196 14.628 23.1131 17.9705C23.1131 18.843 22.9765 18.978 22.0916 18.9811C21.1286 18.9843 20.1689 18.9749 19.2059 18.9811C18.6235 18.9874 18.3438 18.7395 18.3438 18.162C18.347 12.5126 18.3503 6.86323 18.3438 1.21386C18.3438 0.595565 18.6268 0.350759 19.2482 0.366451C20.1591 0.388421 21.0733 0.394698 21.9875 0.366451C22.6512 0.34762 22.944 0.620673 22.9277 1.26094C22.9147 1.80076 22.9277 2.34373 22.9277 3.04677V3.05304L22.9179 3.05932Z" fill="black"/>
<path d="M58.6264 9.17935C58.6264 10.19 58.6524 11.2037 58.6199 12.2175C58.5809 13.3756 58.9192 14.3862 59.6545 15.2964C60.3019 16.0998 60.2596 16.2285 59.4528 16.9033C58.7761 17.4714 58.0994 18.0395 57.4292 18.6138C57.0128 18.9716 56.6321 18.9685 56.2157 18.5981C55.7147 18.1493 55.23 17.6848 54.8916 17.1136C54.6313 16.6742 54.4459 16.6365 54.0685 17.0163C52.7249 18.3659 51.0755 18.9653 49.13 18.9998C45.8181 19.0595 43.5083 17.0037 43.8336 13.1935C44.0873 10.259 46.0296 8.44807 49.4228 7.77642C50.5842 7.54731 51.7554 7.39038 52.9364 7.32761C53.5805 7.29308 54.0165 7.14243 53.844 6.38604C53.8148 6.25109 53.844 6.10358 53.8375 5.96234C53.7692 4.53117 53.1055 3.70573 51.8986 3.54566C50.4638 3.35421 49.2146 4.10119 48.8274 5.43193C48.6648 5.98431 48.3882 6.20715 47.7831 6.11927C46.8754 5.99059 45.9613 5.92154 45.0471 5.83366C44.455 5.77403 44.2728 5.46645 44.3997 4.90779C44.8909 2.77672 46.2248 1.3581 48.3004 0.623681C50.324 -0.0950453 52.4061 -0.198617 54.4947 0.344351C57.3186 1.08191 58.5646 2.71081 58.6167 5.7144C58.6362 6.86938 58.6167 8.02122 58.6167 9.17621L58.6264 9.17935ZM53.844 11.1315C53.844 11.0625 53.818 10.802 53.8505 10.5478C53.9156 10.033 53.7529 9.81961 53.1836 9.88866C52.4191 9.97968 51.6513 10.0362 50.9193 10.2967C49.2243 10.8961 48.4143 12.456 48.9218 14.1414C49.3187 15.4502 50.5614 15.9931 51.8302 15.4125C52.4191 15.1426 52.8355 14.7032 53.1673 14.1696C53.7139 13.2908 53.8017 12.3148 53.844 11.1347V11.1315Z" fill="black"/>
<path d="M14.8398 9.1667C14.8398 10.1993 14.8724 11.235 14.8301 12.2676C14.7845 13.4037 15.1294 14.3798 15.8386 15.2712C16.4925 16.0966 16.46 16.2159 15.6727 16.875C15.0155 17.4273 14.3518 17.9703 13.7109 18.5415C13.2262 18.9746 12.8032 18.9684 12.3348 18.5133C11.9053 18.099 11.4499 17.7035 11.1571 17.1888C10.8643 16.6709 10.6593 16.6145 10.1973 17.0695C8.33644 18.9213 6.02984 19.323 3.53455 18.7675C1.8168 18.3877 0.743207 17.2484 0.271477 15.607C-0.714278 12.1703 1.04577 9.08196 4.55609 8.06507C6.06563 7.62881 7.62071 7.44678 9.1823 7.34634C9.84923 7.30554 10.1225 7.12351 10.0835 6.39223C9.99889 4.70683 9.58897 3.95672 8.37874 3.63659C6.96029 3.25996 5.45075 4.03204 5.06036 5.39731C4.88142 6.02502 4.57561 6.23216 3.9217 6.13487C3.06607 6.00619 2.20069 5.94655 1.33531 5.86809C0.713927 5.8116 0.508968 5.5103 0.645608 4.91397C1.0783 3.04654 2.1584 1.66872 3.94447 0.890363C6.44952 -0.201849 9.03591 -0.292867 11.6093 0.645557C13.8541 1.46158 14.7845 3.18777 14.8236 5.43183C14.8463 6.67469 14.8268 7.9207 14.8268 9.1667H14.8398ZM10.0574 11.1377C10.0574 10.9023 10.0282 10.6638 10.064 10.4347C10.1355 9.97958 9.93382 9.86659 9.50438 9.90112C8.56743 9.9733 7.63373 10.0612 6.76835 10.4566C5.19699 11.1754 4.52681 13.1432 5.34339 14.6403C5.61993 15.1425 6.03635 15.4626 6.61869 15.5819C7.64023 15.789 8.67479 15.29 9.33521 14.2511C9.94033 13.2939 10.0509 12.2299 10.0574 11.1408V11.1377Z" fill="black"/>
<path d="M99.091 3.18799C99.2114 2.94319 99.3318 2.69524 99.4586 2.45671C100.461 0.545339 102.104 -0.280097 104.173 0.0871124C106.19 0.444906 107.429 1.77565 107.787 3.94438C107.937 4.84828 107.979 5.75846 107.979 6.67177C107.986 10.4192 107.979 14.1666 107.979 17.9109C107.979 18.8744 107.868 18.9937 106.961 18.9937C106.138 18.9937 105.315 18.9968 104.492 18.9937C103.698 18.9905 103.548 18.8273 103.548 17.9705C103.548 14.6311 103.548 11.2948 103.548 7.95544C103.548 7.30576 103.535 6.65922 103.392 6.0221C103.164 5.01776 102.644 4.45282 101.83 4.34611C101.007 4.2394 100.158 4.72588 99.7579 5.57642C99.2992 6.54623 99.1821 7.5945 99.1821 8.65847C99.1723 11.7311 99.1821 14.8069 99.1789 17.8795C99.1789 18.8807 99.0682 18.9905 98.1118 18.9937C97.2659 18.9937 96.42 18.9811 95.5742 18.9968C94.9983 19.0062 94.7413 18.7489 94.7413 18.1337C94.7478 12.5157 94.7511 6.89461 94.7413 1.27348C94.7413 0.670881 94.9626 0.378997 95.5482 0.385274C96.4168 0.39469 97.2854 0.39469 98.1541 0.385274C98.6909 0.378997 98.9609 0.611249 98.9381 1.20443C98.9153 1.85097 98.9316 2.49751 98.9316 3.14091C98.9837 3.15661 99.039 3.16916 99.0943 3.18171L99.091 3.18799Z" fill="black"/>
<path d="M90.6616 9.91067C90.6324 12.1359 90.1118 14.6028 88.4168 16.6271C85.4758 20.136 80.186 19.7061 77.9997 15.6291C75.8656 11.6494 75.8981 7.46574 77.9151 3.42644C79.1059 1.04742 81.1587 -0.0573437 83.6898 0.00228862C86.2469 0.0619209 88.1501 1.34872 89.3863 3.7246C90.32 5.51985 90.6356 7.47516 90.6649 9.91067H90.6616ZM86.0322 9.61564C85.9931 8.05579 85.9736 6.54929 85.5377 5.093C85.2644 4.17655 84.7146 3.60533 83.7841 3.52373C82.8439 3.43899 82.1379 3.88153 81.7053 4.82623C81.5003 5.2719 81.3637 5.74268 81.2953 6.23543C81.0286 8.15622 81.0709 10.0801 81.253 12.0072C81.3246 12.7573 81.4808 13.4949 81.8061 14.1728C82.1445 14.8821 82.6259 15.3843 83.436 15.4188C84.3047 15.4533 84.926 15.0485 85.3294 14.2544C85.4856 13.9468 85.5995 13.611 85.6906 13.2752C86.0289 12.0637 85.9931 10.8114 86.0289 9.61878L86.0322 9.61564Z" fill="black"/>
<path d="M42.1678 31.9966C31.9101 31.6796 22.7032 28.1613 14.8139 21.2502C14.6513 21.109 14.4951 20.9552 14.365 20.7857C14.2479 20.6257 14.2218 20.4311 14.3389 20.2428C14.4723 20.0293 14.6805 19.9572 14.8985 20.0262C15.1458 20.1078 15.3833 20.2365 15.611 20.3652C24.4665 25.3052 33.9662 27.791 44.0905 27.7564C51.3747 27.7313 58.4018 26.2845 65.1525 23.5382C65.4192 23.4284 65.6795 23.2903 65.956 23.2181C66.4343 23.0957 66.8832 23.1647 67.1337 23.6512C67.3842 24.1346 67.1272 24.4923 66.7596 24.7717C65.455 25.7635 64.0593 26.6171 62.5986 27.3547C56.2351 30.578 49.465 32.0217 42.1613 31.9997L42.1678 31.9966Z" fill="#F5AC3B"/>
<path d="M67.5405 4.75079C66.2912 4.75079 65.1786 4.75706 64.066 4.75079C61.2909 4.73509 61.7106 5.09289 61.678 2.12383C61.678 2.02967 61.6813 1.93551 61.678 1.83822C61.6553 1.27956 61.883 1.00023 62.4133 1.00337C65.6959 1.00964 68.9817 1.00964 72.2643 1.00337C72.7523 1.00337 72.9703 1.21993 73.0061 1.75976C73.1004 3.19407 72.8922 4.46518 72.0333 5.68293C70.4522 7.92385 69.024 10.2966 67.534 12.6128C67.3974 12.8231 67.2705 13.0397 67.0883 13.3378C67.9895 13.4351 68.8191 13.501 69.6487 13.6203C70.6735 13.7678 71.6429 14.1382 72.5701 14.6403C73.0972 14.9259 73.3607 15.3528 73.3477 15.9993C73.3314 16.7369 73.3607 17.4744 73.3379 18.2089C73.3151 18.9087 72.9638 19.141 72.3879 18.846C68.9199 17.0853 65.4649 17.0915 62.0099 18.8868C61.4959 19.1536 61.1543 18.9276 61.138 18.2999C61.1185 17.3489 61.1217 16.3979 61.1347 15.4469C61.1445 14.8318 61.408 14.3108 61.7268 13.8149C63.5585 10.9745 65.3836 8.12472 67.2087 5.2812C67.2933 5.14938 67.3746 5.01442 67.5405 4.74765V4.75079Z" fill="black"/>
<path d="M66.3108 21.3506C64.7135 21.3663 63.3406 21.5515 61.9612 21.6676C61.6618 21.6927 61.2617 21.8716 61.1413 21.4385C61.0372 21.0682 61.3821 20.883 61.6456 20.7072C62.9014 19.8724 64.3068 19.4298 65.7838 19.1945C67.5048 18.9214 69.2291 18.9151 70.937 19.3074C72.1375 19.5836 72.3848 19.8535 72.3165 21.087C72.144 24.169 71.0997 26.9153 68.9883 29.2221C68.8224 29.4041 68.637 29.5705 68.445 29.7211C68.214 29.9 67.957 30.1385 67.6577 29.8937C67.3974 29.6803 67.5569 29.3979 67.6545 29.1499C68.3376 27.3892 69.0599 25.6442 69.408 23.7767C69.4438 23.5853 69.4763 23.3907 69.4893 23.1961C69.5641 22.0129 69.2941 21.6927 68.0937 21.473C67.43 21.3506 66.7663 21.3569 66.3141 21.3538L66.3108 21.3506Z" fill="#F5AC3B"/>
</svg>
