<svg width="260" height="200" viewBox="0 0 260 200" fill="none" xmlns="http://www.w3.org/2000/svg">
<path opacity="0.2" d="M54.1547 149.922L61.0781 156.845C61.8985 157.665 63.0108 158.126 64.1707 158.126C65.3305 158.126 66.4429 157.665 67.2633 156.845L95.3234 128.785C95.8273 128.28 96.4471 127.906 97.1287 127.695C97.8103 127.484 98.5331 127.444 99.2341 127.576C99.9351 127.709 100.593 128.011 101.151 128.456C101.708 128.901 102.148 129.476 102.433 130.13L112.178 155.511C112.54 156.308 113.133 156.979 113.881 157.435C114.628 157.892 115.496 158.113 116.37 158.072C117.245 158.03 118.087 157.726 118.788 157.201C119.488 156.675 120.015 155.951 120.299 155.123L148.901 67.5844C149.135 66.8242 149.157 66.0146 148.966 65.2427C148.774 64.4708 148.375 63.7657 147.813 63.2033C147.251 62.6409 146.546 62.2424 145.774 62.0508C145.002 61.8591 144.192 61.8815 143.432 62.1156L55.8773 90.6844C55.049 90.9688 54.3251 91.4954 53.7994 92.1958C53.2736 92.8963 52.9702 93.7384 52.9284 94.6132C52.8866 95.488 53.1083 96.3552 53.5648 97.1026C54.0213 97.85 54.6916 98.4432 55.489 98.8054L80.8695 108.551C81.5238 108.835 82.0985 109.275 82.5437 109.833C82.9889 110.39 83.291 111.048 83.4236 111.749C83.5563 112.45 83.5155 113.173 83.3048 113.855C83.0941 114.536 82.7199 115.156 82.2148 115.66L54.1547 143.72C53.7462 144.127 53.4222 144.61 53.201 145.142C52.9799 145.674 52.866 146.245 52.866 146.821C52.866 147.397 52.9799 147.968 53.201 148.5C53.4222 149.032 53.7462 149.515 54.1547 149.922Z" fill="#0325B6"/>
<path d="M119.687 53.1251V48.7501C119.687 48.1699 119.457 47.6135 119.047 47.2033C118.637 46.793 118.08 46.5626 117.5 46.5626C116.92 46.5626 116.363 46.793 115.953 47.2033C115.543 47.6135 115.312 48.1699 115.312 48.7501V53.1251C115.312 53.7052 115.543 54.2616 115.953 54.6719C116.363 55.0821 116.92 55.3126 117.5 55.3126C118.08 55.3126 118.637 55.0821 119.047 54.6719C119.457 54.2616 119.687 53.7052 119.687 53.1251ZM161.25 94.6876H156.875C156.295 94.6876 155.738 94.4571 155.328 94.0469C154.918 93.6366 154.687 93.0802 154.687 92.5001C154.687 91.9199 154.918 91.3635 155.328 90.9533C155.738 90.543 156.295 90.3126 156.875 90.3126H161.25C161.83 90.3126 162.387 90.543 162.797 90.9533C163.207 91.3635 163.437 91.9199 163.437 92.5001C163.437 93.0802 163.207 93.6366 162.797 94.0469C162.387 94.4571 161.83 94.6876 161.25 94.6876ZM100.979 59.4579C100.722 59.5866 100.442 59.6634 100.155 59.6839C99.8683 59.7044 99.5803 59.6681 99.3076 59.5772C99.0348 59.4863 98.7827 59.3425 98.5655 59.154C98.3484 58.9656 98.1705 58.7362 98.0421 58.479L93.6671 49.729C93.4075 49.2097 93.3648 48.6086 93.5484 48.0579C93.7319 47.5071 94.1268 47.0519 94.646 46.7922C95.1653 46.5326 95.7664 46.4899 96.3171 46.6735C96.8679 46.8571 97.3231 47.2519 97.5828 47.7712L101.958 56.5212C102.086 56.7782 102.163 57.0581 102.184 57.3449C102.204 57.6317 102.168 57.9197 102.077 58.1924C101.986 58.4652 101.842 58.7173 101.654 58.9345C101.465 59.1516 101.236 59.3295 100.979 59.4579ZM153.479 108.042L162.229 112.417C162.748 112.677 163.143 113.132 163.327 113.683C163.51 114.234 163.467 114.835 163.208 115.354C162.948 115.873 162.493 116.268 161.942 116.452C161.391 116.635 160.79 116.592 160.271 116.333L151.521 111.958C151.002 111.698 150.607 111.243 150.423 110.692C150.24 110.142 150.283 109.54 150.542 109.021C150.802 108.502 151.257 108.107 151.808 107.923C152.358 107.74 152.96 107.783 153.479 108.042ZM51.607 142.173C50.9952 142.782 50.5097 143.507 50.1785 144.305C49.8473 145.102 49.6768 145.957 49.6768 146.821C49.6768 147.685 49.8473 148.54 50.1785 149.338C50.5097 150.135 50.9952 150.86 51.607 151.47L58.5468 158.393C59.1565 159.005 59.8809 159.49 60.6786 159.821C61.4763 160.153 62.3315 160.323 63.1953 160.323C64.059 160.323 64.9142 160.153 65.7119 159.821C66.5096 159.49 67.234 159.005 67.8437 158.393L95.9038 130.333C96.1538 130.077 96.4638 129.887 96.8057 129.781C97.1476 129.675 97.5106 129.656 97.8617 129.726C98.2051 129.791 98.5279 129.938 98.8029 130.154C99.0779 130.37 99.2971 130.649 99.4421 130.967L109.166 156.293C109.176 156.323 109.189 156.353 109.204 156.381C109.703 157.549 110.535 158.544 111.596 159.243C112.657 159.942 113.9 160.314 115.17 160.313H115.493C116.819 160.256 118.096 159.794 119.152 158.989C120.208 158.184 120.992 157.076 121.399 155.812L149.984 68.2626C150.35 67.1152 150.394 65.8892 150.109 64.7188C149.825 63.5484 149.224 62.4789 148.373 61.6272C147.521 60.7756 146.452 60.1747 145.281 59.8905C144.111 59.6063 142.885 59.6496 141.737 60.0157L54.1937 88.6008C52.9424 89.0231 51.8476 89.813 51.0525 90.8674C50.2573 91.9217 49.7987 93.1915 49.7367 94.5106C49.6746 95.8298 50.012 97.1369 50.7048 98.2613C51.3975 99.3856 52.4133 100.275 53.6195 100.813L53.707 100.851L79.0328 110.574C79.3544 110.721 79.6358 110.943 79.8528 111.222C80.0699 111.501 80.2161 111.828 80.279 112.176C80.3419 112.524 80.3196 112.882 80.214 113.219C80.1084 113.556 79.9226 113.863 79.6726 114.113L51.607 142.173ZM54.7023 145.268L82.7624 117.202C83.5187 116.446 84.0787 115.517 84.3936 114.494C84.7086 113.472 84.7689 112.389 84.5695 111.338C84.37 110.287 83.9167 109.301 83.2491 108.466C82.5815 107.63 81.7198 106.97 80.739 106.544L80.6515 106.511L55.3257 96.7821C54.9299 96.6014 54.5978 96.3053 54.3731 95.9327C54.1483 95.5601 54.0414 95.1282 54.0662 94.6938C54.091 94.2593 54.2465 93.8425 54.5122 93.4979C54.7779 93.1533 55.1415 92.897 55.5554 92.7626L143.094 64.1774C143.474 64.0604 143.879 64.0492 144.265 64.145C144.65 64.2408 145.003 64.44 145.284 64.7212C145.565 65.0024 145.765 65.355 145.86 65.741C145.956 66.1269 145.945 66.5317 145.828 66.9118L117.237 154.445C117.093 154.85 116.833 155.204 116.488 155.462C116.144 155.72 115.731 155.871 115.301 155.895C114.872 155.92 114.444 155.817 114.073 155.6C113.701 155.383 113.402 155.061 113.212 154.674L103.489 129.348C103.479 129.318 103.466 129.289 103.451 129.261C103.024 128.281 102.365 127.42 101.53 126.753C100.695 126.086 99.71 125.633 98.6601 125.433C98.2563 125.356 97.8461 125.318 97.4351 125.318C96.5727 125.318 95.7187 125.488 94.922 125.818C94.1253 126.149 93.4016 126.633 92.7921 127.243L64.732 155.303C64.3219 155.712 63.7663 155.942 63.187 155.942C62.6078 155.942 62.0522 155.712 61.6421 155.303L54.7023 148.363C54.4989 148.16 54.3375 147.919 54.2275 147.653C54.1174 147.388 54.0607 147.103 54.0607 146.816C54.0607 146.528 54.1174 146.244 54.2275 145.978C54.3375 145.712 54.4989 145.471 54.7023 145.268Z" fill="#0325B6"/>
<path d="M204.853 54.2844C204.787 54.348 204.737 54.4277 204.71 54.5159C204.683 54.6041 204.679 54.6977 204.699 54.7879C204.715 54.8734 204.751 54.954 204.804 55.0233C204.856 55.0926 204.924 55.1487 205.002 55.1872L218.01 60.1822L218.078 60.2104C218.799 60.5341 219.407 61.0678 219.821 61.7417C220.235 62.4156 220.436 63.1986 220.399 63.9887C220.362 64.7788 220.087 65.5393 219.612 66.1712C219.136 66.803 218.481 67.277 217.732 67.5313L172.707 82.2407C172.018 82.4655 171.28 82.4952 170.576 82.3265C169.871 82.1579 169.227 81.7974 168.715 81.2852C168.203 80.7729 167.842 80.1288 167.673 79.4242C167.505 78.7197 167.535 77.9822 167.759 77.2935L182.469 32.2682C182.711 31.5091 183.181 30.843 183.815 30.3601C184.449 29.8771 185.216 29.6007 186.012 29.5682H186.207C186.967 29.5683 187.711 29.7914 188.346 30.2098C188.982 30.6281 189.481 31.2235 189.781 31.9222C189.792 31.9441 189.801 31.9667 189.809 31.9897L194.804 44.9976C194.844 45.0778 194.902 45.1475 194.974 45.2009C195.046 45.2542 195.129 45.2896 195.217 45.3042C195.306 45.3188 195.396 45.3121 195.481 45.2847C195.567 45.2573 195.644 45.2099 195.707 45.1466L210.138 30.7157C210.504 30.35 210.938 30.0599 211.416 29.862C211.893 29.6641 212.405 29.5623 212.922 29.5623C213.44 29.5623 213.952 29.6641 214.429 29.862C214.907 30.0599 215.341 30.35 215.707 30.7157L219.276 34.2847C219.642 34.6504 219.932 35.0845 220.13 35.5622C220.327 36.04 220.429 36.552 220.429 37.0691C220.429 37.5862 220.327 38.0983 220.13 38.576C219.932 39.0538 219.642 39.4879 219.276 39.8535L204.853 54.2844ZM216.897 36.6697L213.33 33.1035C213.278 33.0512 213.216 33.0097 213.148 32.9814C213.079 32.9531 213.006 32.9385 212.932 32.9385C212.858 32.9385 212.785 32.9531 212.717 32.9814C212.649 33.0097 212.587 33.0512 212.534 33.1035L198.103 47.5344C197.65 47.9883 197.092 48.3243 196.478 48.5132C195.865 48.7022 195.215 48.7384 194.584 48.6186C193.954 48.4988 193.362 48.2267 192.861 47.826C192.359 47.4253 191.964 46.9081 191.708 46.3194C191.697 46.2976 191.688 46.275 191.68 46.2519L186.687 33.2441C186.635 33.151 186.558 33.0748 186.464 33.0242C186.37 32.9736 186.263 32.9508 186.157 32.9585C186.05 32.9662 185.948 33.004 185.862 33.0675C185.776 33.131 185.711 33.2176 185.672 33.3172L170.968 78.3397C170.933 78.4362 170.927 78.5408 170.95 78.6408C170.974 78.7407 171.026 78.8316 171.101 78.9022C171.201 79.0038 171.337 79.0614 171.48 79.0625C171.541 79.0621 171.602 79.0526 171.66 79.0344L216.683 64.3307C216.782 64.2923 216.869 64.2263 216.933 64.1406C216.996 64.0548 217.034 63.9527 217.042 63.8462C217.049 63.7398 217.026 63.6333 216.976 63.5393C216.925 63.4453 216.849 63.3676 216.756 63.3154L203.748 58.3204L203.681 58.2922C203.092 58.0365 202.575 57.6407 202.174 57.1393C201.773 56.638 201.501 56.0463 201.381 55.4158C201.262 54.7853 201.298 54.135 201.487 53.5217C201.676 52.9083 202.012 52.3504 202.466 51.8966L216.897 37.4657C216.949 37.4134 216.99 37.3514 217.019 37.2831C217.047 37.2148 217.061 37.1416 217.061 37.0677C217.061 36.9938 217.047 36.9206 217.019 36.8523C216.99 36.784 216.949 36.722 216.897 36.6697Z" fill="#051A7C" fill-opacity="0.45"/>
</svg>
