<svg width="16" height="17" viewBox="0 0 16 17" fill="none" xmlns="http://www.w3.org/2000/svg">
<path d="M12.5 4.59814V11.0981C12.5 11.2308 12.4473 11.3579 12.3536 11.4517C12.2598 11.5455 12.1326 11.5981 12 11.5981C11.8674 11.5981 11.7402 11.5455 11.6464 11.4517C11.5527 11.3579 11.5 11.2308 11.5 11.0981V5.80502L4.35375 12.9519C4.25993 13.0457 4.13268 13.0984 4 13.0984C3.86732 13.0984 3.74007 13.0457 3.64625 12.9519C3.55243 12.8581 3.49972 12.7308 3.49972 12.5981C3.49972 12.4655 3.55243 12.3382 3.64625 12.2444L10.7931 5.09814H5.5C5.36739 5.09814 5.24021 5.04547 5.14645 4.9517C5.05268 4.85793 5 4.73075 5 4.59814C5 4.46554 5.05268 4.33836 5.14645 4.24459C5.24021 4.15082 5.36739 4.09814 5.5 4.09814H12C12.1326 4.09814 12.2598 4.15082 12.3536 4.24459C12.4473 4.33836 12.5 4.46554 12.5 4.59814Z" fill="white"/>
</svg>
