<svg width="16" height="16" viewBox="0 0 16 16" fill="none" xmlns="http://www.w3.org/2000/svg">
<path d="M13.8538 8.35354L9.35375 12.8535C9.25993 12.9474 9.13268 13.0001 9 13.0001C8.86732 13.0001 8.74007 12.9474 8.64625 12.8535C8.55243 12.7597 8.49972 12.6325 8.49972 12.4998C8.49972 12.3671 8.55243 12.2399 8.64625 12.146L12.2931 8.49979H2.5C2.36739 8.49979 2.24021 8.44711 2.14645 8.35334C2.05268 8.25958 2 8.1324 2 7.99979C2 7.86718 2.05268 7.74 2.14645 7.64624C2.24021 7.55247 2.36739 7.49979 2.5 7.49979H12.2931L8.64625 3.85354C8.55243 3.75972 8.49972 3.63247 8.49972 3.49979C8.49972 3.36711 8.55243 3.23986 8.64625 3.14604C8.74007 3.05222 8.86732 2.99951 9 2.99951C9.13268 2.99951 9.25993 3.05222 9.35375 3.14604L13.8538 7.64604C13.9002 7.69248 13.9371 7.74762 13.9623 7.80832C13.9874 7.86902 14.0004 7.93408 14.0004 7.99979C14.0004 8.0655 13.9874 8.13056 13.9623 8.19126C13.9371 8.25196 13.9002 8.3071 13.8538 8.35354Z" fill="white"/>
</svg>
