<svg width="32" height="32" viewBox="0 0 32 32" fill="none" xmlns="http://www.w3.org/2000/svg">
<path d="M26 4H23V3C23 2.73478 22.8946 2.48043 22.7071 2.29289C22.5196 2.10536 22.2652 2 22 2C21.7348 2 21.4804 2.10536 21.2929 2.29289C21.1054 2.48043 21 2.73478 21 3V4H11V3C11 2.73478 10.8946 2.48043 10.7071 2.29289C10.5196 2.10536 10.2652 2 10 2C9.73478 2 9.48043 2.10536 9.29289 2.29289C9.10536 2.48043 9 2.73478 9 3V4H6C5.46957 4 4.96086 4.21071 4.58579 4.58579C4.21071 4.96086 4 5.46957 4 6V26C4 26.5304 4.21071 27.0391 4.58579 27.4142C4.96086 27.7893 5.46957 28 6 28H26C26.5304 28 27.0391 27.7893 27.4142 27.4142C27.7893 27.0391 28 26.5304 28 26V6C28 5.46957 27.7893 4.96086 27.4142 4.58579C27.0391 4.21071 26.5304 4 26 4ZM26 26H6V6H9V7C9 7.26522 9.10536 7.51957 9.29289 7.70711C9.48043 7.89464 9.73478 8 10 8C10.2652 8 10.5196 7.89464 10.7071 7.70711C10.8946 7.51957 11 7.26522 11 7V6H21V7C21 7.26522 21.1054 7.51957 21.2929 7.70711C21.4804 7.89464 21.7348 8 22 8C22.2652 8 22.5196 7.89464 22.7071 7.70711C22.8946 7.51957 23 7.26522 23 7V6H26V26ZM22.0775 14.205L18.3475 13.9163L16.9188 10.6038C16.8415 10.4241 16.7134 10.271 16.5501 10.1635C16.3868 10.0559 16.1955 9.99859 16 9.99859C15.8045 9.99859 15.6132 10.0559 15.4499 10.1635C15.2866 10.271 15.1585 10.4241 15.0813 10.6038L13.6525 13.9163L9.9225 14.205C9.724 14.2206 9.53468 14.2952 9.37881 14.4191C9.22294 14.543 9.10761 14.7106 9.04759 14.9005C8.98757 15.0903 8.9856 15.2938 9.04192 15.4848C9.09825 15.6758 9.21031 15.8456 9.36375 15.9725L12.1788 18.2962L11.3212 21.76C11.2742 21.951 11.2846 22.1516 11.351 22.3367C11.4174 22.5218 11.537 22.6832 11.6947 22.8008C11.8524 22.9183 12.0412 22.9867 12.2376 22.9975C12.434 23.0083 12.6292 22.9609 12.7987 22.8612L16 20.9775L19.2013 22.8612C19.3708 22.9609 19.566 23.0083 19.7624 22.9975C19.9588 22.9867 20.1476 22.9183 20.3053 22.8008C20.463 22.6832 20.5826 22.5218 20.649 22.3367C20.7154 22.1516 20.7258 21.951 20.6787 21.76L19.8213 18.2962L22.6362 15.9725C22.7897 15.8456 22.9017 15.6758 22.9581 15.4848C23.0144 15.2938 23.0124 15.0903 22.9524 14.9005C22.8924 14.7106 22.7771 14.543 22.6212 14.4191C22.4653 14.2952 22.276 14.2206 22.0775 14.205ZM18.0637 17.155C17.9183 17.2749 17.8097 17.4334 17.7504 17.6123C17.6911 17.7912 17.6836 17.9833 17.7288 18.1663L18.1663 19.9312L16.5075 18.955C16.3537 18.8644 16.1785 18.8167 16 18.8167C15.8215 18.8167 15.6463 18.8644 15.4925 18.955L13.8337 19.9312L14.2712 18.1663C14.3164 17.9833 14.3089 17.7912 14.2496 17.6123C14.1903 17.4334 14.0817 17.2749 13.9362 17.155L12.5475 16.0075L14.4087 15.8638C14.5903 15.8498 14.7646 15.7866 14.9129 15.6808C15.0611 15.5751 15.1777 15.4309 15.25 15.2638L16 13.5238L16.75 15.2638C16.8223 15.4309 16.9389 15.5751 17.0871 15.6808C17.2354 15.7866 17.4097 15.8498 17.5912 15.8638L19.4525 16.0075L18.0637 17.155Z" fill="#0325B6"/>
</svg>
