<svg width="260" height="200" viewBox="0 0 260 200" fill="none" xmlns="http://www.w3.org/2000/svg">
<path d="M235 84.5C234.072 84.5 233.182 84.869 232.525 85.5254C231.869 86.1818 231.5 87.0717 231.5 88V138C231.5 138.928 231.869 139.818 232.525 140.475C233.182 141.131 234.072 141.5 235 141.5C235.928 141.5 236.818 141.131 237.475 140.475C238.131 139.818 238.5 138.928 238.5 138V88C238.5 87.0717 238.131 86.1818 237.475 85.5254C236.818 84.869 235.928 84.5 235 84.5ZM220 114.5C219.072 114.5 218.182 114.869 217.525 115.525C216.869 116.182 216.5 117.072 216.5 118V138C216.5 138.928 216.869 139.818 217.525 140.475C218.182 141.131 219.072 141.5 220 141.5C220.87 141.5 221.707 141.176 222.349 140.595L222.475 140.475C223.131 139.818 223.5 138.928 223.5 138V118C223.5 117.13 223.176 116.293 222.595 115.651L222.475 115.525C221.818 114.869 220.928 114.5 220 114.5ZM205 84.5C204.072 84.5 203.182 84.869 202.525 85.5254C201.869 86.1818 201.5 87.0717 201.5 88V138C201.5 138.928 201.869 139.818 202.525 140.475C203.182 141.131 204.072 141.5 205 141.5C205.87 141.5 206.707 141.176 207.349 140.595L207.475 140.475C208.131 139.818 208.5 138.928 208.5 138V88C208.5 87.1299 208.176 86.2934 207.595 85.6514L207.475 85.5254C206.818 84.869 205.928 84.5 205 84.5ZM190 114.5C189.072 114.5 188.182 114.869 187.525 115.525C186.869 116.182 186.5 117.072 186.5 118V138C186.5 138.928 186.869 139.818 187.525 140.475C188.182 141.131 189.072 141.5 190 141.5C190.928 141.5 191.818 141.131 192.475 140.475C193.131 139.818 193.5 138.928 193.5 138V118C193.5 117.072 193.131 116.182 192.475 115.525C191.818 114.869 190.928 114.5 190 114.5ZM190 65C189.072 65 188.182 65.369 187.525 66.0254C186.869 66.6818 186.5 67.5717 186.5 68.5V103C186.5 103.928 186.869 104.818 187.525 105.475C188.182 106.131 189.072 106.5 190 106.5C190.928 106.5 191.818 106.131 192.475 105.475C193.131 104.818 193.5 103.928 193.5 103V68.5C193.5 67.5717 193.131 66.6818 192.475 66.0254C191.818 65.369 190.928 65 190 65Z" fill="#051A7C" fill-opacity="0.1" stroke="white" stroke-width="3"/>
<path d="M25 84.5C25.9283 84.5 26.8182 84.869 27.4746 85.5254C28.131 86.1818 28.5 87.0717 28.5 88V138C28.5 138.928 28.131 139.818 27.4746 140.475C26.8182 141.131 25.9283 141.5 25 141.5C24.0717 141.5 23.1818 141.131 22.5254 140.475C21.869 139.818 21.5 138.928 21.5 138V88C21.5 87.0717 21.869 86.1818 22.5254 85.5254C23.1818 84.869 24.0717 84.5 25 84.5ZM40 114.5C40.9283 114.5 41.8182 114.869 42.4746 115.525C43.131 116.182 43.5 117.072 43.5 118V138C43.5 138.928 43.131 139.818 42.4746 140.475C41.8182 141.131 40.9283 141.5 40 141.5C39.1299 141.5 38.2934 141.176 37.6514 140.595L37.5254 140.475C36.869 139.818 36.5 138.928 36.5 138V118C36.5 117.13 36.8241 116.293 37.4053 115.651L37.5254 115.525C38.1818 114.869 39.0717 114.5 40 114.5ZM55 84.5C55.9283 84.5 56.8182 84.869 57.4746 85.5254C58.131 86.1818 58.5 87.0717 58.5 88V138C58.5 138.928 58.131 139.818 57.4746 140.475C56.8182 141.131 55.9283 141.5 55 141.5C54.1299 141.5 53.2934 141.176 52.6514 140.595L52.5254 140.475C51.869 139.818 51.5 138.928 51.5 138V88C51.5 87.1299 51.8241 86.2934 52.4053 85.6514L52.5254 85.5254C53.1818 84.869 54.0717 84.5 55 84.5ZM70 114.5C70.9283 114.5 71.8182 114.869 72.4746 115.525C73.131 116.182 73.5 117.072 73.5 118V138C73.5 138.928 73.131 139.818 72.4746 140.475C71.8182 141.131 70.9283 141.5 70 141.5C69.0717 141.5 68.1818 141.131 67.5254 140.475C66.869 139.818 66.5 138.928 66.5 138V118C66.5 117.072 66.869 116.182 67.5254 115.525C68.1818 114.869 69.0717 114.5 70 114.5ZM70 73C70.9283 73 71.8182 73.369 72.4746 74.0254C73.131 74.6818 73.5 75.5717 73.5 76.5V103C73.5 103.928 73.131 104.818 72.4746 105.475C71.8182 106.131 70.9283 106.5 70 106.5C69.0717 106.5 68.1818 106.131 67.5254 105.475C66.869 104.818 66.5 103.928 66.5 103V76.5C66.5 75.5717 66.869 74.6818 67.5254 74.0254C68.1818 73.369 69.0717 73 70 73Z" fill="#051A7C" fill-opacity="0.1" stroke="white" stroke-width="3"/>
<path opacity="0.2" d="M173.75 52.875V144.75H143.125V52.875H173.75Z" fill="#0325B6"/>
<path d="M182.5 141.562H175.938V51.875C175.938 51.2948 175.707 50.7384 175.297 50.3282C174.887 49.918 174.33 49.6875 173.75 49.6875H143.125C142.545 49.6875 141.988 49.918 141.578 50.3282C141.168 50.7384 140.938 51.2948 140.938 51.875V75.9375H112.5C111.92 75.9375 111.363 76.168 110.953 76.5782C110.543 76.9884 110.312 77.5448 110.312 78.125V102.188H86.25C85.6698 102.188 85.1134 102.418 84.7032 102.828C84.293 103.238 84.0625 103.795 84.0625 104.375V141.562H77.5C76.9198 141.562 76.3634 141.793 75.9532 142.203C75.543 142.613 75.3125 143.17 75.3125 143.75C75.3125 144.33 75.543 144.887 75.9532 145.297C76.3634 145.707 76.9198 145.938 77.5 145.938H182.5C183.08 145.938 183.637 145.707 184.047 145.297C184.457 144.887 184.688 144.33 184.688 143.75C184.688 143.17 184.457 142.613 184.047 142.203C183.637 141.793 183.08 141.562 182.5 141.562ZM145.312 54.0625H171.562V141.562H145.312V54.0625ZM114.688 80.3125H140.938V141.562H114.688V80.3125ZM88.4375 106.562H110.312V141.562H88.4375V106.562Z" fill="#0325B6"/>
</svg>
