<svg width="16" height="17" viewBox="0 0 16 17" fill="none" xmlns="http://www.w3.org/2000/svg">
<path d="M3.36999 2.66379C3.32608 2.6143 3.27279 2.57401 3.21319 2.54526C3.1536 2.51651 3.08889 2.49988 3.02282 2.49633C2.95675 2.49277 2.89063 2.50237 2.8283 2.52455C2.76597 2.54674 2.70865 2.58108 2.65969 2.62558C2.61072 2.67008 2.57108 2.72385 2.54305 2.78379C2.51502 2.84372 2.49916 2.90863 2.4964 2.97473C2.49364 3.04084 2.50402 3.10684 2.52696 3.1689C2.54989 3.23097 2.58491 3.28786 2.62999 3.33629L3.83249 4.65942C1.56249 6.05254 0.586244 8.20004 0.543119 8.29754C0.51469 8.36149 0.5 8.43069 0.5 8.50067C0.5 8.57065 0.51469 8.63985 0.543119 8.70379C0.564994 8.75317 1.09437 9.92692 2.27124 11.1038C3.83937 12.6713 5.81999 13.5 7.99999 13.5C9.12038 13.5064 10.2295 13.2758 11.2544 12.8232L12.6294 14.3363C12.6733 14.3858 12.7266 14.4261 12.7862 14.4548C12.8458 14.4836 12.9105 14.5002 12.9765 14.5038C13.0426 14.5073 13.1087 14.4977 13.1711 14.4755C13.2334 14.4533 13.2907 14.419 13.3397 14.3745C13.3886 14.33 13.4283 14.2762 13.4563 14.2163C13.4843 14.1564 13.5002 14.0915 13.503 14.0254C13.5057 13.9592 13.4953 13.8932 13.4724 13.8312C13.4495 13.7691 13.4145 13.7122 13.3694 13.6638L3.36999 2.66379ZM6.32812 7.40379L8.93249 10.2694C8.5403 10.4757 8.09069 10.546 7.65426 10.4691C7.21783 10.3922 6.81931 10.1725 6.52126 9.84455C6.22321 9.5166 6.04252 9.09895 6.00756 8.65718C5.9726 8.21541 6.08536 7.77453 6.32812 7.40379ZM7.99999 12.5C6.07624 12.5 4.39562 11.8007 3.00437 10.4219C2.43334 9.85438 1.94766 9.20702 1.56249 8.50004C1.85562 7.95067 2.79124 6.41317 4.52187 5.41379L5.64687 6.64817C5.21133 7.20598 4.98702 7.89981 5.01358 8.60702C5.04014 9.31423 5.31586 9.98929 5.79202 10.5129C6.26817 11.0364 6.91409 11.3748 7.61561 11.4682C8.31713 11.5616 9.02908 11.404 9.62562 11.0232L10.5462 12.0357C9.73374 12.3474 8.87023 12.5049 7.99999 12.5ZM8.37499 6.53567C8.24471 6.5108 8.12963 6.4352 8.05509 6.32549C7.98054 6.21578 7.95263 6.08095 7.97749 5.95067C8.00236 5.82038 8.07796 5.70531 8.18767 5.63076C8.29738 5.55621 8.43221 5.5283 8.56249 5.55317C9.19975 5.67671 9.77999 6.00295 10.2167 6.48322C10.6534 6.96349 10.9231 7.57207 10.9856 8.21817C10.998 8.35019 10.9574 8.48172 10.8727 8.58381C10.7881 8.6859 10.6664 8.75019 10.5344 8.76254C10.5188 8.76352 10.5031 8.76352 10.4875 8.76254C10.3625 8.76308 10.2419 8.71679 10.1493 8.63281C10.0568 8.54882 9.99905 8.43323 9.98749 8.30879C9.94541 7.87904 9.76575 7.47434 9.47522 7.15488C9.1847 6.83542 8.79883 6.61825 8.37499 6.53567ZM15.455 8.70379C15.4287 8.76254 14.7956 10.1644 13.37 11.4413C13.3213 11.4863 13.2641 11.5212 13.2018 11.5439C13.1395 11.5666 13.0732 11.5767 13.007 11.5735C12.9407 11.5704 12.8758 11.5541 12.8159 11.5256C12.756 11.4971 12.7023 11.457 12.6581 11.4076C12.6138 11.3582 12.5799 11.3004 12.5582 11.2377C12.5365 11.1751 12.5274 11.1087 12.5316 11.0425C12.5358 10.9763 12.5531 10.9116 12.5826 10.8522C12.612 10.7927 12.653 10.7397 12.7031 10.6963C13.4025 10.0679 13.99 9.32525 14.4406 8.50004C14.0546 7.79243 13.5678 7.14462 12.9956 6.57692C11.6044 5.19942 9.92374 4.50004 7.99999 4.50004C7.59465 4.49956 7.18996 4.53237 6.78999 4.59817C6.72495 4.60967 6.65828 4.60817 6.59382 4.59376C6.52936 4.57934 6.46839 4.5523 6.41444 4.51419C6.3605 4.47609 6.31463 4.42767 6.2795 4.37173C6.24437 4.3158 6.22067 4.25346 6.20978 4.18831C6.19888 4.12316 6.20099 4.05651 6.216 3.99218C6.23101 3.92786 6.25862 3.86715 6.29723 3.81356C6.33583 3.75996 6.38468 3.71455 6.44094 3.67994C6.49719 3.64533 6.55975 3.62221 6.62499 3.61192C7.07947 3.53688 7.53936 3.49946 7.99999 3.50004C10.18 3.50004 12.1606 4.32879 13.7287 5.89692C14.9056 7.07379 15.435 8.24817 15.4569 8.29754C15.4853 8.36149 15.5 8.43069 15.5 8.50067C15.5 8.57065 15.4853 8.63985 15.4569 8.70379H15.455Z" fill="#051A7C" fill-opacity="0.9"/>
</svg>
