<svg width="25" height="25" viewBox="0 0 25 25" fill="none" xmlns="http://www.w3.org/2000/svg">
<path d="M12.6833 10.8638V14.3493H17.6259C17.4088 15.4702 16.7575 16.4193 15.7807 17.0575L18.7613 19.3239C20.4978 17.753 21.4997 15.4457 21.4997 12.7048C21.4997 12.0666 21.4412 11.4529 21.3327 10.8639L12.6833 10.8638Z" fill="#4285F4"/>
<path d="M4.48509 8.46655C3.85896 9.67742 3.5 11.0438 3.5 12.5002C3.5 13.9565 3.85896 15.3229 4.48509 16.5338C4.48509 16.5419 7.54082 14.2101 7.54082 14.2101C7.35715 13.6701 7.24858 13.0974 7.24858 12.5001C7.24858 11.9027 7.35715 11.33 7.54082 10.79L4.48509 8.46655Z" fill="#FBBC05"/>
<path d="M12.6835 7.08365C14.036 7.08365 15.2382 7.54183 16.1983 8.42548L18.8282 5.84823C17.2336 4.39188 15.1631 3.5 12.6835 3.5C9.0935 3.5 5.99612 5.52092 4.48499 8.4664L7.54062 10.79C8.26693 8.66274 10.2957 7.08365 12.6835 7.08365Z" fill="#EA4335"/>
<path d="M7.53666 14.2131L6.86444 14.7174L4.48499 16.5338C5.99612 19.471 9.09331 21.5002 12.6833 21.5002C15.1628 21.5002 17.2417 20.6983 18.7612 19.3238L15.7807 17.0574C14.9625 17.5974 13.9189 17.9247 12.6833 17.9247C10.2955 17.9247 8.26682 16.3456 7.54042 14.2183L7.53666 14.2131Z" fill="#34A853"/>
</svg>
