<svg width="32" height="32" viewBox="0 0 32 32" fill="none" xmlns="http://www.w3.org/2000/svg">
<path d="M25 19C24.1161 18.9995 23.2572 19.2933 22.5588 19.835L19.67 17.585C19.8881 17.085 20.0004 16.5454 20 16C20 15.9075 20 15.815 19.99 15.7237L21.6438 15.1725C22.167 15.9794 22.9634 16.5708 23.8871 16.8384C24.8108 17.106 25.8 17.0318 26.6735 16.6294C27.547 16.2271 28.2463 15.5235 28.6433 14.6476C29.0403 13.7716 29.1084 12.782 28.8352 11.8599C28.5619 10.9378 27.9657 10.1451 27.1555 9.62683C26.3454 9.10858 25.3757 8.89955 24.424 9.03803C23.4724 9.1765 22.6024 9.65321 21.9736 10.3808C21.3448 11.1085 20.9991 12.0383 21 13C21 13.0925 21 13.185 21.01 13.2762L19.3563 13.8275C18.9937 13.267 18.4967 12.8062 17.9105 12.487C17.3243 12.1678 16.6675 12.0004 16 12C15.7793 12.0004 15.559 12.0188 15.3413 12.055L14.4863 10.125C15.2245 9.5351 15.7301 8.70288 15.9134 7.77584C16.0967 6.84879 15.9458 5.88679 15.4876 5.06034C15.0294 4.23388 14.2933 3.59636 13.4099 3.26075C12.5265 2.92514 11.5529 2.91313 10.6615 3.22685C9.77006 3.54056 9.01851 4.15974 8.54003 4.97464C8.06154 5.78954 7.88701 6.74753 8.04738 7.67882C8.20775 8.6101 8.69266 9.45453 9.41616 10.0624C10.1397 10.6704 11.055 11.0025 12 11C12.2207 10.9995 12.441 10.9811 12.6588 10.945L13.5138 12.87C12.7887 13.4438 12.2855 14.2517 12.0901 15.1555C11.8947 16.0593 12.0193 17.0029 12.4425 17.825L9.22876 20.68C8.41998 20.1348 7.44012 19.9032 6.47284 20.0287C5.50556 20.1543 4.61727 20.6283 3.97447 21.3619C3.33166 22.0955 2.97848 23.0384 2.98112 24.0138C2.98377 24.9892 3.34205 25.9301 3.98882 26.6602C4.63559 27.3903 5.52644 27.8595 6.49438 27.9798C7.46233 28.1001 8.44092 27.8633 9.24673 27.3136C10.0525 26.764 10.6302 25.9394 10.8715 24.9943C11.1128 24.0493 11.0012 23.0486 10.5575 22.18L13.7713 19.325C14.4671 19.7935 15.2929 20.0307 16.1313 20.0029C16.9697 19.9751 17.778 19.6836 18.4413 19.17L21.33 21.42C21.1126 21.9184 21.0003 22.4562 21 23C21 23.7911 21.2346 24.5645 21.6741 25.2223C22.1137 25.8801 22.7384 26.3928 23.4693 26.6955C24.2002 26.9983 25.0044 27.0775 25.7804 26.9231C26.5563 26.7688 27.269 26.3878 27.8284 25.8284C28.3878 25.269 28.7688 24.5563 28.9231 23.7803C29.0775 23.0044 28.9983 22.2002 28.6955 21.4693C28.3928 20.7383 27.8801 20.1136 27.2223 19.6741C26.5645 19.2346 25.7911 19 25 19ZM25 11C25.3956 11 25.7822 11.1173 26.1111 11.337C26.44 11.5568 26.6964 11.8692 26.8478 12.2346C26.9991 12.6001 27.0387 13.0022 26.9616 13.3902C26.8844 13.7781 26.6939 14.1345 26.4142 14.4142C26.1345 14.6939 25.7781 14.8844 25.3902 14.9616C25.0022 15.0387 24.6001 14.9991 24.2346 14.8477C23.8692 14.6964 23.5568 14.44 23.3371 14.1111C23.1173 13.7822 23 13.3955 23 13C23 12.4696 23.2107 11.9608 23.5858 11.5858C23.9609 11.2107 24.4696 11 25 11ZM10 6.99999C10 6.60442 10.1173 6.21774 10.3371 5.88885C10.5568 5.55995 10.8692 5.3036 11.2346 5.15223C11.6001 5.00085 12.0022 4.96124 12.3902 5.03842C12.7781 5.11559 13.1345 5.30607 13.4142 5.58577C13.6939 5.86548 13.8844 6.22184 13.9616 6.60981C14.0387 6.99777 13.9991 7.3999 13.8478 7.76535C13.6964 8.13081 13.44 8.44316 13.1111 8.66293C12.7822 8.88269 12.3956 8.99999 12 8.99999C11.4696 8.99999 10.9609 8.78927 10.5858 8.4142C10.2107 8.03913 10 7.53042 10 6.99999ZM7.00001 26C6.60444 26 6.21776 25.8827 5.88886 25.6629C5.55997 25.4432 5.30362 25.1308 5.15225 24.7654C5.00087 24.3999 4.96126 23.9978 5.03843 23.6098C5.1156 23.2218 5.30609 22.8655 5.58579 22.5858C5.8655 22.3061 6.22186 22.1156 6.60982 22.0384C6.99779 21.9612 7.39992 22.0009 7.76537 22.1522C8.13082 22.3036 8.44318 22.5599 8.66294 22.8888C8.88271 23.2177 9.00001 23.6044 9.00001 24C9.00001 24.5304 8.78929 25.0391 8.41422 25.4142C8.03915 25.7893 7.53044 26 7.00001 26ZM14 16C14 15.6044 14.1173 15.2177 14.3371 14.8888C14.5568 14.5599 14.8692 14.3036 15.2346 14.1522C15.6001 14.0009 16.0022 13.9612 16.3902 14.0384C16.7781 14.1156 17.1345 14.3061 17.4142 14.5858C17.6939 14.8655 17.8844 15.2218 17.9616 15.6098C18.0387 15.9978 17.9991 16.3999 17.8478 16.7654C17.6964 17.1308 17.44 17.4432 17.1111 17.6629C16.7822 17.8827 16.3956 18 16 18C15.4696 18 14.9609 17.7893 14.5858 17.4142C14.2107 17.0391 14 16.5304 14 16ZM25 25C24.6044 25 24.2178 24.8827 23.8889 24.6629C23.56 24.4432 23.3036 24.1308 23.1522 23.7654C23.0009 23.3999 22.9613 22.9978 23.0384 22.6098C23.1156 22.2218 23.3061 21.8655 23.5858 21.5858C23.8655 21.3061 24.2219 21.1156 24.6098 21.0384C24.9978 20.9612 25.3999 21.0009 25.7654 21.1522C26.1308 21.3036 26.4432 21.5599 26.6629 21.8888C26.8827 22.2177 27 22.6044 27 23C27 23.5304 26.7893 24.0391 26.4142 24.4142C26.0391 24.7893 25.5304 25 25 25Z" fill="#0325B6"/>
</svg>
