<svg width="64" height="65" viewBox="0 0 64 65" fill="none" xmlns="http://www.w3.org/2000/svg">
<path d="M58.6667 0.499996H5.33333C3.91885 0.499996 2.56229 1.0619 1.5621 2.06209C0.561907 3.06229 1.19209e-06 4.41884 1.19209e-06 5.83333V59.1667C1.19209e-06 60.5812 0.561907 61.9377 1.5621 62.9379C2.56229 63.9381 3.91885 64.5 5.33333 64.5H41.5633C42.2638 64.5011 42.9576 64.3636 43.6046 64.0952C44.2517 63.8269 44.8392 63.4332 45.3333 62.9367L62.4367 45.8333C62.9332 45.3392 63.3269 44.7517 63.5953 44.1046C63.8636 43.4576 64.0011 42.7638 64 42.0633V5.83333C64 4.41884 63.4381 3.06229 62.4379 2.06209C61.4377 1.0619 60.0812 0.499996 58.6667 0.499996ZM21.3333 19.1667H42.6667C43.3739 19.1667 44.0522 19.4476 44.5523 19.9477C45.0524 20.4478 45.3333 21.1261 45.3333 21.8333C45.3333 22.5406 45.0524 23.2188 44.5523 23.7189C44.0522 24.219 43.3739 24.5 42.6667 24.5H21.3333C20.6261 24.5 19.9478 24.219 19.4477 23.7189C18.9476 23.2188 18.6667 22.5406 18.6667 21.8333C18.6667 21.1261 18.9476 20.4478 19.4477 19.9477C19.9478 19.4476 20.6261 19.1667 21.3333 19.1667ZM32 45.8333H21.3333C20.6261 45.8333 19.9478 45.5524 19.4477 45.0523C18.9476 44.5522 18.6667 43.8739 18.6667 43.1667C18.6667 42.4594 18.9476 41.7811 19.4477 41.281C19.9478 40.7809 20.6261 40.5 21.3333 40.5H32C32.7072 40.5 33.3855 40.7809 33.8856 41.281C34.3857 41.7811 34.6667 42.4594 34.6667 43.1667C34.6667 43.8739 34.3857 44.5522 33.8856 45.0523C33.3855 45.5524 32.7072 45.8333 32 45.8333ZM21.3333 35.1667C20.6261 35.1667 19.9478 34.8857 19.4477 34.3856C18.9476 33.8855 18.6667 33.2072 18.6667 32.5C18.6667 31.7927 18.9476 31.1145 19.4477 30.6144C19.9478 30.1143 20.6261 29.8333 21.3333 29.8333H42.6667C43.3739 29.8333 44.0522 30.1143 44.5523 30.6144C45.0524 31.1145 45.3333 31.7927 45.3333 32.5C45.3333 33.2072 45.0524 33.8855 44.5523 34.3856C44.0522 34.8857 43.3739 35.1667 42.6667 35.1667H21.3333ZM44 59.3014V44.4047H58.9L44 59.3014Z" fill="#001D94"/>
</svg>
