<svg width="70" height="65" viewBox="0 0 70 65" fill="none" xmlns="http://www.w3.org/2000/svg">
<g clip-path="url(#clip0_2733_6002)">
<path d="M34.9922 64.4822C54.3173 64.4822 69.9833 50.1603 69.9833 32.4927C69.9833 14.8251 54.3173 0.502441 34.9922 0.502441C15.6671 0.502441 0.000976562 14.8251 0.000976562 32.4927C0.000976562 50.1603 15.6671 64.4822 34.9922 64.4822Z" fill="#00A1FF"/>
<path fill-rule="evenodd" clip-rule="evenodd" d="M22.3045 29.2952C24.0631 29.2952 25.4909 30.7268 25.4909 32.4902C25.4909 34.2535 24.0631 35.6852 22.3045 35.6852C20.5459 35.6852 19.1182 34.2535 19.1182 32.4902C19.1182 30.7268 20.5459 29.2952 22.3045 29.2952ZM35.0499 29.2952C36.8084 29.2952 38.2362 30.7268 38.2362 32.4902C38.2362 34.2535 36.8084 35.6852 35.0499 35.6852C33.2913 35.6852 31.8635 34.2535 31.8635 32.4902C31.8635 30.7268 33.2913 29.2952 35.0499 29.2952ZM47.7953 29.2952C49.5538 29.2952 50.9816 30.7268 50.9816 32.4902C50.9816 34.2535 49.5538 35.6852 47.7953 35.6852C46.0367 35.6852 44.6089 34.2535 44.6089 32.4902C44.6089 30.7268 46.0367 29.2952 47.7953 29.2952Z" fill="white"/>
<path fill-rule="evenodd" clip-rule="evenodd" d="M18.8989 64.4002H0V46.5586C3.734 54.4063 10.475 60.7759 18.8989 64.4002Z" fill="#00A1FF"/>
</g>
<defs>
<clipPath id="clip0_2733_6002">
<rect width="70" height="64" fill="white" transform="translate(0 0.5)"/>
</clipPath>
</defs>
</svg>
