<svg width="32" height="32" viewBox="0 0 32 32" fill="none" xmlns="http://www.w3.org/2000/svg">
<path d="M31 14.9999C30.9983 13.4092 30.3657 11.884 29.2408 10.7591C28.116 9.63427 26.5908 9.0016 25 8.99994H20.025C19.6612 8.97869 13.3225 8.53244 7.28625 3.46994C6.99476 3.22513 6.63946 3.06859 6.26208 3.01871C5.88471 2.96883 5.50094 3.02768 5.15585 3.18834C4.81076 3.34901 4.51869 3.60482 4.31395 3.92572C4.1092 4.24662 4.00029 4.61929 4 4.99994V24.9999C4.00005 25.3807 4.10879 25.7535 4.31345 26.0746C4.5181 26.3957 4.81015 26.6517 5.15529 26.8125C5.50042 26.9734 5.88429 27.0323 6.26178 26.9825C6.63926 26.9326 6.99468 26.7761 7.28625 26.5312C12.0075 22.5712 16.9113 21.4362 19 21.1187V25.0837C18.9996 25.4133 19.0806 25.7378 19.2359 26.0285C19.3912 26.3192 19.6159 26.567 19.89 26.7499L21.265 27.6662C21.5308 27.8436 21.8352 27.9547 22.1527 27.9903C22.4703 28.0258 22.7917 27.9848 23.0901 27.8706C23.3885 27.7564 23.6553 27.5723 23.8679 27.3339C24.0806 27.0954 24.2331 26.8094 24.3125 26.4999L25.7838 20.9549C27.2272 20.7629 28.5517 20.0532 29.5112 18.9579C30.4706 17.8626 30.9997 16.4561 31 14.9999ZM6 24.9912V4.99994C11.3513 9.48869 16.8287 10.6249 19 10.9049V19.0899C16.8312 19.3749 11.355 20.5087 6 24.9912ZM22.375 25.9912V26.0049L21 25.0887V20.9999H23.7L22.375 25.9912ZM25 18.9999H21V10.9999H25C26.0609 10.9999 27.0783 11.4214 27.8284 12.1715C28.5786 12.9217 29 13.9391 29 14.9999C29 16.0608 28.5786 17.0782 27.8284 17.8284C27.0783 18.5785 26.0609 18.9999 25 18.9999Z" fill="#0325B6"/>
</svg>
