<svg width="127" height="32" viewBox="0 0 127 32" fill="none" xmlns="http://www.w3.org/2000/svg">
<g clip-path="url(#clip0_329_1064)">
<path d="M47.2545 15.1153C47.2545 6.76567 36.8922 0 24.1197 0C11.3471 0 0.981934 6.79656 0.981934 15.1153V16C0.981934 24.8383 10.0345 32 24.1197 32C38.2048 32 47.2574 24.8383 47.2574 16V15.1153H47.2545Z" fill="#2D3277"/>
<path d="M46.3692 15.1154C46.3692 22.9483 36.4001 29.3488 24.117 29.3488C11.8338 29.3488 1.86469 22.9763 1.86469 15.1154C1.86469 7.25439 11.831 0.881912 24.117 0.881912C36.4029 0.881912 46.3692 7.25158 46.3692 15.1154Z" fill="#F7D032"/>
<path d="M16.7278 10.6078C16.7278 10.6387 16.4845 10.8522 16.6373 11.0347C17.0022 11.4925 18.0687 11.7368 19.1663 11.4925C19.8057 11.3408 20.66 10.6696 21.4521 10.0293C22.3375 9.32714 23.189 8.62782 24.0745 8.35259C24.9882 8.04646 25.5993 8.17004 25.9953 8.2908C26.4225 8.41157 26.9402 8.6868 27.7323 9.29624C29.2571 10.4533 35.3845 15.7867 36.4199 16.7022C37.2742 16.3063 41.0537 14.6914 46.2051 13.5623C45.7468 10.8184 44.1004 8.3217 41.5714 6.24903C38.0352 7.74315 33.7381 8.50425 29.5315 6.43158C29.5004 6.43158 27.2146 5.33346 24.9882 5.39524C21.636 5.48512 20.2017 6.92026 18.6769 8.44246L16.725 10.605L16.7278 10.6078Z" fill="white"/>
<path d="M36.2105 17.3481C36.1483 17.2864 29.0166 11.0403 27.4012 9.84945C26.4564 9.14733 25.9387 8.96478 25.3899 8.9058C25.1155 8.87491 24.7194 8.93669 24.445 8.99567C23.684 9.20912 22.7081 9.84946 21.8537 10.5488C20.94 11.279 20.0857 11.9502 19.3247 12.1328C18.3176 12.3462 17.07 12.1019 16.5212 11.7059C16.3091 11.5542 16.1252 11.3717 16.0629 11.1891C15.8508 10.7004 16.2468 10.3353 16.3062 10.2455L18.2582 8.111C18.5015 7.86666 18.7165 7.65321 18.9598 7.43977C18.3204 7.52964 17.7405 7.6841 17.1606 7.83576C16.459 8.04921 15.7574 8.23176 15.0558 8.23176C14.7503 8.23176 13.2255 7.98742 12.9228 7.89755C11.1548 7.40887 9.57058 6.923 7.25369 5.85577C4.44741 7.93125 2.58598 10.5516 2.03717 13.4162C2.43322 13.537 3.07255 13.7224 3.34696 13.7813C9.68656 15.1828 11.6385 16.646 12.0034 16.9521C12.3995 16.5252 12.9483 16.25 13.5565 16.25C14.2581 16.25 14.8974 16.6151 15.2624 17.1347C15.6273 16.8595 16.1167 16.6179 16.756 16.6179C17.0616 16.6179 17.3671 16.6797 17.6698 16.7696C18.3713 17.0139 18.7674 17.4998 18.9513 17.9267C19.1946 17.8059 19.5001 17.7441 19.8367 17.7441C20.1734 17.7441 20.5383 17.834 20.8721 17.9885C22.0291 18.4772 22.213 19.6343 22.1225 20.488H22.3658C23.7378 20.488 24.8665 21.6171 24.8665 22.9876C24.8665 23.4145 24.7449 23.8105 24.561 24.1756C24.9259 24.389 25.9019 24.8777 26.7251 24.7541C27.3956 24.6643 27.6389 24.448 27.7322 24.2964C27.7945 24.2065 27.8539 24.1138 27.7945 24.0211L25.9953 22.0411C25.9953 22.0411 25.6897 21.7659 25.8114 21.6451C25.9019 21.5244 26.0858 21.7069 26.2074 21.7968C27.1212 22.5579 28.2188 23.6869 28.2188 23.6869C28.2499 23.6869 28.3093 23.8386 28.7054 23.9313C29.0703 23.993 29.6814 23.9621 30.1085 23.597C30.2302 23.5072 30.3207 23.3836 30.414 23.2909L30.3829 23.3218C30.8412 22.7433 30.3207 22.1338 30.3207 22.1338L28.2471 19.7859C28.2471 19.7859 27.9416 19.5107 28.0632 19.3899C28.1537 19.3 28.3376 19.4517 28.4904 19.5416C29.2825 20.0583 30.1962 21.0048 31.1128 21.8895C31.2967 22.0102 32.0888 22.4989 33.1241 21.8277C33.7635 21.4008 33.8851 20.9149 33.8568 20.5161C33.8257 19.9994 33.4297 19.6314 33.4297 19.6314L30.5951 16.7668C30.5951 16.7668 30.2896 16.5224 30.4112 16.3708C30.5017 16.25 30.6856 16.4326 30.8073 16.5224C31.721 17.2835 34.1595 19.5388 34.1595 19.5388C34.1906 19.5697 35.045 20.1791 36.0804 19.5079C36.4453 19.2635 36.6914 18.8984 36.7197 18.5024C36.7197 17.7722 36.202 17.3453 36.202 17.3453" fill="white"/>
<path d="M22.4138 20.9738C21.9867 20.9738 21.5001 21.2181 21.4379 21.1872C21.4068 21.1564 21.469 20.9738 21.5001 20.8811C21.5312 20.7912 22.1112 19.0219 20.708 18.4124C19.6104 17.9547 18.9711 18.4742 18.7278 18.7186C18.6655 18.7804 18.6372 18.7804 18.6372 18.6877C18.6061 18.3816 18.4845 17.5306 17.5396 17.2245C16.1987 16.8285 15.3444 17.7412 15.1322 18.0782C15.0417 17.3171 14.3995 16.7386 13.6074 16.7386C12.7531 16.7386 12.0544 17.4407 12.0544 18.2917C12.0544 19.1427 12.7559 19.8448 13.6074 19.8448C14.0346 19.8448 14.3995 19.6931 14.6739 19.4179V19.4797C14.6117 19.8448 14.4901 21.2462 15.9554 21.8276C16.5354 22.041 17.053 21.8894 17.4491 21.5832C17.5707 21.4934 17.6019 21.5215 17.5707 21.645C17.5085 22.0101 17.5707 22.774 18.6684 23.1981C19.4916 23.5323 19.9782 23.1981 20.2837 22.892C20.4364 22.7712 20.4676 22.8021 20.4676 22.9819C20.4987 24.0491 21.3813 24.872 22.4195 24.872C23.4577 24.872 24.3715 23.9873 24.3715 22.9201C24.3715 21.8529 23.486 20.9682 22.4195 20.9682" fill="white"/>
<path d="M22.4139 24.7316C21.4379 24.7316 20.6458 23.9705 20.6147 22.9959C20.6147 22.9061 20.6147 22.6898 20.4308 22.6898C20.3403 22.6898 20.278 22.7516 20.2186 22.8106C20.0065 23.024 19.7321 23.2066 19.3332 23.2066C19.1493 23.2066 18.9683 23.1757 18.7533 23.0858C17.7179 22.6589 17.7179 21.9568 17.7462 21.6844C17.7462 21.5945 17.7462 21.5327 17.715 21.4709L17.6528 21.4091H17.5312C17.4689 21.4091 17.4095 21.44 17.3473 21.4709C17.0418 21.6844 16.7674 21.777 16.4618 21.777C16.3091 21.777 16.128 21.7461 15.9753 21.6872C14.6032 21.1704 14.7249 19.8897 14.7871 19.4937C14.7871 19.4039 14.7871 19.3421 14.7249 19.3112L14.6344 19.2213L14.5438 19.3112C14.2694 19.5555 13.9328 19.7072 13.5679 19.7072C12.7758 19.7072 12.1647 19.0668 12.1647 18.3057C12.1647 17.5446 12.804 16.9043 13.5679 16.9043C14.2694 16.9043 14.8776 17.4211 14.971 18.1232L15.0332 18.4883L15.2454 18.1541C15.2765 18.1232 15.8253 17.2413 16.8918 17.2694C17.104 17.2694 17.2879 17.3003 17.5029 17.3593C18.3261 17.6036 18.4789 18.3647 18.51 18.6989C18.5411 18.8815 18.6627 18.8815 18.6939 18.8815C18.7561 18.8815 18.8155 18.8197 18.8466 18.7916C18.9994 18.6399 19.3332 18.3647 19.882 18.3647C20.1253 18.3647 20.3997 18.4265 20.6741 18.5473C22.015 19.1258 21.4068 20.8025 21.4068 20.8334C21.2851 21.1086 21.2851 21.2294 21.4068 21.3221L21.469 21.353H21.5001C21.5624 21.353 21.6218 21.3221 21.7434 21.2912C21.9273 21.2294 22.2017 21.1395 22.445 21.1395C23.4521 21.1395 24.2753 21.9624 24.2753 22.9678C24.2442 23.9115 23.421 24.7344 22.4167 24.7344M36.4991 16.5926C34.3038 14.6715 29.2429 10.2538 27.8737 9.24834C27.0816 8.66979 26.5639 8.33558 26.0745 8.21201C25.8623 8.15022 25.5568 8.09124 25.1891 8.09124C24.8552 8.09124 24.4564 8.15303 24.0603 8.27379C23.1749 8.54902 22.2922 9.24834 21.4379 9.95046L21.4068 9.98136C20.6147 10.6217 19.7915 11.262 19.1521 11.4137C18.8777 11.4755 18.6033 11.5036 18.3289 11.5036C17.6274 11.5036 17.0191 11.2901 16.7758 11.0149C16.7447 10.9531 16.7758 10.8941 16.8664 10.7705V10.7397L18.7872 8.66698C20.312 7.14197 21.7123 5.74053 25.0052 5.65066H25.1579C27.2004 5.65066 29.2429 6.56342 29.4862 6.68699C31.407 7.63065 33.3873 8.08843 35.3703 8.08843C37.3534 8.08843 39.5769 7.57167 41.8316 6.53533C41.5883 6.32189 41.3139 6.10844 41.0395 5.92589C39.0592 6.77967 37.1667 7.20656 35.3703 7.20656C33.574 7.20656 31.6503 6.74878 29.8539 5.895C29.7634 5.83321 27.5059 4.79688 25.1608 4.79688H24.9769C22.2017 4.85866 20.6486 5.83321 19.6133 6.68699C18.6062 6.71789 17.7235 6.96222 16.9314 7.17567C16.2299 7.35822 15.6216 7.54078 15.0417 7.54078C14.7984 7.54078 14.3713 7.50988 14.3401 7.50988C13.6697 7.47899 10.2552 6.6561 7.57338 5.61976C7.29897 5.80232 7.02457 6.01576 6.78128 6.22921C9.61586 7.38631 13.0615 8.27098 14.128 8.36366C14.4335 8.39456 14.739 8.42545 15.0728 8.42545C15.8055 8.42545 16.5043 8.21201 17.2058 8.02945C17.6019 7.90869 18.0602 7.78511 18.5468 7.69524C18.4251 7.81601 18.3035 7.93958 18.1507 8.06035L16.1987 10.1948C16.046 10.3465 15.7122 10.7734 15.9243 11.2929C16.0149 11.5064 16.1987 11.6889 16.442 11.8715C16.9003 12.1776 17.7518 12.3882 18.5156 12.3882C18.8212 12.3882 19.0956 12.3573 19.3388 12.2984C20.1621 12.1158 21.0164 11.4137 21.9301 10.7144C22.6628 10.1358 23.6982 9.40281 24.4903 9.18936C24.7025 9.12758 24.9769 9.09949 25.1919 9.09949H25.3758C25.8935 9.16128 26.4111 9.34383 27.2966 10.0123C28.9119 11.2311 36.0464 17.4491 36.1058 17.5081C36.1058 17.5081 36.5641 17.9041 36.533 18.5445C36.5019 18.9096 36.3208 19.2466 35.9531 19.4572C35.6476 19.6398 35.342 19.7633 35.0082 19.7633C34.5217 19.7633 34.2161 19.5499 34.185 19.519C34.1539 19.4881 31.7154 17.2638 30.8327 16.5027C30.68 16.3819 30.5583 16.2892 30.4056 16.2892C30.3433 16.2892 30.2528 16.3201 30.2217 16.3791C30.0689 16.5617 30.2528 16.806 30.4339 16.9577L33.2996 19.8223C33.2996 19.8223 33.6645 20.1565 33.6956 20.5834C33.7267 21.0721 33.4834 21.4681 33.0252 21.7714C32.6913 21.9849 32.3547 22.1056 32.0181 22.1056C31.5909 22.1056 31.2854 21.8922 31.1948 21.8613L30.7988 21.4653C30.0378 20.7351 29.274 19.9712 28.7252 19.4853C28.5724 19.3645 28.4508 19.2719 28.298 19.2719C28.2358 19.2719 28.1764 19.3028 28.1142 19.3336C28.0519 19.3954 27.9925 19.5471 28.1764 19.7605C28.2386 19.8504 28.3291 19.9122 28.3291 19.9122L30.4027 22.2601C30.4339 22.291 30.8299 22.7769 30.465 23.2655H30.3433L30.1595 23.4481C29.7945 23.7542 29.3362 23.7823 29.1524 23.7823C29.0618 23.7823 28.9685 23.7823 28.878 23.7514C28.6658 23.7205 28.5441 23.6615 28.4819 23.5689L28.4508 23.538C28.3291 23.4172 27.2938 22.35 26.4083 21.617C26.2867 21.5271 26.165 21.4035 26.0123 21.4035C25.95 21.4035 25.8906 21.4344 25.8284 21.4934C25.6445 21.6759 25.9189 21.9512 26.0123 22.0719L27.7803 24.0238C27.7803 24.0547 27.7492 24.0856 27.7181 24.1446C27.6559 24.2345 27.4437 24.4507 26.8044 24.5406H26.5611C25.8906 24.5406 25.1891 24.2064 24.8241 24.0238C24.9769 23.6587 25.0674 23.2936 25.0674 22.8948C25.0674 21.4316 23.8793 20.2436 22.4139 20.2436H22.3234C22.3856 19.5724 22.2611 18.3226 20.9824 17.744C20.6175 17.5924 20.2498 17.4997 19.8848 17.4997C19.6104 17.4997 19.336 17.5615 19.0616 17.6514C18.7872 17.1346 18.36 16.7386 17.7518 16.5532C17.418 16.4325 17.1125 16.4016 16.807 16.4016C16.2582 16.4016 15.7716 16.5532 15.3133 16.8903C14.8861 16.3735 14.2468 16.0365 13.5763 16.0365C12.9964 16.0365 12.4193 16.2808 11.9921 16.6768C11.4433 16.2499 9.2481 14.8485 3.36678 13.5369C3.09237 13.4751 2.42192 13.2926 2.02587 13.1718C1.96363 13.4779 1.90423 13.8121 1.87311 14.1464C1.87311 14.1464 2.93961 14.4216 3.15461 14.4525C9.1604 15.7921 11.1406 17.1655 11.4773 17.4379C11.3556 17.7131 11.2934 18.0165 11.2934 18.2917C11.2934 19.5415 12.3005 20.5469 13.5481 20.5469C13.7008 20.5469 13.8225 20.5469 13.9441 20.516C14.128 21.4288 14.7362 22.1309 15.6499 22.4679C15.9243 22.5578 16.1987 22.6196 16.442 22.6196C16.6259 22.6196 16.7758 22.5887 16.9597 22.5578C17.1436 22.9847 17.5085 23.5323 18.3629 23.8694C18.6684 23.9901 18.9428 24.0519 19.2483 24.0519C19.4916 24.0519 19.7066 24.021 19.9188 23.9312C20.3148 24.9057 21.2908 25.5769 22.3573 25.5769C23.0589 25.5769 23.7604 25.3017 24.247 24.7849C24.6742 25.0293 25.5879 25.4562 26.5017 25.4562C26.6233 25.4562 26.745 25.4562 26.8355 25.4253C27.7492 25.3045 28.1764 24.9675 28.3603 24.6951C28.3914 24.6333 28.4225 24.6052 28.4508 24.5434C28.663 24.6052 28.9091 24.6642 29.1835 24.6642C29.6701 24.6642 30.1595 24.4816 30.646 24.1474C31.1043 23.8132 31.4381 23.3245 31.5004 22.8976V22.8667C31.6842 22.8667 31.8653 22.8976 32.0181 22.8976C32.5358 22.8976 33.0252 22.746 33.5117 22.4398C34.4255 21.8304 34.6093 21.0384 34.5782 20.5188C34.731 20.5497 34.912 20.5806 35.0648 20.5806C35.5514 20.5806 36.0097 20.429 36.4679 20.1537C37.0479 19.7886 37.3817 19.241 37.4439 18.5697C37.475 18.112 37.3817 17.6851 37.1384 17.2891C38.6915 16.6178 42.2305 15.3372 46.3748 14.3935C46.3437 14.0593 46.3126 13.7532 46.2532 13.4498C41.1922 14.548 37.4439 16.1629 36.4991 16.5897" fill="#2D3277"/>
<path d="M123.689 11.4616C123.296 12.0036 122.722 12.248 121.969 12.248C121.217 12.248 120.64 11.9756 120.246 11.4616C119.853 10.9196 119.644 10.1641 119.644 9.19795C119.644 8.23183 119.856 7.44545 120.246 6.93431C120.64 6.39227 121.242 6.14793 121.969 6.14793C122.696 6.14793 123.296 6.42035 123.689 6.93431C124.082 7.47635 124.295 8.23183 124.295 9.19795C124.295 10.1641 124.113 10.9505 123.689 11.4616ZM125.743 5.51321C124.928 4.48811 123.661 3.97415 121.969 3.97415C120.277 3.97415 119.038 4.48811 118.195 5.51321C117.381 6.53831 116.956 7.77685 116.956 9.19795C116.956 10.6191 117.381 11.8548 118.195 12.8827C119.01 13.9078 120.277 14.4218 121.969 14.4218C123.661 14.4218 124.9 13.9078 125.743 12.8827C126.558 11.8576 126.982 10.6191 126.982 9.19795C126.982 7.77685 126.589 6.57201 125.743 5.51321Z" fill="#2D3277"/>
<path d="M103.298 10.2509C103.267 11.1271 103.027 11.7 102.574 12.0314C102.09 12.3629 101.578 12.5145 101.032 12.5145C100.67 12.5145 100.367 12.4246 100.127 12.214C99.8865 12.0343 99.7649 11.7 99.7649 11.2479C99.7649 10.7648 99.977 10.4025 100.367 10.161C100.608 10.0093 101.001 9.91946 101.544 9.79869L102.119 9.67793C102.421 9.61614 102.633 9.55716 102.812 9.49819C102.993 9.4364 103.145 9.34653 103.295 9.25665V10.2537L103.298 10.2509ZM104.597 4.66476C103.751 4.24068 102.786 4.03004 101.728 4.03004C100.068 4.03004 98.8907 4.45413 98.2259 5.32757C97.8044 5.86961 97.5611 6.5942 97.5017 7.44237H99.977C100.036 7.04918 100.158 6.74867 100.339 6.53803C100.58 6.23752 101.032 6.08586 101.638 6.08586C102.181 6.08586 102.605 6.14765 102.877 6.32739C103.148 6.47905 103.298 6.75148 103.298 7.17275C103.298 7.50415 103.117 7.74568 102.755 7.89734C102.543 7.98721 102.212 8.049 101.728 8.10798L100.851 8.22874C99.8554 8.34951 99.1001 8.56015 98.5852 8.86346C97.6488 9.4055 97.1651 10.2818 97.1651 11.4894C97.1651 12.4246 97.4678 13.1492 98.0421 13.6632C98.6163 14.1771 99.3717 14.3878 100.246 14.4187C105.861 14.6602 105.802 11.4585 105.861 10.7957V7.11096C105.861 5.90331 105.437 5.08885 104.591 4.66476H104.597Z" fill="#2D3277"/>
<path d="M91.8099 6.23213C92.4436 6.23213 92.9273 6.44277 93.23 6.83596C93.4422 7.13647 93.561 7.47068 93.6233 7.83297H96.4012C96.2485 6.44558 95.7676 5.44856 94.9217 4.90371C94.107 4.36167 93.049 4.08925 91.7505 4.08925C90.2087 4.08925 89.0319 4.54142 88.1578 5.47665C87.2808 6.41187 86.8593 7.71221 86.8593 9.40292C86.8593 10.883 87.2525 12.1187 88.0361 13.0259C88.8226 13.9611 90.0588 14.4133 91.7194 14.4133C93.38 14.4133 94.6501 13.8403 95.4932 12.7226C96.0363 12.0289 96.3079 11.3043 96.3984 10.5179H93.6487C93.5893 11.0318 93.4365 11.4531 93.165 11.7845C92.8934 12.1159 92.4408 12.2676 91.8071 12.2676C90.9018 12.2676 90.2964 11.8744 89.9937 11.029C89.8127 10.605 89.7222 10.0039 89.7222 9.30743C89.7222 8.55195 89.8127 7.94812 89.9937 7.49595C90.2653 6.6506 90.899 6.22932 91.8071 6.22932L91.8099 6.23213Z" fill="#2D3277"/>
<path d="M86.0898 4.061C80.4122 4.061 80.7431 9.10225 80.7431 9.10225V14.2053H83.309V9.40557C83.309 8.61919 83.3995 8.04626 83.6117 7.65307C83.9738 6.99027 84.6697 6.65605 85.6966 6.65605H85.9993C86.1209 6.65605 86.2708 6.68695 86.4208 6.68695V4.061H86.0898Z" fill="#2D3277"/>
<path d="M73.139 6.73485C73.5011 6.37256 74.016 6.16192 74.6808 6.16192C75.2834 6.16192 75.7982 6.34167 76.1914 6.70396C76.5847 7.06626 76.8251 7.58021 76.8845 8.24302H72.4742C72.5648 7.6083 72.7769 7.09434 73.139 6.73205V6.73485ZM76.613 11.5346C76.4913 11.6862 76.4008 11.8351 76.2509 11.9278C75.8888 12.2283 75.405 12.321 74.8024 12.321C74.2593 12.321 73.8067 12.2311 73.4134 11.9896C72.7798 11.5964 72.4177 10.9336 72.3554 9.93654H79.4815C79.4815 9.09118 79.4504 8.42557 79.391 8.0043C79.2693 7.24881 78.9977 6.55511 78.6045 5.98218C78.1519 5.31937 77.5776 4.8335 76.9128 4.53299C76.2197 4.23248 75.4644 4.08083 74.6186 4.08083C73.1702 4.08083 72.0216 4.53299 71.1164 5.44014C70.2111 6.34447 69.7585 7.64481 69.7585 9.33552C69.7585 11.147 70.2734 12.4445 71.2691 13.2618C72.2649 14.0763 73.4134 14.4695 74.7119 14.4695C76.282 14.4695 77.521 13.9864 78.3952 13.0512C78.8789 12.5372 79.1505 12.0541 79.3004 11.5711L76.613 11.5402V11.5346Z" fill="#2D3277"/>
<path d="M66.4346 14.2082V8.25984C66.4346 7.7178 66.2535 6.41746 64.7146 6.41746C63.6877 6.41746 62.9324 7.17295 62.9324 8.25984V14.2082H60.5759V8.25984C60.5759 7.7178 60.426 6.41746 58.8559 6.41746C57.7979 6.41746 57.0737 7.17295 57.0737 8.25984V14.2082H54.7172V8.32162C54.7172 5.87542 56.3467 4.03305 58.8531 4.03305C60.0922 4.03305 61.1191 4.54701 61.7839 5.39236C62.4798 4.54701 63.5038 4.03305 64.7146 4.03305C67.2804 4.03305 68.7911 5.81364 68.7911 8.32162V14.2082H66.4346Z" fill="#2D3277"/>
<path d="M113.115 11.4981C112.752 12.0401 112.178 12.3126 111.454 12.3126C110.73 12.3126 110.187 12.0401 109.825 11.4981C109.462 10.9561 109.281 10.1697 109.281 9.26253C109.281 8.41717 109.462 7.72347 109.796 7.14773C110.158 6.5748 110.701 6.30237 111.457 6.30237C111.941 6.30237 112.393 6.45403 112.755 6.75454C113.361 7.2685 113.661 8.20373 113.661 9.38049C113.692 10.2567 113.48 10.9504 113.117 11.4953L113.115 11.4981ZM116.195 0.960617C116.195 0.960617 113.598 0.688192 113.598 2.7721V5.5497C113.296 5.09753 112.934 4.73523 112.481 4.46281C112.028 4.19039 111.485 4.06962 110.911 4.06962C109.612 4.06962 108.585 4.55268 107.83 5.5188C107.047 6.48493 106.682 7.87232 106.682 9.53495C106.682 10.9841 107.075 12.1609 107.858 13.0989C108.645 14.0342 110.184 14.4274 111.542 14.4274C116.283 14.4274 116.255 10.3522 116.255 10.3522L116.195 0.963425V0.960617Z" fill="#2D3277"/>
<path d="M101.004 21.7714C101.366 21.4091 101.881 21.2293 102.515 21.2293C103.148 21.2293 103.601 21.4091 104.025 21.7433C104.418 22.1056 104.659 22.6195 104.69 23.2823H100.311C100.433 22.6476 100.642 22.1337 101.004 21.7714ZM104.447 26.543C104.325 26.6947 104.235 26.8154 104.085 26.9362C103.723 27.2367 103.208 27.3294 102.636 27.3294C102.093 27.3294 101.669 27.2395 101.278 26.998C100.645 26.6048 100.311 25.9111 100.251 24.945H107.318C107.318 24.0996 107.287 23.4649 107.228 23.0127C107.106 22.2572 106.865 21.5944 106.441 20.9906C105.989 20.325 105.445 19.8419 104.749 19.5414C104.085 19.2409 103.301 19.0892 102.455 19.0892C101.035 19.0892 99.8583 19.5414 98.9813 20.4486C98.1072 21.3529 97.6545 22.6223 97.6545 24.3131C97.6545 26.1245 98.1383 27.3912 99.1341 28.2084C100.13 28.9948 101.278 29.4161 102.546 29.4161C104.116 29.4161 105.324 28.933 106.201 27.9978C106.684 27.5147 106.956 27.0008 107.078 26.5177H104.45V26.5486L104.447 26.543Z" fill="#2D3277"/>
<path d="M97.0832 19.137C91.4055 19.137 91.7365 24.1783 91.7365 24.1783V29.1914H94.3024V24.4816C94.3024 23.6952 94.3929 23.1223 94.605 22.7291C94.9671 22.0663 95.6602 21.7321 96.6871 21.7321H96.9898C97.1115 21.7321 97.2614 21.763 97.4113 21.763V19.137H97.0804H97.0832Z" fill="#2D3277"/>
<path d="M74.313 17.8088V29.1607H76.7289V15.9664C76.7601 15.9664 74.313 15.8765 74.313 17.8088Z" fill="#2D3277"/>
<path d="M81.3204 18.5191H78.7292V15.9549H81.3204V18.5191Z" fill="#2D3277"/>
<path d="M78.7234 29.1914H81.3175V19.3897H78.7234V29.1914Z" fill="#2D3277"/>
<path d="M88.2681 29.1663H85.6712L82.2595 19.3871H84.9753L86.9386 26.2679L88.6585 20.2606C88.8707 19.6567 89.2611 19.3843 89.8354 19.3843H91.7364L88.2653 29.1635L88.2681 29.1663Z" fill="#2D3277"/>
</g>
<defs>
<clipPath id="clip0_329_1064">
<rect width="126" height="32" fill="white" transform="translate(0.981934)"/>
</clipPath>
</defs>
</svg>
