<svg width="200" height="32" viewBox="0 0 200 32" fill="none" xmlns="http://www.w3.org/2000/svg">
<g clip-path="url(#clip0_331_897)">
<path d="M57.7951 24.9288H54.3774V10.6652H57.7951V12.5586C58.7007 11.1722 60.1979 10.3152 62.2094 10.3152C65.75 10.3152 67.7978 12.6125 67.7978 16.332V24.9288H64.3801V16.9826C64.3801 14.7706 63.2788 13.4201 61.1581 13.4201C59.0374 13.4201 57.7769 14.9635 57.7769 17.3864V24.9288H57.7951ZM70.3054 18.7729V10.6697H73.7231V18.5799C73.7231 20.8233 74.8244 22.1784 76.7494 22.1784C78.6744 22.1784 79.7757 20.8278 79.7757 18.5799V10.6697H83.157V18.7729C83.157 22.8783 80.7541 25.2473 76.7175 25.2473C72.7128 25.2832 70.3099 22.8783 70.3099 18.7729H70.3054ZM84.1809 10.6652H87.8307L91.6899 20.5586L95.5854 10.6652H99.126L93.1825 24.9288H90.1562L84.1764 10.6652H84.1809ZM112.901 21.5592C111.691 23.8026 109.447 25.2428 106.371 25.2428C101.975 25.2428 98.862 22.1739 98.862 17.7858C98.862 13.3976 102.048 10.3287 106.212 10.3287C110.376 10.3287 113.402 13.5412 113.402 17.7858C113.402 18.0505 113.402 18.4004 113.366 18.8043H102.262C102.421 20.8547 104.273 22.4162 106.426 22.4162C108.31 22.4162 109.288 21.5233 110.089 20.2759L112.901 21.5547V21.5592ZM110.003 16.3679C109.77 14.4745 108.241 13.0701 106.143 13.0701C104.045 13.0701 102.494 14.7347 102.284 16.3679H110.007H110.003ZM118.649 24.9288H115.231V10.6652H118.649V12.5586C119.468 11.1722 120.802 10.3152 122.777 10.3152C124.857 10.3152 126.39 11.3158 127.173 12.9804C127.956 11.5939 129.576 10.3152 131.979 10.3152C135.324 10.3152 137.244 12.5945 137.244 16.1391V24.8749H133.826V16.8031C133.826 14.7168 132.848 13.3976 131.068 13.3976C129.289 13.3976 128.006 14.8693 127.992 17.2025V24.9198H124.574V16.9198C124.574 14.7078 123.596 13.3932 121.817 13.3932C119.932 13.3932 118.74 14.9007 118.74 17.3416V24.9198H118.649V24.9288ZM141.372 20.2086C141.854 21.5233 142.955 22.3847 144.27 22.3847C145.34 22.3847 146.227 21.9091 146.227 20.9131C146.227 20.1054 145.745 19.7196 144.571 19.3696L142.81 18.8267C140.37 18.055 139.146 16.6865 139.146 14.6854C139.146 12.0202 141.422 10.3331 144.111 10.3331C146.478 10.3331 148.435 11.5805 149.377 13.5592L146.655 14.9994C146.104 13.8777 145.231 13.106 144.148 13.106C143.169 13.106 142.386 13.5816 142.386 14.4206C142.386 15.0892 142.901 15.6141 144.007 15.9641L145.731 16.507C148.435 17.3999 149.54 18.7863 149.54 20.6663C149.54 23.5782 147.069 25.2428 144.239 25.2428C141.408 25.2428 139.469 23.8385 138.65 21.631L141.372 20.2086ZM154.646 24.9288H151.247V5.35278H154.665V12.5631C155.57 11.1767 157.068 10.3197 159.079 10.3197C162.62 10.3197 164.667 12.6169 164.667 16.3365V24.9333H161.25V16.9871C161.25 14.7751 160.148 13.4246 158.028 13.4246C155.907 13.4246 154.646 14.968 154.646 17.3909V24.9333V24.9288ZM181.851 17.7902C181.851 21.9809 178.579 25.2473 174.147 25.2473C169.714 25.2473 166.442 21.9495 166.442 17.7902C166.442 13.631 169.714 10.3331 174.147 10.3331C178.593 10.3152 181.851 13.613 181.851 17.7902ZM169.86 17.7902C169.86 20.2266 171.744 22.1739 174.147 22.1739C176.55 22.1739 178.434 20.2266 178.434 17.7902C178.434 15.3539 176.55 13.4066 174.147 13.4066C171.744 13.4066 169.86 15.3539 169.86 17.7902ZM187.208 10.6652V12.7156C188.277 11.244 190.107 10.3466 192.118 10.3466C196.123 10.3466 199.163 13.5592 199.163 17.8037C199.163 22.0482 196.105 25.2608 192.118 25.2608C190.107 25.2608 188.291 24.4532 187.208 22.9635V30.2277H183.827V10.6652H187.208ZM191.39 13.4021C188.951 13.4021 187.067 15.3853 187.067 17.8216C187.067 20.258 188.951 22.2412 191.39 22.2412C193.829 22.2412 195.713 20.258 195.713 17.8216C195.713 15.3853 193.861 13.4021 191.39 13.4021ZM29.0427 0H29.0063C24.7558 0 20.7146 1.6332 17.7065 4.54515C16.1774 3.89456 14.4845 3.54459 12.7597 3.54459C5.80148 3.54459 0.162964 9.1576 0.162964 16C0.162964 22.8424 5.81968 28.4554 12.7962 28.4554C14.4845 28.4554 16.1774 28.1054 17.7065 27.4549C20.6236 30.2771 24.6284 32 29.0063 32C37.9761 32 45.2529 24.8256 45.2529 15.9821C45.2529 7.13853 37.9761 0 29.0427 0ZM29.0063 28.4913C22.048 28.4913 16.3731 22.8783 16.3731 16.0359H12.7597C12.7597 19.1767 13.6654 22.1245 15.2673 24.5967C14.4481 24.8256 13.6108 24.9467 12.7597 24.9467C7.79476 24.9467 3.72174 20.949 3.72174 16.0359C3.72174 11.1228 7.77655 7.12058 12.7597 7.12058C14.7348 7.12058 16.587 7.73528 18.1889 8.91082C20.5008 10.6113 21.8023 13.2092 21.8023 16.0179H25.4157C25.4157 12.2984 23.7956 8.84352 20.8967 6.47448C23.1721 4.61694 26.021 3.56254 29.0109 3.56254C35.9691 3.56254 41.6441 9.17555 41.6441 16.0179C41.6623 22.8783 36.0055 28.4913 29.0109 28.4913H29.0063Z" fill="#2C3357"/>
</g>
<defs>
<clipPath id="clip0_331_897">
<rect width="199" height="32" fill="white" transform="translate(0.162964)"/>
</clipPath>
</defs>
</svg>
