<svg width="32" height="32" viewBox="0 0 32 32" fill="none" xmlns="http://www.w3.org/2000/svg">
<path d="M16 3C13.4288 3 10.9154 3.76244 8.77759 5.1909C6.63975 6.61935 4.97351 8.64968 3.98957 11.0251C3.00563 13.4006 2.74819 16.0144 3.2498 18.5362C3.75141 21.0579 4.98953 23.3743 6.80762 25.1924C8.6257 27.0105 10.9421 28.2486 13.4638 28.7502C15.9856 29.2518 18.5995 28.9944 20.9749 28.0104C23.3503 27.0265 25.3807 25.3603 26.8091 23.2224C28.2376 21.0846 29 18.5712 29 16C28.9964 12.5533 27.6256 9.24882 25.1884 6.81163C22.7512 4.37445 19.4467 3.00364 16 3ZM16 27C13.8244 27 11.6977 26.3549 9.88873 25.1462C8.07979 23.9375 6.66989 22.2195 5.83733 20.2095C5.00477 18.1995 4.78693 15.9878 5.21137 13.854C5.63581 11.7202 6.68345 9.7602 8.22183 8.22183C9.76021 6.68345 11.7202 5.6358 13.854 5.21136C15.9878 4.78692 18.1995 5.00476 20.2095 5.83733C22.2195 6.66989 23.9375 8.07979 25.1462 9.88873C26.3549 11.6977 27 13.8244 27 16C26.9967 18.9164 25.8367 21.7123 23.7745 23.7745C21.7123 25.8367 18.9164 26.9967 16 27ZM14 10C14 9.60444 14.1173 9.21776 14.3371 8.88886C14.5568 8.55996 14.8692 8.30362 15.2346 8.15224C15.6001 8.00087 16.0022 7.96126 16.3902 8.03843C16.7781 8.1156 17.1345 8.30608 17.4142 8.58579C17.6939 8.86549 17.8844 9.22186 17.9616 9.60982C18.0387 9.99778 17.9991 10.3999 17.8478 10.7654C17.6964 11.1308 17.44 11.4432 17.1111 11.6629C16.7822 11.8827 16.3956 12 16 12C15.4696 12 14.9609 11.7893 14.5858 11.4142C14.2107 11.0391 14 10.5304 14 10ZM23 14C23 14.2652 22.8946 14.5196 22.7071 14.7071C22.5196 14.8946 22.2652 15 22 15H17V16.6975L20.8325 22.4475C20.9797 22.6683 21.0332 22.9385 20.9811 23.1987C20.9291 23.4589 20.7758 23.6878 20.555 23.835C20.3342 23.9822 20.064 24.0357 19.8038 23.9836C19.5436 23.9316 19.3147 23.7783 19.1675 23.5575L16 18.8075L12.8325 23.5575C12.7596 23.6668 12.6659 23.7607 12.5567 23.8338C12.4476 23.9069 12.3251 23.9578 12.1962 23.9836C11.936 24.0357 11.6658 23.9822 11.445 23.835C11.2242 23.6878 11.0709 23.4589 11.0189 23.1987C10.9669 22.9385 11.0203 22.6683 11.1675 22.4475L15 16.6975V15H10C9.73479 15 9.48044 14.8946 9.2929 14.7071C9.10536 14.5196 9.00001 14.2652 9.00001 14C9.00001 13.7348 9.10536 13.4804 9.2929 13.2929C9.48044 13.1054 9.73479 13 10 13H22C22.2652 13 22.5196 13.1054 22.7071 13.2929C22.8946 13.4804 23 13.7348 23 14Z" fill="#0325B6"/>
</svg>
