<svg width="113" height="32" viewBox="0 0 113 32" fill="none" xmlns="http://www.w3.org/2000/svg">
<g clip-path="url(#clip0_331_895)">
<path d="M12.8496 1.00492C13.0751 1.00492 13.1864 1.11658 13.4118 1.22824C12.0649 1.78653 10.7181 3.23522 10.0446 6.35877L7.57351 7.02872C8.35822 4.79843 9.93051 1.00779 12.8496 1.00779V1.00492ZM14.0852 2.1215C14.3106 2.79145 14.5332 3.57019 14.5332 4.79843V5.02174L11.2774 5.91501C11.9508 3.57305 13.0751 2.571 14.0852 2.12436V2.1215ZM17.0043 4.12848L15.5433 4.57511V4.24014C15.5433 3.23522 15.4321 2.45647 15.2066 1.78653C15.9913 2.00984 16.6676 3.0119 17.0043 4.12848ZM24.3036 5.91214C24.3036 5.80048 24.1923 5.68883 24.0782 5.68883C23.8527 5.68883 21.4958 5.46551 21.4958 5.46551C21.4958 5.46551 19.8122 3.79351 19.5868 3.68185C19.3613 3.45853 19.0246 3.57019 18.9133 3.57019C18.9133 3.57019 18.5766 3.68185 18.0145 3.90516C17.4523 2.34482 16.4422 0.893264 14.7586 0.893264H14.6473C14.1993 0.22618 13.5231 1.38173e-06 12.9638 1.38173e-06C8.92037 -0.111656 7.01423 4.90722 6.33794 7.46963C5.43909 7.69294 4.54024 8.02792 3.5301 8.36289C2.63124 8.58621 2.63124 8.69786 2.51996 9.47661C2.40867 10.0349 0.162964 27.6511 0.162964 27.6511L18.0145 30.9951L27.6707 28.8764C27.6707 28.8764 24.3036 6.12973 24.3036 5.90642V5.91214Z" fill="#8DB849"/>
<path d="M23.9012 6.08674C23.7871 6.08674 21.3873 5.86628 21.3873 5.86628C21.3873 5.86628 19.6723 4.22005 19.444 4.11125C19.367 4.03681 19.2928 4.00246 19.2157 4.00246L17.8461 31.0036L27.6707 28.9193C27.6707 28.9193 24.2436 6.52764 24.2436 6.31005C24.2436 6.20126 24.0153 6.0896 23.9012 6.0896V6.08674Z" fill="#5A863E"/>
<path d="M14.8984 11.4349L13.6201 14.8133C13.6201 14.8133 12.5728 14.2865 11.1803 14.2865C9.20569 14.2865 9.08869 15.343 9.08869 15.6579C9.08869 17.1352 13.5031 17.7679 13.5031 21.3582C13.5031 24.2069 11.5284 26.002 8.85471 26.002C5.71585 26.002 4.08936 24.2069 4.08936 24.2069L4.9026 21.6731C4.9026 21.6731 6.5291 22.9386 7.92446 22.9386C8.85471 22.9386 9.20283 22.3058 9.20283 21.779C9.20283 19.7749 5.60171 19.669 5.60171 16.3966C5.60171 13.6538 7.81032 11.0141 12.1106 11.0141C14.0852 10.9081 14.8984 11.4349 14.8984 11.4349Z" fill="#FFFFFE"/>
<path d="M39.3928 17.705C38.3884 17.1409 37.9432 16.6914 37.9432 16.1303C37.9432 15.343 38.6138 14.8935 39.7295 14.8935C40.9565 14.8935 42.0722 15.4575 42.0722 15.4575L42.9654 12.7548C42.9654 12.7548 42.1835 12.0791 39.8408 12.0791C36.4936 12.0791 34.2594 13.9916 34.2594 16.6943C34.2594 18.269 35.3751 19.397 36.7134 20.1843C37.8291 20.86 38.2771 21.3095 38.2771 21.9852C38.2771 22.6608 37.7178 23.3365 36.6021 23.3365C35.0384 23.3365 33.4775 22.5492 33.4775 22.5492L32.5844 25.2519C32.5844 25.2519 33.9226 26.1537 36.2682 26.1537C39.6154 26.1537 42.0722 24.4645 42.0722 21.4269C42.0722 19.7377 40.8452 18.5009 39.3928 17.7135V17.705ZM52.8984 11.9646C51.2234 11.9646 49.8851 12.7519 48.8807 13.9916L50.3303 6.33875H46.5351L42.8513 25.8102H46.6464L47.8734 19.168C48.3186 16.6914 49.6597 15.1168 50.8867 15.1168C51.7799 15.1168 52.1137 15.6808 52.1137 16.5798C52.1137 17.1438 52.1137 17.705 52.0024 18.269L50.5529 25.9218H54.348L55.7976 18.0428C55.9089 17.2555 56.0202 16.2419 56.0202 15.5663C56.0202 13.3159 54.9045 11.9646 52.8956 11.9646H52.8984ZM62.6089 23.1075C61.2706 23.1075 60.8226 21.9823 60.8226 20.631C60.8226 18.4923 61.9383 14.8906 63.9472 14.8906C65.2855 14.8906 65.7335 16.0158 65.7335 17.1409C65.7335 19.6175 64.6178 23.1075 62.6089 23.1075ZM64.5036 11.9646C59.9266 11.9646 56.9133 16.1303 56.9133 20.7426C56.9133 23.6686 58.6996 26.0335 62.1581 26.0335C66.6238 26.0335 69.6371 21.9823 69.6371 17.2555C69.6371 14.5528 68.0734 11.9646 64.5036 11.9646ZM75.6665 23.222C74.6621 23.222 74.1028 22.658 74.1028 22.658L74.7734 19.0563C75.2185 16.6914 76.4484 15.1168 77.7867 15.1168C78.9024 15.1168 79.3504 16.2419 79.3504 17.2555C79.2391 19.732 77.7867 23.222 75.6665 23.222ZM79.3504 11.9646C76.7823 11.9646 75.3327 14.2149 75.3327 14.2149L75.5552 12.1879H72.2081C72.0968 13.5393 71.7629 15.6779 71.4262 17.2526L68.7468 31.2098H72.542L73.5464 25.5811H73.6577C73.6577 25.5811 74.4395 26.0306 75.8891 26.0306C80.3548 26.0306 83.2569 21.4154 83.2569 16.8002C83.2569 14.3237 82.1411 11.9617 79.3504 11.9617V11.9646ZM88.6129 6.56207C87.3859 6.56207 86.4927 7.57558 86.4927 8.8124C86.4927 9.93757 87.1633 10.7249 88.279 10.7249C89.506 10.7249 90.5105 9.93757 90.5105 8.47457C90.5105 7.3494 89.7286 6.56207 88.6129 6.56207ZM83.3681 25.8102H87.1633L89.7315 12.3024H85.9363L83.3681 25.8102ZM99.3278 12.3024H96.6483L96.7596 11.6268C96.9822 10.2754 97.7641 9.15024 98.9911 9.15024C99.6616 9.15024 100.218 9.37642 100.218 9.37642L101 6.33875C101 6.33875 100.332 6.00092 98.9911 6.00092C97.6499 6.00092 96.3116 6.33875 95.3072 7.23774C93.9689 8.36291 93.4096 9.94044 93.0758 11.5151L92.9645 12.1908H91.1782L90.6217 15.1168H92.408L90.3992 25.8102H94.1943L96.2032 15.1168H98.7714L99.3278 12.3024ZM108.368 12.3024C108.368 12.3024 106.025 18.269 104.906 21.5328C104.795 20.5193 104.013 12.3024 104.013 12.3024H99.9955L102.227 24.685C102.227 24.9112 102.227 25.1345 102.116 25.3607C101.671 26.2597 100.889 27.0499 100.107 27.611C99.4362 28.175 98.5431 28.51 97.9866 28.7362L98.9911 32C99.7729 31.8884 101.334 31.2127 102.675 29.973C104.35 28.3983 106.022 25.8073 107.586 22.4318L112.163 12.4141L108.368 12.3024Z" fill="black"/>
</g>
<defs>
<clipPath id="clip0_331_895">
<rect width="112" height="32" fill="white" transform="translate(0.162964)"/>
</clipPath>
</defs>
</svg>
