<svg width="32" height="32" viewBox="0 0 32 32" fill="none" xmlns="http://www.w3.org/2000/svg">
<path d="M29 12C29.0003 11.907 28.9877 11.8145 28.9625 11.725L27.1688 5.45C27.0482 5.03364 26.7962 4.66745 26.4504 4.40612C26.1045 4.14478 25.6835 4.00232 25.25 4H6.75C6.31654 4.00232 5.89547 4.14478 5.54964 4.40612C5.20382 4.66745 4.95181 5.03364 4.83125 5.45L3.03875 11.725C3.01311 11.8144 3.00006 11.907 3 12V14C3 14.7762 3.18073 15.5418 3.52786 16.2361C3.875 16.9303 4.37902 17.5343 5 18V27C5 27.2652 5.10536 27.5196 5.29289 27.7071C5.48043 27.8946 5.73478 28 6 28H26C26.2652 28 26.5196 27.8946 26.7071 27.7071C26.8946 27.5196 27 27.2652 27 27V18C27.621 17.5343 28.125 16.9303 28.4721 16.2361C28.8193 15.5418 29 14.7762 29 14V12ZM6.75 6H25.25L26.6775 11H5.32625L6.75 6ZM13 13H19V14C19 14.7956 18.6839 15.5587 18.1213 16.1213C17.5587 16.6839 16.7956 17 16 17C15.2044 17 14.4413 16.6839 13.8787 16.1213C13.3161 15.5587 13 14.7956 13 14V13ZM11 13V14C10.9998 14.5159 10.8666 15.023 10.6132 15.4724C10.3599 15.9217 9.9949 16.2982 9.55358 16.5653C9.11226 16.8325 8.6095 16.9813 8.09387 16.9975C7.57825 17.0136 7.06717 16.8965 6.61 16.6575C6.54034 16.6035 6.46384 16.5589 6.3825 16.525C5.95884 16.2538 5.61019 15.8804 5.36861 15.4392C5.12702 14.9979 5.00027 14.503 5 14V13H11ZM25 26H7V18.9C7.3292 18.9663 7.66418 18.9998 8 19C8.77623 19 9.54179 18.8193 10.2361 18.4721C10.9303 18.125 11.5343 17.621 12 17C12.4657 17.621 13.0697 18.125 13.7639 18.4721C14.4582 18.8193 15.2238 19 16 19C16.7762 19 17.5418 18.8193 18.2361 18.4721C18.9303 18.125 19.5343 17.621 20 17C20.4657 17.621 21.0697 18.125 21.7639 18.4721C22.4582 18.8193 23.2238 19 24 19C24.3358 18.9998 24.6708 18.9663 25 18.9V26ZM25.6162 16.525C25.5358 16.5588 25.4602 16.6029 25.3913 16.6562C24.9341 16.8955 24.423 17.0129 23.9073 16.9969C23.3916 16.981 22.8887 16.8323 22.4473 16.5653C22.0058 16.2982 21.6407 15.9218 21.3872 15.4725C21.1336 15.0231 21.0003 14.516 21 14V13H27V14C26.9996 14.5032 26.8727 14.9981 26.6308 15.4394C26.389 15.8806 26.0401 16.2539 25.6162 16.525Z" fill="#0325B6"/>
</svg>
