<svg width="180" height="53" viewBox="0 0 180 53" fill="none" xmlns="http://www.w3.org/2000/svg">
<rect width="180" height="53" fill="#EAEAEA"/>
<path d="M-730 -5614C-730 -5620.63 -724.627 -5626 -718 -5626H1790C1796.63 -5626 1802 -5620.63 1802 -5614V1997C1802 2003.63 1796.63 2009 1790 2009H-718C-724.627 2009 -730 2003.63 -730 1997V-5614Z" fill="#051A7C" fill-opacity="0.05"/>
<path d="M-718 -5626V-5625H1790V-5626V-5627H-718V-5626ZM1802 -5614H1801V1997H1802H1803V-5614H1802ZM1790 2009V2008H-718V2009V2010H1790V2009ZM-730 1997H-729V-5614H-730H-731V1997H-730ZM-718 2009V2008C-724.075 2008 -729 2003.08 -729 1997H-730H-731C-731 2004.18 -725.18 2010 -718 2010V2009ZM1802 1997H1801C1801 2003.08 1796.08 2008 1790 2008V2009V2010C1797.18 2010 1803 2004.18 1803 1997H1802ZM1790 -5626V-5625C1796.08 -5625 1801 -5620.08 1801 -5614H1802H1803C1803 -5621.18 1797.18 -5627 1790 -5627V-5626ZM-718 -5626V-5627C-725.18 -5627 -731 -5621.18 -731 -5614H-730H-729C-729 -5620.08 -724.075 -5625 -718 -5625V-5626Z" fill="#051A7C" fill-opacity="0.1"/>
<rect width="1440" height="6741" transform="translate(-630 -5526)" fill="#F5F4F4"/>
<path d="M-31.6001 -36C-31.6001 -44.8366 -24.4367 -52 -15.6001 -52H195.6C204.436 -52 211.6 -44.8366 211.6 -36V88.8787C211.6 97.7153 204.436 104.879 195.6 104.879H-15.6001C-24.4367 104.879 -31.6001 97.7152 -31.6001 88.8787V-36Z" fill="white"/>
<path fill-rule="evenodd" clip-rule="evenodd" d="M26.9707 19.8268H18.1162V11.015H57.9658V19.8268H35.8292V41.8638H26.9707V19.8268ZM40.2585 41.8603V24.2327H57.9755V33.0445H49.117V41.8603H40.2585Z" fill="#0030F3"/>
<path d="M79.0708 42.442C75.4586 42.442 72.5451 41.3988 70.3311 39.3123C68.1171 37.2259 66.9522 34.7918 66.8352 32.0098H73.7832C74.0165 33.2848 74.6062 34.2774 75.5533 34.9873C76.4999 35.6973 77.6726 36.0523 79.0708 36.0523C80.2651 36.0523 81.2339 35.806 81.9765 35.3133C82.7197 34.8207 83.091 34.1542 83.091 33.3138C83.091 31.8359 81.7366 30.7203 79.0271 29.9668L76.0122 29.1844C73.4191 28.489 71.3802 27.3588 69.8944 25.794C68.4086 24.2291 67.651 22.2731 67.6222 19.9259C67.6222 17.057 68.5903 14.775 70.5278 13.0797C72.4653 11.3845 75.0507 10.5369 78.2844 10.5369C81.547 10.5369 84.1977 11.5149 86.2372 13.471C88.2766 15.427 89.3546 17.6656 89.4709 20.1867H82.5667C82.2464 19.0565 81.6927 18.2306 80.9063 17.709C80.1193 17.1874 79.2454 16.9266 78.2844 16.9266C77.2065 16.9266 76.3325 17.144 75.6625 17.5786C74.9925 18.0133 74.6428 18.6363 74.6134 19.4477C74.5846 20.2591 74.8833 20.9256 75.5096 21.4472C76.1358 21.9688 77.0895 22.4035 78.3714 22.7513L81.9111 23.6641C84.5036 24.3596 86.5215 25.5042 87.9635 27.098C89.4056 28.6918 90.1266 30.6913 90.1266 33.0965C90.1266 35.7625 89.1069 37.9866 87.0674 39.7687C85.0285 41.5509 82.3628 42.442 79.0708 42.442Z" fill="black"/>
<path d="M99.4505 41.9204H92.8516V9.31987H99.4505V22.4036C100.703 20.6069 102.727 19.7086 105.524 19.7086C108.175 19.7086 110.251 20.5924 111.751 22.3601C113.252 24.1278 114.001 26.4605 114.001 29.3584V41.9204H107.403V30.4885C107.403 27.2719 106.223 25.6636 103.864 25.6636C102.553 25.6636 101.489 26.1418 100.674 27.098C99.8583 28.0543 99.4505 29.4743 99.4505 31.3579V41.9204Z" fill="black"/>
<path d="M136.348 39.1384C134.104 41.3118 131.395 42.3985 128.22 42.3985C125.045 42.3985 122.335 41.3045 120.092 39.1166C117.849 36.9288 116.727 34.241 116.727 31.0535C116.727 27.8658 117.849 25.1781 120.092 22.9902C122.335 20.8024 125.045 19.7085 128.22 19.7085C131.395 19.7085 134.104 20.8024 136.348 22.9902C138.591 25.1781 139.712 27.8658 139.712 31.0535C139.712 34.241 138.591 36.936 136.348 39.1384ZM124.724 34.8351C125.656 35.7914 126.821 36.2695 128.22 36.2695C129.618 36.2695 130.776 35.7914 131.694 34.8351C132.611 33.8788 133.07 32.6183 133.07 31.0535C133.07 29.4886 132.611 28.2281 131.694 27.2718C130.776 26.3155 129.618 25.8373 128.22 25.8373C126.821 25.8373 125.664 26.3155 124.746 27.2718C123.828 28.2281 123.369 29.4886 123.369 31.0535C123.369 32.6183 123.821 33.8788 124.724 34.8351Z" fill="black"/>
<path d="M149.036 51.005H142.438V20.1866H149.036V22.3599C149.503 21.6644 150.275 21.0487 151.353 20.5126C152.43 19.9765 153.639 19.7085 154.979 19.7085C157.805 19.7085 160.201 20.8241 162.168 23.0554C164.134 25.2868 165.117 27.9527 165.117 31.0535C165.117 34.1541 164.134 36.8201 162.168 39.0514C160.201 41.2828 157.805 42.3985 154.979 42.3985C153.639 42.3985 152.43 42.1304 151.353 41.5943C150.275 41.0582 149.503 40.4424 149.036 39.7469V51.005ZM149.867 34.922C150.799 35.9363 152.008 36.4434 153.493 36.4434C154.979 36.4434 156.181 35.9363 157.099 34.922C158.016 33.9078 158.475 32.6183 158.475 31.0535C158.475 29.4886 158.016 28.1991 157.099 27.1848C156.181 26.1706 154.979 25.6635 153.493 25.6635C152.008 25.6635 150.806 26.1706 149.888 27.1848C148.971 28.1991 148.512 29.4886 148.512 31.0535C148.512 32.6183 148.963 33.9078 149.867 34.922Z" fill="black"/>
</svg>
